#N canvas 2294 42 1140 661 16;
#X declare -path cyclone;
#X obj 452 137 openpanel;
#X obj 420 87 bng 18 250 50 0 empty empty empty 0 -9 0 12 #fcfcfc #000000 #000000;
#X obj 312 244 bng 18 250 50 0 empty empty empty 0 -9 0 12 #fcfcfc #000000 #000000;
#X obj 24 51 declare -path cyclone;
#X obj 337 394 cyclone/midiparse;
#N canvas 1448 301 721 791 polysynth 0;
#X obj 43 20 inlet;
#X obj 43 67 poly 3;
#X obj 43 131 pack f f f;
#X obj 43 178 route 1 2 3;
#X obj 150 625 dac~;
#X obj 349 273 vsl 23 196 0 1 0 0 empty empty empty 0 -9 0 16 #fcfcfc #000000 #000000 0 1;
#X obj 151 546 *~;
#N canvas 551 588 600 571 trisynth 0;
#X obj 83 58 inlet;
#X obj 85 105 unpack f f;
#X obj 84 150 mtof;
#X obj 283 150 / 127;
#X msg 285 194 \$1 50;
#X obj 283 248 vline~;
#X obj 83 195 phasor~;
#X obj 170 307 *~;
#X obj 169 347 /~ 3;
#X obj 168 392 outlet~;
#X obj 75 249 cyclone/triangle~ 0.9 0.5;
#X connect 0 0 1 0;
#X connect 1 0 2 0;
#X connect 1 1 3 0;
#X connect 2 0 6 0;
#X connect 3 0 4 0;
#X connect 4 0 5 0;
#X connect 5 0 7 1;
#X connect 6 0 10 0;
#X connect 7 0 8 0;
#X connect 8 0 9 0;
#X connect 10 0 7 0;
#X restore 42 249 pd trisynth;
#N canvas 0 -40 600 571 trisynth 0;
#X obj 83 58 inlet;
#X obj 85 105 unpack f f;
#X obj 84 150 mtof;
#X obj 283 150 / 127;
#X msg 285 194 \$1 50;
#X obj 283 248 vline~;
#X obj 83 195 phasor~;
#X obj 170 307 *~;
#X obj 169 347 /~ 3;
#X obj 168 392 outlet~;
#X obj 75 249 cyclone/triangle~ 0.9 0.5;
#X connect 0 0 1 0;
#X connect 1 0 2 0;
#X connect 1 1 3 0;
#X connect 2 0 6 0;
#X connect 3 0 4 0;
#X connect 4 0 5 0;
#X connect 5 0 7 1;
#X connect 6 0 10 0;
#X connect 7 0 8 0;
#X connect 8 0 9 0;
#X connect 10 0 7 0;
#X restore 149 253 pd trisynth;
#N canvas 22 -72 600 571 trisynth 0;
#X obj 83 58 inlet;
#X obj 85 105 unpack f f;
#X obj 84 150 mtof;
#X obj 283 150 / 127;
#X msg 285 194 \$1 50;
#X obj 283 248 vline~;
#X obj 83 195 phasor~;
#X obj 170 307 *~;
#X obj 169 347 /~ 3;
#X obj 168 392 outlet~;
#X obj 75 249 cyclone/triangle~ 0.9 0.5;
#X connect 0 0 1 0;
#X connect 1 0 2 0;
#X connect 1 1 3 0;
#X connect 2 0 6 0;
#X connect 3 0 4 0;
#X connect 4 0 5 0;
#X connect 5 0 7 1;
#X connect 6 0 10 0;
#X connect 7 0 8 0;
#X connect 8 0 9 0;
#X connect 10 0 7 0;
#X restore 254 254 pd trisynth;
#X connect 0 0 1 0;
#X connect 1 0 2 0;
#X connect 1 1 2 1;
#X connect 1 2 2 2;
#X connect 2 0 3 0;
#X connect 3 0 7 0;
#X connect 3 1 8 0;
#X connect 3 2 9 0;
#X connect 5 0 6 1;
#X connect 6 0 4 0;
#X connect 6 0 4 1;
#X connect 7 0 6 0;
#X connect 8 0 6 0;
#X connect 9 0 6 0;
#X restore 336 450 pd polysynth;
#X f 24;
#X obj 190 806 cyclone/seq /home/scossar/projects/python/hello_midi/cello-C-chord.mid;
#X obj 337 329 cyclone/seq;
#X msg 397 271 read \$1;
#X connect 0 0 8 0;
#X connect 1 0 0 0;
#X connect 2 0 7 0;
#X connect 4 0 5 0;
#X connect 7 0 4 0;
#X connect 8 0 7 0;
