#N canvas 0 66 3440 1340 16;
#X obj 13 25 bng 40 250 50 0 \$0_init empty init 0 -12 0 16 #fcfcfc #000000 #000000;
#X obj 62 25 r \$0_init;
#X msg 62 53 0;
#X obj 62 81 s \$0_init_zero;
#X obj 197 73 metro 100;
#X obj 194 25 tgl 40 0 empty empty run 0 -12 0 16 #fcfcfc #000000 #000000 0 1;
#X obj 194 104 s \$0_run;
#N canvas 1205 543 557 691 arrays 0;
#X obj 26 68 array define \$0_x_input 11025;
#X obj 26 29 array define \$0_y_target 11025;
#X obj 25 107 array define \$0_x_phase_1 11025;
#X obj 23 170 array define \$0_a_lvl_1 11025;
#X obj 23 199 array define \$0_da_lvl_1 11025;
#X obj 25 235 array define \$0_z_lvl_1 11025;
#X obj 21 265 array define \$0_dz_lvl_1 11025;
#X obj 20 334 array define \$0_w_lvl_1 2;
#X obj 20 364 array define \$0_dw_lvl_1 2;
#X obj 19 401 array define \$0_b_lvl_1 1;
#X obj 19 431 array define \$0_db_lvl_1 1;
#X restore 16 149 pd arrays;
#X obj 18 280 s \$0_bin_bang;
#N canvas 1293 658 904 619 iterator 0;
#X obj 55 85 r \$0_bin_bang;
#X obj 55 133 f;
#X obj 101 131 + 1;
#X obj 292 25 inlet example_size;
#X obj 55 185 %;
#X obj 55 232 outlet;
#X connect 0 0 1 0;
#X connect 1 0 2 0;
#X connect 1 0 4 0;
#X connect 2 0 1 1;
#X connect 3 0 4 1;
#X connect 4 0 5 0;
#X restore 17 350 pd iterator;
#X obj 122 352 r \$0_init;
#X text 75 319 // m;
#X obj 17 384 s \$0_m;
#X obj 18 242 metro;
#X obj 68 242 r \$0_run;
#X obj 19 423 r \$0_m;
#X msg 18 213 tempo 64 samp;
#X obj 21 1047 dollar_0;
#X obj 96 1047 f \$0;
#X obj 21 1016 t s b;
#N canvas 1084 342 859 631 initialize_weights 0;
#X obj 386 28 inlet symbol;
#X obj 392 115 array size;
#X obj 142 359 / 1e+06;
#X obj 142 323 random 100000;
#X obj 142 393 - 0.05;
#X obj 236 257 until;
#X obj 236 217 f 1;
#X obj 273 322 f;
#X obj 316 362 %;
#X obj 392 158 t f f;
#X obj 236 285 t b b;
#X obj 441 483 array set;
#X obj 386 56 t b b s s, f 16;
#X obj 316 327 + 1;
#X connect 0 0 12 0;
#X connect 1 0 9 0;
#X connect 2 0 4 0;
#X connect 3 0 2 0;
#X connect 4 0 11 0;
#X connect 5 0 10 0;
#X connect 6 0 5 0;
#X connect 7 0 8 0;
#X connect 7 0 13 0;
#X connect 8 0 11 1;
#X connect 9 0 6 1;
#X connect 9 1 8 1;
#X connect 10 0 3 0;
#X connect 10 1 7 0;
#X connect 12 0 6 0;
#X connect 12 1 1 0;
#X connect 12 2 1 1;
#X connect 12 3 11 2;
#X connect 13 0 7 1;
#X restore 21 1082 pd initialize_weights;
#X obj 88 425 sel 0;
#X obj 88 463 s \$0_example_0;
#X obj 14 512 s \$0_alpha;
#X msg 14 478 0.05;
#X obj 1117 395 n_unit.1, f 61;
#X obj 606 395 n_unit.1, f 49;
#X obj 656 772 n_unit.2b, f 134;
#N canvas 2082 682 592 588 more_arrays 1;
#X obj 60 34 array define \$0_lvl_1_W1 1;
#X obj 60 64 array define \$0_lvl_1_dW1 1;
#X obj 60 94 array define \$0_lvl_1_b1 1;
#X obj 60 124 array define \$0_lvl_1_db1 1;
#X obj 60 164 array define \$0_lvl_1_W2 1;
#X obj 60 194 array define \$0_lvl_1_dW2 1;
#X obj 60 224 array define \$0_lvl_1_b2 1;
#X obj 60 254 array define \$0_lvl_1_db2 1;
#X obj 61 357 array define \$0_lvl_1_A1 128;
#X obj 61 387 array define \$0_lvl_1_dA1 128;
#X obj 61 297 array define \$0_lvl_1_Z1 128;
#X obj 61 327 array define \$0_lvl_1_dZ1 128;
#X obj 60 454 array define \$0_lvl_1_Z2 128;
#X obj 60 484 array define \$0_lvl_1_dZ2 128;
#X obj 60 514 array define \$0_lvl_1_A2 128;
#X obj 60 544 array define \$0_lvl_1_dA2 128;
#X obj 330 34 array define \$0_lvl_2_W 2;
#X obj 330 64 array define \$0_lvl_2_dW 2;
#X obj 330 94 array define \$0_lvl_2_b1 1;
#X obj 330 124 array define \$0_lvl_2_db1 1;
#X obj 331 297 array define \$0_lvl_2_Z 128;
#X obj 331 327 array define \$0_lvl_2_dZ 128;
#X obj 331 357 array define \$0_lvl_2_A 128;
#X obj 331 387 array define \$0_lvl_2_dA 128;
#X restore 101 149 pd more_arrays;
#X msg 17 320 128;
#X obj 296 37 r \$0_m;
#X obj 281 5 t f f f, f 120;
#X obj 540 333 s \$0_r_lvl_1_params;
#X obj 530 256 r \$0_bin_bang;
#X obj 452 303 spigot;
#X obj 462 255 tgl 40 0 empty empty empty 0 -12 0 16 #dfdfdf #00ff04 #000000 0 1;
#X obj 281 284 spigot;
#N canvas 1437 274 513 405 read_examples 0;
#X obj 52 59 inlet index;
#X obj 161 275 outlet value;
#X obj 204 59 inlet symbol;
#X msg 257 118 1;
#X obj 204 87 t s s b;
#X obj 161 242 array get;
#X connect 0 0 5 0;
#X connect 2 0 4 0;
#X connect 3 0 5 1;
#X connect 4 1 5 2;
#X connect 4 2 3 0;
#X connect 5 0 1 0;
#X restore 703 101 pd read_examples;
#N canvas 1433 238 513 405 read_examples 0;
#X obj 52 59 inlet index;
#X obj 161 275 outlet value;
#X obj 204 59 inlet symbol;
#X msg 257 118 1;
#X obj 204 87 t s s b;
#X obj 161 242 array get;
#X connect 0 0 5 0;
#X connect 2 0 4 0;
#X connect 3 0 5 1;
#X connect 4 1 5 2;
#X connect 4 2 3 0;
#X connect 5 0 1 0;
#X restore 800 225 pd read_examples;
#X msg 801 192 0;
#X obj 764 68 dollar_0;
#X obj 839 68 f \$0;
#X obj 764 37 t s b;
#X obj 844 192 dollar_0;
#X obj 919 192 f \$0;
#X obj 844 161 t s b;
#X obj 801 131 r \$0_r_lvl_1_params;
#N canvas 1433 238 513 405 read_examples 0;
#X obj 52 59 inlet index;
#X obj 161 275 outlet value;
#X obj 204 59 inlet symbol;
#X msg 257 118 1;
#X obj 204 87 t s s b;
#X obj 161 242 array get;
#X connect 0 0 5 0;
#X connect 2 0 4 0;
#X connect 3 0 5 1;
#X connect 4 1 5 2;
#X connect 4 2 3 0;
#X connect 5 0 1 0;
#X restore 897 358 pd read_examples;
#X obj 943 324 dollar_0;
#X obj 1018 324 f \$0;
#X obj 943 293 t s b;
#X msg 898 325 0;
#X obj 898 261 r \$0_r_lvl_1_params;
#X msg 1010 396 tanh;
#N canvas 177 70 1712 1332 backup 0;
#X obj 334 222 n_unit.2, f 124;
#X msg 1341 222 activation linear;
#N canvas 1437 274 513 405 read_examples 0;
#X obj 52 59 inlet index;
#X obj 161 275 outlet value;
#X obj 204 59 inlet symbol;
#X msg 257 118 1;
#X obj 204 87 t s s b;
#X obj 161 242 array get;
#X connect 0 0 5 0;
#X connect 2 0 4 0;
#X connect 3 0 5 1;
#X connect 4 1 5 2;
#X connect 4 2 3 0;
#X connect 5 0 1 0;
#X restore 498 30 pd read_examples;
#N canvas 1433 238 513 405 read_examples 0;
#X obj 52 59 inlet index;
#X obj 161 275 outlet value;
#X obj 204 59 inlet symbol;
#X msg 257 118 1;
#X obj 204 87 t s s b;
#X obj 161 242 array get;
#X connect 0 0 5 0;
#X connect 2 0 4 0;
#X connect 3 0 5 1;
#X connect 4 1 5 2;
#X connect 4 2 3 0;
#X connect 5 0 1 0;
#X restore 513 164 pd read_examples;
#X msg 610 100 symbol w_lvl_1;
#X msg 514 131 0;
#N canvas 1433 238 513 405 read_examples 0;
#X obj 52 59 inlet index;
#X obj 161 275 outlet value;
#X obj 204 59 inlet symbol;
#X msg 257 118 1;
#X obj 204 87 t s s b;
#X obj 161 242 array get;
#X connect 0 0 5 0;
#X connect 2 0 4 0;
#X connect 3 0 5 1;
#X connect 4 1 5 2;
#X connect 4 2 3 0;
#X connect 5 0 1 0;
#X restore 828 30 pd read_examples;
#N canvas 1433 238 513 405 read_examples 0;
#X obj 52 59 inlet index;
#X obj 161 275 outlet value;
#X obj 204 59 inlet symbol;
#X msg 257 118 1;
#X obj 204 87 t s s b;
#X obj 161 242 array get;
#X connect 0 0 5 0;
#X connect 2 0 4 0;
#X connect 3 0 5 1;
#X connect 4 1 5 2;
#X connect 4 2 3 0;
#X connect 5 0 1 0;
#X restore 857 167 pd read_examples;
#X msg 960 100 symbol w_lvl_1;
#X msg 858 134 1;
#X obj 559 -3 dollar_0;
#X obj 634 -3 f \$0;
#X msg 612 -34 symbol x_input;
#X obj 559 -34 t s b;
#X obj 557 131 dollar_0;
#X obj 632 131 f \$0;
#X obj 557 100 t s b;
#X obj 892 -5 dollar_0;
#X obj 967 -5 f \$0;
#X obj 892 -36 t s b;
#X obj 903 133 dollar_0;
#X obj 978 133 f \$0;
#X obj 903 102 t s b;
#N canvas 1433 238 513 405 read_examples 0;
#X obj 52 59 inlet index;
#X obj 161 275 outlet value;
#X obj 204 59 inlet symbol;
#X msg 257 118 1;
#X obj 204 87 t s s b;
#X obj 161 242 array get;
#X connect 0 0 5 0;
#X connect 2 0 4 0;
#X connect 3 0 5 1;
#X connect 4 1 5 2;
#X connect 4 2 3 0;
#X connect 5 0 1 0;
#X restore 1158 167 pd read_examples;
#X obj 1204 133 dollar_0;
#X obj 1279 133 f \$0;
#X obj 1204 102 t s b;
#X msg 1261 100 symbol b_lvl_1;
#X msg 1159 134 0;
#X obj 258 182 t b b, f 7;
#X obj 328 182 s \$0_r_lvl_1_params;
#X obj 514 70 r \$0_r_lvl_1_params;
#X obj 858 70 r \$0_r_lvl_1_params;
#X obj 1159 70 r \$0_r_lvl_1_params;
#X obj 258 85 r \$0_bin_bang;
#X obj 258 132 spigot;
#X obj 208 84 tgl 40 0 empty empty empty 0 -12 0 16 #dfdfdf #00ff04 #000000 0 1;
#X obj 200 -115 r \$0_m;
#X obj 200 -79 t f f f, f 79;
#N canvas 1499 622 1269 664 save_lvl_1_predictions 0;
#X obj 60 42 inlet index;
#X obj 414 320 array set;
#X obj 721 309 array set;
#X obj 203 45 inlet a;
#X obj 325 45 inlet z;
#X obj 798 45 inlet z_name;
#X obj 505 44 inlet a_name;
#X obj 202 166 f;
#X obj 400 164 f;
#X obj 59 99 t b f b f, f 72;
#X connect 0 0 9 0;
#X connect 3 0 7 1;
#X connect 4 0 8 1;
#X connect 5 0 2 2;
#X connect 6 0 1 2;
#X connect 7 0 1 0;
#X connect 8 0 2 0;
#X connect 9 0 7 0;
#X connect 9 1 1 1;
#X connect 9 2 8 0;
#X connect 9 3 2 1;
#X restore 200 460 pd save_lvl_1_predictions;
#X f 79;
#X obj 671 415 dollar_0;
#X obj 746 415 f \$0;
#X obj 671 384 t s b;
#X msg 730 382 symbol a_lvl_1;
#X obj 867 415 dollar_0;
#X obj 942 415 f \$0;
#X obj 867 384 t s b;
#X msg 926 382 symbol z_lvl_1;
#X obj 226 312 f;
#X obj 590 312 f;
#X obj 200 262 t f b b;
#X msg 951 -38 symbol x_phase_1;
#X obj 200 133 spigot;
#N canvas 1451 183 1239 1087 dA_output_layer 0;
#X obj 830 52 inlet s_y_target;
#X obj 312 52 inlet s_a_output_layer;
#X obj 986 52 inlet s_da_output_layer;
#X obj 37 52 inlet bang;
#X obj 314 177 array size;
#X obj 293 262 f 1;
#X obj 293 309 until;
#X obj 293 365 f;
#X obj 357 374 + 1;
#X msg 138 113 0;
#X obj 137 145 s \$0_dA_ol_0;
#X obj 361 327 r \$0_dA_ol_0;
#X obj 293 453 %, f 26;
#X obj 282 658 array get, f 33;
#X obj 37 80 t b b b, f 13;
#X msg 88 115 1;
#X obj 696 708 array get, f 33;
#X obj 918 878 array set;
#X obj 490 781 -;
#X obj 314 107 t b s s, f 29;
#X obj 293 516 t f f f f, f 76;
#X obj 314 219 t f f f, f 23;
#X obj 69 664 - 1;
#X obj 70 720 sel;
#X obj 70 772 outlet done;
#X obj 86 177 s \$0_dA_ol_1;
#X obj 412 624 r \$0_dA_ol_1;
#X obj 826 674 r \$0_dA_ol_1;
#X connect 0 0 16 2;
#X connect 1 0 19 0;
#X connect 2 0 17 2;
#X connect 3 0 14 0;
#X connect 4 0 21 0;
#X connect 5 0 6 0;
#X connect 6 0 7 0;
#X connect 7 0 8 0;
#X connect 7 0 12 0;
#X connect 8 0 7 1;
#X connect 9 0 10 0;
#X connect 11 0 7 1;
#X connect 12 0 20 0;
#X connect 13 0 18 0;
#X connect 14 0 5 0;
#X connect 14 1 15 0;
#X connect 14 2 9 0;
#X connect 15 0 25 0;
#X connect 16 0 18 1;
#X connect 18 0 17 0;
#X connect 19 0 4 0;
#X connect 19 1 4 1;
#X connect 19 2 13 2;
#X connect 20 0 23 0;
#X connect 20 1 13 0;
#X connect 20 2 16 0;
#X connect 20 3 17 1;
#X connect 21 0 22 0;
#X connect 21 1 5 1;
#X connect 21 2 12 1;
#X connect 22 0 23 1;
#X connect 23 0 24 0;
#X connect 26 0 13 1;
#X connect 27 0 16 1;
#X restore 194 583 pd dA_output_layer;
#X f 80;
#X obj 406 551 dollar_0;
#X obj 481 551 f \$0;
#X obj 406 520 t s b;
#X msg 465 518 symbol a_lvl_1;
#X obj 618 549 dollar_0;
#X obj 693 549 f \$0;
#X obj 618 518 t s b;
#X msg 677 516 symbol y_target;
#X obj 831 547 dollar_0;
#X obj 906 547 f \$0;
#X obj 831 516 t s b;
#X msg 890 514 symbol da_lvl_1;
#X obj 194 551 r \$0_example_0;
#X text 412 613 // for linear regresion dZ_output == dA_output;
#N canvas 1724 70 1712 1332 dW_output_lvl_1 0;
#X obj 72 34 inlet bang;
#X obj 357 34 inlet s_A_prev_feature_one;
#X obj 600 34 inlet s_A_prev_feature_two;
#X obj 188 34 inlet s_dZ_lvl;
#X text 404 8 // A_prev == input features;
#X obj 851 34 inlet s_dw_lvl;
#N canvas 1831 184 941 910 element_wise_product 0;
#X obj 285 50 inlet arr_one_name;
#X obj 496 57 inlet arr_two_name;
#X obj 69 51 inlet bang;
#X obj 651 152 t s s;
#X obj 215 660 array get;
#X obj 354 218 array size;
#X obj 333 287 f 1;
#X obj 333 349 until;
#X obj 333 430 f 0;
#X obj 384 433 + 1;
#X obj 354 389 r \$0_el_prod_reset;
#X msg 69 269 1;
#X obj 333 493 t f f f;
#X obj 619 654 array get;
#X obj 392 740 *;
#X obj 395 804 +;
#X obj 395 873 f;
#X obj 395 937 f;
#X obj 204 783 sel \$1;
#X obj 354 255 t f f;
#X obj 161 712 - 1;
#X obj 395 1000 outlet;
#X obj 451 765 r \$0_el_prod_reset;
#X obj 449 825 r \$0_el_prod_reset;
#X obj 77 135 t b b b;
#X obj 120 221 s \$0_el_prod_reset;
#X msg 117 190 0;
#X obj 282 119 t s b s, f 28;
#X connect 0 0 27 0;
#X connect 1 0 3 0;
#X connect 2 0 24 0;
#X connect 3 1 13 2;
#X connect 4 0 14 0;
#X connect 5 0 19 0;
#X connect 6 0 7 0;
#X connect 7 0 8 0;
#X connect 8 0 9 0;
#X connect 8 0 12 0;
#X connect 9 0 8 1;
#X connect 10 0 8 1;
#X connect 11 0 4 1;
#X connect 11 0 13 1;
#X connect 12 0 18 0;
#X connect 12 1 4 0;
#X connect 12 2 13 0;
#X connect 13 0 14 1;
#X connect 14 0 15 0;
#X connect 15 0 16 0;
#X connect 16 0 15 1;
#X connect 16 0 17 1;
#X connect 17 0 21 0;
#X connect 18 0 17 0;
#X connect 19 0 6 1;
#X connect 19 1 20 0;
#X connect 20 0 18 1;
#X connect 22 0 15 1;
#X connect 23 0 16 1;
#X connect 24 0 6 0;
#X connect 24 1 11 0;
#X connect 24 2 26 0;
#X connect 26 0 25 0;
#X connect 27 0 4 2;
#X connect 27 1 5 0;
#X connect 27 2 5 1;
#X restore 98 391 pd element_wise_product;
#N canvas 1724 70 1712 1332 element_wise_product 0;
#X obj 285 50 inlet arr_one_name;
#X obj 496 57 inlet arr_two_name;
#X obj 69 51 inlet bang;
#X obj 651 152 t s s;
#X obj 215 660 array get;
#X obj 354 218 array size;
#X obj 333 287 f 1;
#X obj 333 349 until;
#X obj 333 430 f 0;
#X obj 384 433 + 1;
#X obj 354 389 r \$0_el_prod_reset;
#X msg 69 269 1;
#X obj 333 493 t f f f;
#X obj 619 654 array get;
#X obj 392 740 *;
#X obj 395 804 +;
#X obj 395 873 f;
#X obj 395 937 f;
#X obj 204 783 sel \$1;
#X obj 354 255 t f f;
#X obj 161 712 - 1;
#X obj 395 1000 outlet;
#X obj 451 765 r \$0_el_prod_reset;
#X obj 449 825 r \$0_el_prod_reset;
#X obj 77 135 t b b b;
#X obj 120 221 s \$0_el_prod_reset;
#X msg 117 190 0;
#X obj 282 119 t s b s, f 28;
#X connect 0 0 27 0;
#X connect 1 0 3 0;
#X connect 2 0 24 0;
#X connect 3 1 13 2;
#X connect 4 0 14 0;
#X connect 5 0 19 0;
#X connect 6 0 7 0;
#X connect 7 0 8 0;
#X connect 8 0 9 0;
#X connect 8 0 12 0;
#X connect 9 0 8 1;
#X connect 10 0 8 1;
#X connect 11 0 4 1;
#X connect 11 0 13 1;
#X connect 12 0 18 0;
#X connect 12 1 4 0;
#X connect 12 2 13 0;
#X connect 13 0 14 1;
#X connect 14 0 15 0;
#X connect 15 0 16 0;
#X connect 16 0 15 1;
#X connect 16 0 17 1;
#X connect 17 0 21 0;
#X connect 18 0 17 0;
#X connect 19 0 6 1;
#X connect 19 1 20 0;
#X connect 20 0 18 1;
#X connect 22 0 15 1;
#X connect 23 0 16 1;
#X connect 24 0 6 0;
#X connect 24 1 11 0;
#X connect 24 2 26 0;
#X connect 26 0 25 0;
#X connect 27 0 4 2;
#X connect 27 1 5 0;
#X connect 27 2 5 1;
#X restore 419 397 pd element_wise_product;
#X obj 72 62 t b b b;
#X obj 98 621 pack f f;
#X obj 480 737 array set;
#X obj 98 667 t b l;
#X obj 98 764 outlet done;
#X obj 188 111 t s s;
#X obj 600 66 t b s s;
#X obj 600 116 array size;
#X obj 600 144 t f f;
#X obj 98 484 /;
#X obj 419 484 /;
#X connect 0 0 8 0;
#X connect 1 0 6 2;
#X connect 2 0 14 0;
#X connect 3 0 13 0;
#X connect 5 0 10 2;
#X connect 6 0 17 0;
#X connect 7 0 18 0;
#X connect 8 1 6 0;
#X connect 8 2 7 0;
#X connect 9 0 11 0;
#X connect 11 0 12 0;
#X connect 11 1 10 0;
#X connect 13 0 6 1;
#X connect 13 1 7 1;
#X connect 14 0 15 0;
#X connect 14 1 15 1;
#X connect 14 2 7 2;
#X connect 15 0 16 0;
#X connect 16 0 17 1;
#X connect 16 1 18 1;
#X connect 17 0 9 0;
#X connect 18 0 9 1;
#X restore 194 715 pd dW_output_lvl_1;
#X f 111;
#X obj 415 677 dollar_0;
#X obj 490 677 f \$0;
#X obj 415 646 t s b;
#X msg 474 644 symbol da_lvl_1;
#X obj 636 675 dollar_0;
#X obj 711 675 f \$0;
#X obj 636 644 t s b;
#X msg 695 642 symbol x_input;
#X obj 857 673 dollar_0;
#X obj 932 673 f \$0;
#X obj 857 642 t s b;
#X msg 916 639 symbol x_phase_1;
#X obj 1079 670 dollar_0;
#X obj 1154 670 f \$0;
#X obj 1079 639 t s b;
#X msg 1138 636 symbol dw_lvl_1;
#X obj 194 648 bng 23 250 50 0 empty empty empty 0 -12 0 16 #ffffff #00faff #000000;
#X obj 194 770 bng 23 250 50 0 empty empty empty 0 -12 0 16 #ffffff #00faff #000000;
#N canvas 1841 208 670 567 db_lvl_1 0;
#X obj 39 52 inlet bang;
#X obj 208 51 inlet s_da_lvl;
#X obj 415 48 inlet s_db_lvl;
#X obj 208 79 t b s s;
#X obj 213 132 array size;
#X obj 76 222 array sum;
#X obj 224 393 array set;
#X obj 97 289 /;
#X obj 40 478 outlet done;
#X obj 39 80 t b b;
#X connect 0 0 9 0;
#X connect 1 0 3 0;
#X connect 2 0 6 2;
#X connect 3 0 4 0;
#X connect 3 1 5 2;
#X connect 3 2 4 1;
#X connect 4 0 7 1;
#X connect 5 0 7 0;
#X connect 7 0 6 0;
#X connect 9 0 8 0;
#X connect 9 1 5 0;
#X restore 194 830 pd db_lvl_1;
#X f 48;
#X obj 575 797 dollar_0;
#X obj 650 797 f \$0;
#X obj 575 766 t s b;
#X msg 634 763 symbol db_lvl_1;
#X obj 384 799 dollar_0;
#X obj 459 799 f \$0;
#X obj 384 768 t s b;
#X msg 443 766 symbol da_lvl_1;
#X obj 194 890 bng 23 250 50 0 empty empty empty 0 -12 0 16 #ffffff #00faff #000000;
#X obj 1167 1032 dollar_0;
#X obj 1242 1032 f \$0;
#X obj 1167 1001 t s b;
#X msg 1226 998 symbol db_lvl_1;
#X obj 680 1035 dollar_0;
#X obj 755 1035 f \$0;
#X obj 680 1004 t s b;
#X obj 1159 907 dollar_0;
#X obj 1234 907 f \$0;
#X obj 1159 876 t s b;
#X msg 739 1001 symbol b_lvl_1;
#X msg 1218 873 symbol dw_lvl_1;
#X obj 676 907 dollar_0;
#X obj 751 907 f \$0;
#X obj 676 876 t s b;
#X msg 735 873 symbol w_lvl_1;
#N canvas 1724 70 1712 1332 update_update_weights_lvl_1 0;
#X obj 48 51 inlet bang;
#X obj 345 52 inlet s_w_lvl;
#X obj 800 48 inlet s_dw_lvl;
#X obj 399 567 expr $f1 - ($f2 * $f3);
#X obj 572 529 r \$0_alpha;
#X obj 346 175 array size;
#X obj 328 210 f 1;
#X obj 48 79 t b b b b, f 14;
#X msg 157 208 0;
#X obj 157 236 s \$0_up_lvl_1_0;
#X obj 328 257 until;
#X msg 120 237 1;
#X obj 120 271 s \$0_up_lvl_1_1;
#X obj 328 307 f;
#X obj 382 318 + 1;
#X obj 397 264 r \$0_up_lvl_1_0;
#X obj 611 444 array get, f 24;
#X obj 705 413 r \$0_up_lvl_1_1;
#X obj 325 444 array get, f 24;
#X obj 419 411 r \$0_up_lvl_1_1;
#X obj 399 670 array set;
#X obj 345 80 t b s s s;
#X obj 328 369 t f f f;
#X obj 79 748 outlet done;
#X connect 0 0 7 0;
#X connect 1 0 21 0;
#X connect 2 0 16 2;
#X connect 3 0 20 0;
#X connect 4 0 3 2;
#X connect 5 0 6 1;
#X connect 6 0 10 0;
#X connect 7 0 23 0;
#X connect 7 1 6 0;
#X connect 7 2 11 0;
#X connect 7 3 8 0;
#X connect 8 0 9 0;
#X connect 10 0 13 0;
#X connect 11 0 12 0;
#X connect 13 0 14 0;
#X connect 13 0 22 0;
#X connect 14 0 13 1;
#X connect 15 0 13 1;
#X connect 16 0 3 1;
#X connect 17 0 16 1;
#X connect 18 0 3 0;
#X connect 19 0 18 1;
#X connect 21 0 5 0;
#X connect 21 1 20 2;
#X connect 21 2 18 2;
#X connect 21 3 5 1;
#X connect 22 0 18 0;
#X connect 22 1 16 0;
#X connect 22 2 20 1;
#X restore 194 944 pd update_update_weights_lvl_1;
#X f 121;
#N canvas 4 70 1712 1332 update_biases_lvl_1 0;
#X obj 478 44 inlet s_b_lvl;
#X obj 642 43 inlet s_db_lvl;
#X obj 517 456 expr $f1 - ($f2 * $f3);
#X obj 690 418 r \$0_alpha;
#X obj 478 72 t s s;
#X obj 460 348 array get;
#X obj 494 317 r \$0_up_lvl_1_1;
#X msg 403 317 0;
#X obj 377 141 t b b b;
#X obj 661 354 array get;
#X obj 695 323 r \$0_up_lvl_1_1;
#X msg 652 324 0;
#X obj 548 578 array set;
#X obj 379 607 outlet done;
#X obj 582 544 r \$0_up_lvl_1_0;
#X obj 137 50 inlet bang;
#X connect 0 0 4 0;
#X connect 1 0 9 2;
#X connect 2 0 12 0;
#X connect 3 0 2 2;
#X connect 4 0 12 2;
#X connect 4 1 5 2;
#X connect 5 0 2 0;
#X connect 6 0 5 1;
#X connect 7 0 5 0;
#X connect 8 0 13 0;
#X connect 8 1 7 0;
#X connect 8 2 11 0;
#X connect 9 0 2 1;
#X connect 10 0 9 1;
#X connect 11 0 9 0;
#X connect 14 0 12 1;
#X connect 15 0 8 0;
#X restore 194 1069 pd update_biases_lvl_1;
#X f 122;
#X obj 194 1008 bng 23 250 50 0 empty empty empty 0 -12 0 16 #ffffff #00faff #000000;
#X connect 0 0 48 1;
#X connect 0 1 49 1;
#X connect 1 0 0 6;
#X connect 2 0 0 1;
#X connect 3 0 0 2;
#X connect 4 0 16 0;
#X connect 5 0 3 0;
#X connect 6 0 0 3;
#X connect 7 0 0 4;
#X connect 8 0 22 0;
#X connect 9 0 7 0;
#X connect 10 0 2 1;
#X connect 11 0 10 1;
#X connect 12 0 13 0;
#X connect 13 0 10 0;
#X connect 13 1 11 0;
#X connect 14 0 3 1;
#X connect 15 0 14 1;
#X connect 16 0 14 0;
#X connect 16 1 15 0;
#X connect 17 0 6 1;
#X connect 18 0 17 1;
#X connect 19 0 17 0;
#X connect 19 1 18 0;
#X connect 20 0 7 1;
#X connect 21 0 20 1;
#X connect 22 0 20 0;
#X connect 22 1 21 0;
#X connect 23 0 0 5;
#X connect 24 0 23 1;
#X connect 25 0 24 1;
#X connect 26 0 24 0;
#X connect 26 1 25 0;
#X connect 27 0 26 0;
#X connect 28 0 23 0;
#X connect 29 0 0 0;
#X connect 29 1 30 0;
#X connect 31 0 5 0;
#X connect 32 0 9 0;
#X connect 33 0 28 0;
#X connect 35 0 29 0;
#X connect 36 0 35 1;
#X connect 36 0 52 1;
#X connect 38 0 52 0;
#X connect 38 1 2 0;
#X connect 38 2 6 0;
#X connect 40 0 39 3;
#X connect 41 0 40 1;
#X connect 42 0 40 0;
#X connect 42 1 41 0;
#X connect 43 0 42 0;
#X connect 44 0 39 4;
#X connect 45 0 44 1;
#X connect 46 0 44 0;
#X connect 46 1 45 0;
#X connect 47 0 46 0;
#X connect 48 0 39 1;
#X connect 49 0 39 2;
#X connect 50 0 39 0;
#X connect 50 1 48 0;
#X connect 50 2 49 0;
#X connect 51 0 19 0;
#X connect 52 0 50 0;
#X connect 53 0 85 0;
#X connect 54 0 53 1;
#X connect 55 0 54 1;
#X connect 56 0 54 0;
#X connect 56 1 55 0;
#X connect 57 0 56 0;
#X connect 58 0 53 2;
#X connect 59 0 58 1;
#X connect 60 0 58 0;
#X connect 60 1 59 0;
#X connect 61 0 60 0;
#X connect 62 0 53 3;
#X connect 63 0 62 1;
#X connect 64 0 62 0;
#X connect 64 1 63 0;
#X connect 65 0 64 0;
#X connect 68 0 86 0;
#X connect 69 0 68 1;
#X connect 70 0 69 1;
#X connect 71 0 69 0;
#X connect 71 1 70 0;
#X connect 72 0 71 0;
#X connect 73 0 68 2;
#X connect 74 0 73 1;
#X connect 75 0 73 0;
#X connect 75 1 74 0;
#X connect 76 0 75 0;
#X connect 77 0 68 3;
#X connect 78 0 77 1;
#X connect 79 0 77 0;
#X connect 79 1 78 0;
#X connect 80 0 79 0;
#X connect 81 0 68 4;
#X connect 82 0 81 1;
#X connect 83 0 81 0;
#X connect 83 1 82 0;
#X connect 84 0 83 0;
#X connect 85 0 68 0;
#X connect 86 0 87 0;
#X connect 87 0 96 0;
#X connect 88 0 87 2;
#X connect 89 0 88 1;
#X connect 90 0 88 0;
#X connect 90 1 89 0;
#X connect 91 0 90 0;
#X connect 92 0 87 1;
#X connect 93 0 92 1;
#X connect 94 0 92 0;
#X connect 94 1 93 0;
#X connect 95 0 94 0;
#X connect 96 0 113 0;
#X connect 97 0 114 2;
#X connect 98 0 97 1;
#X connect 99 0 97 0;
#X connect 99 1 98 0;
#X connect 100 0 99 0;
#X connect 101 0 114 1;
#X connect 102 0 101 1;
#X connect 103 0 101 0;
#X connect 103 1 102 0;
#X connect 104 0 113 2;
#X connect 105 0 104 1;
#X connect 106 0 104 0;
#X connect 106 1 105 0;
#X connect 107 0 103 0;
#X connect 108 0 106 0;
#X connect 109 0 113 1;
#X connect 110 0 109 1;
#X connect 111 0 109 0;
#X connect 111 1 110 0;
#X connect 112 0 111 0;
#X connect 113 0 115 0;
#X connect 115 0 114 0;
#X restore 16 181 pd backup;
#X msg 817 37 symbol X;
#X msg 897 161 symbol lvl_1_W1;
#X msg 1000 291 symbol lvl_1_b1;
#N canvas 1437 274 513 405 read_examples 0;
#X obj 52 59 inlet index;
#X obj 161 275 outlet value;
#X obj 204 59 inlet symbol;
#X msg 257 118 1;
#X obj 204 87 t s s b;
#X obj 161 242 array get;
#X connect 0 0 5 0;
#X connect 2 0 4 0;
#X connect 3 0 5 1;
#X connect 4 1 5 2;
#X connect 4 2 3 0;
#X connect 5 0 1 0;
#X restore 1238 101 pd read_examples;
#N canvas 1433 238 513 405 read_examples 0;
#X obj 52 59 inlet index;
#X obj 161 275 outlet value;
#X obj 204 59 inlet symbol;
#X msg 257 118 1;
#X obj 204 87 t s s b;
#X obj 161 242 array get;
#X connect 0 0 5 0;
#X connect 2 0 4 0;
#X connect 3 0 5 1;
#X connect 4 1 5 2;
#X connect 4 2 3 0;
#X connect 5 0 1 0;
#X restore 1359 225 pd read_examples;
#X msg 1360 192 0;
#X obj 1299 68 dollar_0;
#X obj 1374 68 f \$0;
#X obj 1299 37 t s b;
#X obj 1403 192 dollar_0;
#X obj 1480 192 f \$0;
#X obj 1403 161 t s b;
#X obj 1360 131 r \$0_r_lvl_1_params;
#N canvas 1433 238 513 405 read_examples 0;
#X obj 52 59 inlet index;
#X obj 161 275 outlet value;
#X obj 204 59 inlet symbol;
#X msg 257 118 1;
#X obj 204 87 t s s b;
#X obj 161 242 array get;
#X connect 0 0 5 0;
#X connect 2 0 4 0;
#X connect 3 0 5 1;
#X connect 4 1 5 2;
#X connect 4 2 3 0;
#X connect 5 0 1 0;
#X restore 1480 358 pd read_examples;
#X obj 1526 324 dollar_0;
#X obj 1601 324 f \$0;
#X obj 1526 293 t s b;
#X msg 1481 325 0;
#X obj 1481 261 r \$0_r_lvl_1_params;
#X msg 1352 37 symbol X;
#X msg 1456 161 symbol lvl_1_W2;
#X msg 1583 291 symbol lvl_1_b2;
#N canvas 1433 238 513 405 read_examples 0;
#X obj 52 59 inlet index;
#X obj 161 275 outlet value;
#X obj 204 59 inlet symbol;
#X msg 257 118 1;
#X obj 204 87 t s s b;
#X obj 161 242 array get;
#X connect 0 0 5 0;
#X connect 2 0 4 0;
#X connect 3 0 5 1;
#X connect 4 1 5 2;
#X connect 4 2 3 0;
#X connect 5 0 1 0;
#X restore 1012 735 pd read_examples;
#X msg 1013 702 0;
#X obj 1056 702 dollar_0;
#X obj 1133 702 f \$0;
#X obj 1056 671 t s b;
#X obj 1013 641 r \$0_r_lvl_1_params;
#N canvas 1433 238 513 405 read_examples 0;
#X obj 52 59 inlet index;
#X obj 161 275 outlet value;
#X obj 204 59 inlet symbol;
#X msg 257 118 1;
#X obj 204 87 t s s b;
#X obj 161 242 array get;
#X connect 0 0 5 0;
#X connect 2 0 4 0;
#X connect 3 0 5 1;
#X connect 4 1 5 2;
#X connect 4 2 3 0;
#X connect 5 0 1 0;
#X restore 1344 735 pd read_examples;
#X obj 1388 702 dollar_0;
#X obj 1470 702 f \$0;
#X obj 1388 671 t s b;
#X obj 1345 641 r \$0_r_lvl_1_params;
#N canvas 1433 238 513 405 read_examples 0;
#X obj 52 59 inlet index;
#X obj 161 275 outlet value;
#X obj 204 59 inlet symbol;
#X msg 257 118 1;
#X obj 204 87 t s s b;
#X obj 161 242 array get;
#X connect 0 0 5 0;
#X connect 2 0 4 0;
#X connect 3 0 5 1;
#X connect 4 1 5 2;
#X connect 4 2 3 0;
#X connect 5 0 1 0;
#X restore 1574 735 pd read_examples;
#X obj 1620 701 dollar_0;
#X obj 1695 701 f \$0;
#X obj 1620 670 t s b;
#X msg 1575 702 0;
#X obj 1575 638 r \$0_r_lvl_1_params;
#X msg 1345 702 1;
#X msg 74 1016 symbol lvl_1_W1;
#X obj 20 1149 dollar_0;
#X obj 95 1149 f \$0;
#X obj 20 1118 t s b;
#N canvas 1088 378 859 631 initialize_weights 0;
#X obj 386 28 inlet symbol;
#X obj 392 115 array size;
#X obj 142 359 / 1e+06;
#X obj 142 323 random 100000;
#X obj 142 393 - 0.05;
#X obj 236 257 until;
#X obj 236 217 f 1;
#X obj 273 322 f;
#X obj 316 362 %;
#X obj 392 158 t f f;
#X obj 236 285 t b b;
#X obj 441 483 array set;
#X obj 386 56 t b b s s, f 16;
#X obj 316 327 + 1;
#X connect 0 0 12 0;
#X connect 1 0 9 0;
#X connect 2 0 4 0;
#X connect 3 0 2 0;
#X connect 4 0 11 0;
#X connect 5 0 10 0;
#X connect 6 0 5 0;
#X connect 7 0 8 0;
#X connect 7 0 13 0;
#X connect 8 0 11 1;
#X connect 9 0 6 1;
#X connect 9 1 8 1;
#X connect 10 0 3 0;
#X connect 10 1 7 0;
#X connect 12 0 6 0;
#X connect 12 1 1 0;
#X connect 12 2 1 1;
#X connect 12 3 11 2;
#X connect 13 0 7 1;
#X restore 20 1184 pd initialize_weights;
#X msg 73 1118 symbol lvl_1_W2;
#X obj 19 1249 dollar_0;
#X obj 94 1249 f \$0;
#X obj 19 1218 t s b;
#N canvas 1088 378 859 631 initialize_weights 0;
#X obj 386 28 inlet symbol;
#X obj 392 115 array size;
#X obj 142 359 / 1e+06;
#X obj 142 323 random 100000;
#X obj 142 393 - 0.05;
#X obj 236 257 until;
#X obj 236 217 f 1;
#X obj 273 322 f;
#X obj 316 362 %;
#X obj 392 158 t f f;
#X obj 236 285 t b b;
#X obj 441 483 array set;
#X obj 386 56 t b b s s, f 16;
#X obj 316 327 + 1;
#X connect 0 0 12 0;
#X connect 1 0 9 0;
#X connect 2 0 4 0;
#X connect 3 0 2 0;
#X connect 4 0 11 0;
#X connect 5 0 10 0;
#X connect 6 0 5 0;
#X connect 7 0 8 0;
#X connect 7 0 13 0;
#X connect 8 0 11 1;
#X connect 9 0 6 1;
#X connect 9 1 8 1;
#X connect 10 0 3 0;
#X connect 10 1 7 0;
#X connect 12 0 6 0;
#X connect 12 1 1 0;
#X connect 12 2 1 1;
#X connect 12 3 11 2;
#X connect 13 0 7 1;
#X restore 19 1284 pd initialize_weights;
#X msg 72 1217 symbol lvl_2_W;
#X obj 210 1057 dollar_0;
#X obj 285 1057 f \$0;
#X obj 210 1026 t s b;
#N canvas 1088 378 859 631 initialize_weights 0;
#X obj 386 28 inlet symbol;
#X obj 392 115 array size;
#X obj 142 359 / 1e+06;
#X obj 142 323 random 100000;
#X obj 142 393 - 0.05;
#X obj 236 257 until;
#X obj 236 217 f 1;
#X obj 273 322 f;
#X obj 316 362 %;
#X obj 392 158 t f f;
#X obj 236 285 t b b;
#X obj 441 483 array set;
#X obj 386 56 t b b s s, f 16;
#X obj 316 327 + 1;
#X connect 0 0 12 0;
#X connect 1 0 9 0;
#X connect 2 0 4 0;
#X connect 3 0 2 0;
#X connect 4 0 11 0;
#X connect 5 0 10 0;
#X connect 6 0 5 0;
#X connect 7 0 8 0;
#X connect 7 0 13 0;
#X connect 8 0 11 1;
#X connect 9 0 6 1;
#X connect 9 1 8 1;
#X connect 10 0 3 0;
#X connect 10 1 7 0;
#X connect 12 0 6 0;
#X connect 12 1 1 0;
#X connect 12 2 1 1;
#X connect 12 3 11 2;
#X connect 13 0 7 1;
#X restore 210 1092 pd initialize_weights;
#X obj 209 1157 dollar_0;
#X obj 284 1157 f \$0;
#X obj 209 1126 t s b;
#N canvas 1088 378 859 631 initialize_weights 0;
#X obj 386 28 inlet symbol;
#X obj 392 115 array size;
#X obj 142 359 / 1e+06;
#X obj 142 323 random 100000;
#X obj 142 393 - 0.05;
#X obj 236 257 until;
#X obj 236 217 f 1;
#X obj 273 322 f;
#X obj 316 362 %;
#X obj 392 158 t f f;
#X obj 236 285 t b b;
#X obj 441 483 array set;
#X obj 386 56 t b b s s, f 16;
#X obj 316 327 + 1;
#X connect 0 0 12 0;
#X connect 1 0 9 0;
#X connect 2 0 4 0;
#X connect 3 0 2 0;
#X connect 4 0 11 0;
#X connect 5 0 10 0;
#X connect 6 0 5 0;
#X connect 7 0 8 0;
#X connect 7 0 13 0;
#X connect 8 0 11 1;
#X connect 9 0 6 1;
#X connect 9 1 8 1;
#X connect 10 0 3 0;
#X connect 10 1 7 0;
#X connect 12 0 6 0;
#X connect 12 1 1 0;
#X connect 12 2 1 1;
#X connect 12 3 11 2;
#X connect 13 0 7 1;
#X restore 209 1192 pd initialize_weights;
#X msg 263 1025 symbol lvl_1_b1;
#X msg 262 1125 symbol lvl_1_b2;
#X obj 209 1257 dollar_0;
#X obj 284 1257 f \$0;
#X obj 209 1226 t s b;
#N canvas 1088 378 859 631 initialize_weights 0;
#X obj 386 28 inlet symbol;
#X obj 392 115 array size;
#X obj 142 359 / 1e+06;
#X obj 142 323 random 100000;
#X obj 142 393 - 0.05;
#X obj 236 257 until;
#X obj 236 217 f 1;
#X obj 273 322 f;
#X obj 316 362 %;
#X obj 392 158 t f f;
#X obj 236 285 t b b;
#X obj 441 483 array set;
#X obj 386 56 t b b s s, f 16;
#X obj 316 327 + 1;
#X connect 0 0 12 0;
#X connect 1 0 9 0;
#X connect 2 0 4 0;
#X connect 3 0 2 0;
#X connect 4 0 11 0;
#X connect 5 0 10 0;
#X connect 6 0 5 0;
#X connect 7 0 8 0;
#X connect 7 0 13 0;
#X connect 8 0 11 1;
#X connect 9 0 6 1;
#X connect 9 1 8 1;
#X connect 10 0 3 0;
#X connect 10 1 7 0;
#X connect 12 0 6 0;
#X connect 12 1 1 0;
#X connect 12 2 1 1;
#X connect 12 3 11 2;
#X connect 13 0 7 1;
#X restore 209 1292 pd initialize_weights;
#X msg 262 1225 symbol lvl_2_b1;
#N canvas 1499 622 1371 551 cache_lvl_one_predictions 0;
#X obj 60 42 inlet index;
#X obj 414 320 array set;
#X obj 721 309 array set;
#X obj 203 45 inlet a;
#X obj 325 45 inlet z;
#X obj 798 45 inlet z_name;
#X obj 505 44 inlet a_name;
#X obj 202 166 f;
#X obj 400 164 f;
#X obj 59 99 t b f b f, f 72;
#X connect 0 0 9 0;
#X connect 3 0 7 1;
#X connect 4 0 8 1;
#X connect 5 0 2 2;
#X connect 6 0 1 2;
#X connect 7 0 1 0;
#X connect 8 0 2 0;
#X connect 9 0 7 0;
#X connect 9 1 1 1;
#X connect 9 2 8 0;
#X connect 9 3 2 1;
#X restore 727 605 pd cache_lvl_one_predictions;
#X obj 800 433 t f f;
#X obj 892 507 dollar_0;
#X obj 967 507 f \$0;
#X obj 892 476 t s b;
#X msg 949 474 symbol lvl_1_A1;
#X obj 948 571 dollar_0;
#X obj 1023 571 f \$0;
#X obj 948 540 t s b;
#X msg 1005 538 symbol lvl_1_Z1;
#N canvas 1499 622 1371 551 cache_lvl_one_predictions 0;
#X obj 60 42 inlet index;
#X obj 414 320 array set;
#X obj 721 309 array set;
#X obj 203 45 inlet a;
#X obj 325 45 inlet z;
#X obj 798 45 inlet z_name;
#X obj 505 44 inlet a_name;
#X obj 202 166 f;
#X obj 400 164 f;
#X obj 59 99 t b f b f, f 72;
#X connect 0 0 9 0;
#X connect 3 0 7 1;
#X connect 4 0 8 1;
#X connect 5 0 2 2;
#X connect 6 0 1 2;
#X connect 7 0 1 0;
#X connect 8 0 2 0;
#X connect 9 0 7 0;
#X connect 9 1 1 1;
#X connect 9 2 8 0;
#X connect 9 3 2 1;
#X restore 1277 605 pd cache_lvl_one_predictions;
#X obj 1350 433 t f f;
#X obj 1442 507 dollar_0;
#X obj 1517 507 f \$0;
#X obj 1442 476 t s b;
#X obj 1498 571 dollar_0;
#X obj 1573 571 f \$0;
#X obj 1498 540 t s b;
#X msg 1499 474 symbol lvl_1_A2;
#X msg 1555 538 symbol lvl_1_Z2;
#X obj 610 446 t f f f;
#X obj 1448 845 dollar_0;
#X obj 1523 845 f \$0;
#X obj 1448 814 t s b;
#X obj 1726 849 dollar_0;
#X obj 1801 849 f \$0;
#X obj 1726 818 t s b;
#X msg 1505 812 symbol lvl_2_A;
#X msg 1783 816 symbol lvl_2_Z;
#N canvas 1507 694 1371 551 cache_lvl_two_predictions 0;
#X obj 60 42 inlet index;
#X obj 414 320 array set;
#X obj 721 309 array set;
#X obj 203 45 inlet a;
#X obj 325 45 inlet z;
#X obj 798 45 inlet z_name;
#X obj 505 44 inlet a_name;
#X obj 202 166 f;
#X obj 400 164 f;
#X obj 59 99 t b f b f, f 72;
#X connect 0 0 9 0;
#X connect 3 0 7 1;
#X connect 4 0 8 1;
#X connect 5 0 2 2;
#X connect 6 0 1 2;
#X connect 7 0 1 0;
#X connect 8 0 2 0;
#X connect 9 0 7 0;
#X connect 9 1 1 1;
#X connect 9 2 8 0;
#X connect 9 3 2 1;
#X restore 617 883 pd cache_lvl_two_predictions;
#X f 139;
#X msg 1625 396 tanh;
#X msg 1750 771 linear;
#X msg 1109 671 symbol lvl_2_W;
#X msg 1441 671 symbol lvl_2_W;
#X msg 1677 668 symbol lvl_2_b1;
#N canvas 258 109 953 506 waves 0;
#X msg 555 185 0;
#X obj 386 87 bng 23 250 50 0 empty empty empty 0 -12 0 16 #fcfcfc #000000 #000000;
#N canvas 0 50 450 250 (subpatch) 0;
#X array \$0_X 128 float 3;
#A 0 1 0.99904 0.996166 0.991383 0.984698 0.976125 0.965681 0.953386 0.939262 0.923337 0.905643 0.886213 0.865082 0.842293 0.81789 0.791919 0.764428 0.735473 0.705108 0.67339 0.640381 0.606145 0.570747 0.534254 0.496737 0.458268 0.41892 0.378768 0.337891 0.296366 0.254272 0.211691 0.168704 0.125394 0.0818433 0.0381357 -0.00564504 -0.049415 -0.0930901 -0.136587 -0.179822 -0.222712 -0.265175 -0.307129 -0.348495 -0.389193 -0.429144 -0.468273 -0.506504 -0.543763 -0.579981 -0.615086 -0.649012 -0.681693 -0.713068 -0.743076 -0.771659 -0.798762 -0.824334 -0.848326 -0.87069 -0.891386 -0.910373 -0.927614 -0.943077 -0.956731 -0.968552 -0.978515 -0.986602 -0.992799 -0.997091 -0.999471 -0.999935 -0.998483 -0.995115 -0.98984 -0.982668 -0.973611 -0.962687 -0.949918 -0.935328 -0.918944 -0.900798 -0.880925 -0.859364 -0.836155 -0.811342 -0.784974 -0.757102 -0.727777 -0.697057 -0.665001 -0.63167 -0.597127 -0.56144 -0.524677 -0.486907 -0.448203 -0.408641 -0.368296 -0.327243 -0.285564 -0.243337 -0.200644 -0.157565 -0.114185 -0.0705861 -0.0268516 0.0169344 0.0606879 0.104325 0.147762 0.190916 0.233704 0.276044 0.317854 0.359055 0.399568 0.439314 0.478218 0.516206 0.553204 0.589141 0.623948 0.65756 0.68991 0.720938 0.750584;
#X coords 0 1 128 -1 200 140 1;
#X restore 107 123 graph;
#X obj 429 296 tabwrite~ \$0_X;
#X obj 438 239 osc~, f 16;
#X obj 396 137 t b b b;
#X msg 431 184 334.531;
#N canvas 0 50 450 250 (subpatch) 0;
#X array \$0_Y 128 float 3;
#A 0 0 0.0069694 0.0139388 0.0209082 0.0278776 0.034847 0.0418164 0.0487858 0.0557552 0.0627246 0.069694 0.0766634 0.0836328 0.0906022 0.0975716 0.104541 0.11151 0.11848 0.125449 0.132419 0.139388 0.146357 0.153327 0.160296 0.167266 0.174235 0.181204 0.188174 0.195143 0.202113 0.209082 0.216051 0.223021 0.22999 0.23696 0.243929 0.250898 0.257868 0.264837 0.271807 0.278776 0.285745 0.292715 0.299684 0.306654 0.313623 0.320592 0.327562 0.334531 0.341501 0.34847 0.355439 0.362409 0.369378 0.376348 0.383317 0.390286 0.397256 0.404225 0.411195 0.418164 0.425133 0.432103 0.439072 0.446042 0.453011 0.45998 0.46695 0.473919 0.480889 0.487858 0.494827 0.501797 0.508766 0.515736 0.522705 0.529674 0.536644 0.543613 0.550583 0.557552 0.564521 0.571491 0.57846 0.58543 0.592399 0.599369 0.606338 0.613307 0.620277 0.627246 0.634216 0.641185 0.648154 0.655124 0.662093 0.669062 0.676032 0.683001 0.689971 0.69694 0.70391 0.710879 0.717848 0.724818 0.731787 0.738757 0.745726 0.752695 0.759665 0.766634 0.773603 0.780573 0.787542 0.794512 0.801481 0.808451 0.81542 0.822389 0.829359 0.836328 0.843298 0.850267 0.857236 0.864206 0.871175 0.878145 0.885114;
#X coords 0 1 128 -1 200 140 1;
#X restore 110 285 graph;
#X msg 785 201 0;
#X obj 616 103 bng 23 250 50 0 empty empty empty 0 -12 0 16 #fcfcfc #000000 #000000;
#X obj 626 153 t b b b;
#X msg 661 200 334.531;
#X obj 659 312 tabwrite~ \$0_Y;
#X obj 659 237 phasor~, f 16;
#X connect 0 0 4 1;
#X connect 1 0 5 0;
#X connect 4 0 3 0;
#X connect 5 0 3 0;
#X connect 5 1 6 0;
#X connect 5 2 0 0;
#X connect 6 0 4 0;
#X connect 8 0 13 1;
#X connect 9 0 10 0;
#X connect 10 0 12 0;
#X connect 10 1 11 0;
#X connect 10 2 8 0;
#X connect 11 0 13 0;
#X connect 13 0 12 0;
#X coords 0 -1 1 1 220 340 2 100 100;
#X restore 8 554 pd waves;
#X obj 824 957 dollar_0;
#X obj 899 957 f \$0;
#X obj 824 926 t s b;
#X msg 881 924 symbol lvl_2_A;
#X obj 1248 954 dollar_0;
#X obj 1323 954 f \$0;
#X obj 1248 923 t s b;
#X msg 1305 921 symbol lvl_2_dA;
#X obj 1035 957 dollar_0;
#X obj 1110 957 f \$0;
#X obj 1035 926 t s b;
#X msg 1092 924 symbol Y;
#N canvas 245 298 1354 1104 level_2_dA 0;
#X obj 68 34 inlet bang;
#X obj 344 33 inlet s_A;
#X obj 990 32 inlet s_Y;
#X obj 1157 32 inlet s_dA;
#X obj 344 177 array size;
#X obj 323 262 f 1;
#X obj 323 309 until;
#X obj 323 365 f;
#X obj 387 374 + 1;
#X msg 168 113 0;
#X obj 167 145 s \$0_dA_ol_0;
#X obj 391 327 r \$0_dA_ol_0;
#X obj 323 453 %, f 26;
#X obj 312 658 array get, f 33;
#X obj 67 80 t b b b, f 13;
#X msg 118 115 1;
#X obj 726 708 array get, f 33;
#X obj 948 878 array set;
#X obj 520 781 -;
#X obj 344 107 t b s s, f 29;
#X obj 323 516 t f f f f, f 76;
#X obj 344 219 t f f f, f 23;
#X obj 99 664 - 1;
#X obj 100 720 sel;
#X obj 100 772 outlet done;
#X obj 116 177 s \$0_dA_ol_1;
#X obj 442 624 r \$0_dA_ol_1;
#X obj 856 674 r \$0_dA_ol_1;
#X connect 0 0 14 0;
#X connect 1 0 19 0;
#X connect 2 0 16 2;
#X connect 3 0 17 2;
#X connect 4 0 21 0;
#X connect 5 0 6 0;
#X connect 6 0 7 0;
#X connect 7 0 8 0;
#X connect 7 0 12 0;
#X connect 8 0 7 1;
#X connect 9 0 10 0;
#X connect 11 0 7 1;
#X connect 12 0 20 0;
#X connect 13 0 18 0;
#X connect 14 0 5 0;
#X connect 14 1 15 0;
#X connect 14 2 9 0;
#X connect 15 0 25 0;
#X connect 16 0 18 1;
#X connect 18 0 17 0;
#X connect 19 0 4 0;
#X connect 19 1 4 1;
#X connect 19 2 13 2;
#X connect 20 0 23 0;
#X connect 20 1 13 0;
#X connect 20 2 16 0;
#X connect 20 3 17 1;
#X connect 21 0 22 0;
#X connect 21 1 5 1;
#X connect 21 2 12 1;
#X connect 22 0 23 1;
#X connect 23 0 24 0;
#X connect 26 0 13 1;
#X connect 27 0 16 1;
#X restore 612 990 pd level_2_dA;
#X f 80;
#X obj 569 938 r \$0_example_0;
#X obj 907 1085 dollar_0;
#X obj 982 1085 f \$0;
#X obj 907 1054 t s b;
#X obj 1202 1083 dollar_0;
#X obj 1277 1083 f \$0;
#X obj 1202 1052 t s b;
#X obj 1497 1079 dollar_0;
#X obj 1572 1079 f \$0;
#X obj 1497 1048 t s b;
#X obj 612 1050 bng 23 250 50 0 empty empty empty 0 -12 0 16 #ffffff #00faff #000000;
#X msg 966 1052 symbol lvl_2_dA;
#X msg 1556 1045 symbol lvl_2_dW;
#X text 904 1021 // for linear activation dZ == dA;
#X msg 1261 1050 symbol lvl_2_A;
#N canvas 1728 106 825 553 dW_lvl_2 0;
#X obj 72 34 inlet bang;
#X obj 357 34 inlet s_A_prev_feature_one;
#X obj 188 34 inlet s_dZ_lvl;
#X obj 611 34 inlet s_dw_lvl;
#N canvas 1831 184 941 910 element_wise_product 0;
#X obj 285 50 inlet arr_one_name;
#X obj 496 57 inlet arr_two_name;
#X obj 69 51 inlet bang;
#X obj 651 152 t s s;
#X obj 215 660 array get;
#X obj 354 218 array size;
#X obj 333 287 f 1;
#X obj 333 349 until;
#X obj 333 430 f 0;
#X obj 384 433 + 1;
#X obj 354 389 r \$0_el_prod_reset;
#X msg 69 269 1;
#X obj 333 493 t f f f;
#X obj 619 654 array get;
#X obj 392 740 *;
#X obj 395 804 +;
#X obj 395 873 f;
#X obj 395 937 f;
#X obj 204 783 sel \$1;
#X obj 354 255 t f f;
#X obj 161 712 - 1;
#X obj 395 1000 outlet;
#X obj 451 765 r \$0_el_prod_reset;
#X obj 449 825 r \$0_el_prod_reset;
#X obj 77 135 t b b b;
#X obj 120 221 s \$0_el_prod_reset;
#X msg 117 190 0;
#X obj 282 119 t s b s, f 28;
#X connect 0 0 27 0;
#X connect 1 0 3 0;
#X connect 2 0 24 0;
#X connect 3 1 13 2;
#X connect 4 0 14 0;
#X connect 5 0 19 0;
#X connect 6 0 7 0;
#X connect 7 0 8 0;
#X connect 8 0 9 0;
#X connect 8 0 12 0;
#X connect 9 0 8 1;
#X connect 10 0 8 1;
#X connect 11 0 4 1;
#X connect 11 0 13 1;
#X connect 12 0 18 0;
#X connect 12 1 4 0;
#X connect 12 2 13 0;
#X connect 13 0 14 1;
#X connect 14 0 15 0;
#X connect 15 0 16 0;
#X connect 16 0 15 1;
#X connect 16 0 17 1;
#X connect 17 0 21 0;
#X connect 18 0 17 0;
#X connect 19 0 6 1;
#X connect 19 1 20 0;
#X connect 20 0 18 1;
#X connect 22 0 15 1;
#X connect 23 0 16 1;
#X connect 24 0 6 0;
#X connect 24 1 11 0;
#X connect 24 2 26 0;
#X connect 26 0 25 0;
#X connect 27 0 4 2;
#X connect 27 1 5 0;
#X connect 27 2 5 1;
#X restore 72 130 pd element_wise_product;
#X obj 72 311 pack f f;
#X obj 540 427 array set;
#X obj 72 357 t b l;
#X obj 72 454 outlet done;
#X obj 72 274 /;
#X obj 358 66 t b s s;
#X obj 358 116 array size;
#X connect 0 0 4 0;
#X connect 1 0 10 0;
#X connect 2 0 4 1;
#X connect 3 0 6 2;
#X connect 4 0 9 0;
#X connect 5 0 7 0;
#X connect 7 0 8 0;
#X connect 7 1 6 0;
#X connect 9 0 5 0;
#X connect 10 0 11 0;
#X connect 10 1 11 1;
#X connect 10 2 4 2;
#X connect 11 0 9 1;
#X restore 612 1117 pd dW_lvl_2;
#X f 111;
#X obj 610 1170 bng 23 250 50 0 empty empty empty 0 -12 0 16 #ffffff #00faff #000000;
#X obj 991 1197 dollar_0;
#X obj 1066 1197 f \$0;
#X obj 991 1166 t s b;
#X obj 800 1199 dollar_0;
#X obj 875 1199 f \$0;
#X obj 800 1168 t s b;
#N canvas 1845 244 670 567 db_lvl_2 0;
#X obj 39 52 inlet bang;
#X obj 208 51 inlet s_da_lvl;
#X obj 415 48 inlet s_db_lvl;
#X obj 208 79 t b s s;
#X obj 213 132 array size;
#X obj 76 222 array sum;
#X obj 224 393 array set;
#X obj 97 289 /;
#X obj 40 478 outlet done;
#X obj 39 80 t b b;
#X connect 0 0 9 0;
#X connect 1 0 3 0;
#X connect 2 0 6 2;
#X connect 3 0 4 0;
#X connect 3 1 5 2;
#X connect 3 2 4 1;
#X connect 4 0 7 1;
#X connect 5 0 7 0;
#X connect 7 0 6 0;
#X connect 9 0 8 0;
#X connect 9 1 5 0;
#X restore 610 1230 pd db_lvl_2;
#X f 48;
#X msg 859 1166 symbol lvl_2_dA;
#X msg 1050 1162 symbol lvl_2_db1;
#X obj 610 1269 s \$0_backprop_bang;
#X obj 1990 8 r \$0_backprop_bang;
#N canvas 1204 271 1388 880 dA_lvl_1 0;
#X obj 34 64 inlet bang;
#X obj 848 63 inlet s_lvl_2_dA;
#X obj 420 63 inlet s_lvl_2_W;
#X text 14 7 // dA^[l-1] = W^[l]T . dZ^[l] and dZ^[l] == dA^[l] for linear activation layer;
#X obj 1006 61 inlet s_lvl_1_dA1;
#X obj 1167 60 inlet s_lvl_1_dA2;
#X obj 556 196 array get;
#X msg 588 165 1;
#X obj 420 91 t b b s b b s, f 26;
#X obj 436 196 array get;
#X msg 468 165 1;
#X msg 430 168 0;
#X obj 797 271 array size;
#X obj 960 573 array get, f 13;
#X obj 848 91 t b s s;
#X obj 776 316 f 1;
#X obj 776 366 until;
#X obj 34 92 t b b b b, f 23;
#X obj 215 158 s \$0_dA1_0;
#X msg 215 121 0;
#X msg 154 122 1;
#X obj 152 190 s \$0_dA1_1;
#X obj 776 412 f;
#X obj 835 419 + 1;
#X obj 835 375 r \$0_dA1_0;
#X obj 1010 537 r \$0_dA1_1;
#X msg 550 168 1;
#X obj 901 700 *;
#X obj 948 775 array set;
#X obj 1120 671 *;
#X obj 961 625 t f f;
#X obj 1135 772 array set;
#X obj 778 485 t f f f;
#X obj 66 767 outlet done;
#X connect 0 0 17 0;
#X connect 1 0 14 0;
#X connect 2 0 8 0;
#X connect 4 0 28 2;
#X connect 5 0 31 2;
#X connect 6 0 29 1;
#X connect 7 0 6 1;
#X connect 8 0 11 0;
#X connect 8 1 10 0;
#X connect 8 2 9 2;
#X connect 8 3 26 0;
#X connect 8 4 7 0;
#X connect 8 5 6 2;
#X connect 9 0 27 1;
#X connect 10 0 9 1;
#X connect 11 0 9 0;
#X connect 12 0 15 1;
#X connect 13 0 30 0;
#X connect 14 0 12 0;
#X connect 14 1 12 1;
#X connect 14 2 13 2;
#X connect 15 0 16 0;
#X connect 16 0 22 0;
#X connect 17 0 33 0;
#X connect 17 1 15 0;
#X connect 17 2 20 0;
#X connect 17 3 19 0;
#X connect 19 0 18 0;
#X connect 20 0 21 0;
#X connect 22 0 23 0;
#X connect 22 0 32 0;
#X connect 23 0 22 1;
#X connect 24 0 22 1;
#X connect 25 0 13 1;
#X connect 26 0 6 0;
#X connect 27 0 28 0;
#X connect 29 0 31 0;
#X connect 30 0 27 0;
#X connect 30 1 29 0;
#X connect 32 0 13 0;
#X connect 32 1 28 1;
#X connect 32 2 31 1;
#X restore 1996 117 pd dA_lvl_1;
#X f 101;
#X obj 2197 82 dollar_0;
#X obj 2279 82 f \$0;
#X obj 2197 51 t s b;
#X msg 2250 51 symbol lvl_2_W;
#X obj 2397 82 dollar_0;
#X obj 2479 82 f \$0;
#X obj 2397 51 t s b;
#X msg 2450 51 symbol lvl_2_dA;
#X obj 2597 82 dollar_0;
#X obj 2679 82 f \$0;
#X obj 2597 51 t s b;
#X msg 2650 51 symbol lvl_1_dA1;
#X obj 2801 82 dollar_0;
#X obj 2883 82 f \$0;
#X obj 2801 51 t s b;
#X msg 2854 51 symbol lvl_1_dA1;
#X obj 1995 61 bng 23 250 50 0 empty empty empty 0 -12 0 16 #ffffff #00faff #000000;
#X obj 452 333 t b b b b;
#X connect 1 0 2 0;
#X connect 2 0 3 0;
#X connect 4 0 6 0;
#X connect 5 0 4 0;
#X connect 9 0 12 0;
#X connect 10 0 29 0;
#X connect 13 0 8 0;
#X connect 14 0 13 0;
#X connect 14 0 16 0;
#X connect 15 0 21 0;
#X connect 16 0 13 0;
#X connect 17 0 20 0;
#X connect 18 0 17 1;
#X connect 19 0 17 0;
#X connect 19 1 18 0;
#X connect 21 0 22 0;
#X connect 24 0 23 0;
#X connect 25 1 132 0;
#X connect 25 2 131 2;
#X connect 26 1 122 0;
#X connect 26 2 121 2;
#X connect 27 1 150 1;
#X connect 27 2 150 2;
#X connect 29 0 9 0;
#X connect 30 0 31 0;
#X connect 31 0 36 0;
#X connect 31 1 37 0;
#X connect 31 2 58 0;
#X connect 33 0 34 0;
#X connect 34 0 216 0;
#X connect 35 0 34 1;
#X connect 35 0 36 1;
#X connect 36 0 141 0;
#X connect 37 0 26 1;
#X connect 38 0 26 2;
#X connect 39 0 38 0;
#X connect 40 0 37 1;
#X connect 41 0 40 1;
#X connect 42 0 40 0;
#X connect 42 1 41 0;
#X connect 43 0 38 1;
#X connect 44 0 43 1;
#X connect 45 0 43 0;
#X connect 45 1 44 0;
#X connect 46 0 39 0;
#X connect 47 0 26 3;
#X connect 48 0 47 1;
#X connect 49 0 48 1;
#X connect 50 0 48 0;
#X connect 50 1 49 0;
#X connect 51 0 47 0;
#X connect 52 0 51 0;
#X connect 53 0 26 4;
#X connect 55 0 42 0;
#X connect 56 0 45 0;
#X connect 57 0 50 0;
#X connect 58 0 25 1;
#X connect 59 0 25 2;
#X connect 60 0 59 0;
#X connect 61 0 58 1;
#X connect 62 0 61 1;
#X connect 63 0 61 0;
#X connect 63 1 62 0;
#X connect 64 0 59 1;
#X connect 65 0 64 1;
#X connect 66 0 64 0;
#X connect 66 1 65 0;
#X connect 67 0 60 0;
#X connect 68 0 25 3;
#X connect 69 0 68 1;
#X connect 70 0 69 1;
#X connect 71 0 69 0;
#X connect 71 1 70 0;
#X connect 72 0 68 0;
#X connect 73 0 72 0;
#X connect 74 0 63 0;
#X connect 75 0 66 0;
#X connect 76 0 71 0;
#X connect 77 0 27 2;
#X connect 78 0 77 0;
#X connect 79 0 77 1;
#X connect 80 0 79 1;
#X connect 81 0 79 0;
#X connect 81 1 80 0;
#X connect 82 0 78 0;
#X connect 83 0 27 4;
#X connect 84 0 83 1;
#X connect 85 0 84 1;
#X connect 86 0 84 0;
#X connect 86 1 85 0;
#X connect 87 0 94 0;
#X connect 88 0 27 5;
#X connect 89 0 88 1;
#X connect 90 0 89 1;
#X connect 91 0 89 0;
#X connect 91 1 90 0;
#X connect 92 0 88 0;
#X connect 93 0 92 0;
#X connect 94 0 83 0;
#X connect 95 0 19 0;
#X connect 96 0 99 0;
#X connect 97 0 96 1;
#X connect 98 0 96 0;
#X connect 98 1 97 0;
#X connect 100 0 98 0;
#X connect 101 0 104 0;
#X connect 102 0 101 1;
#X connect 103 0 101 0;
#X connect 103 1 102 0;
#X connect 105 0 103 0;
#X connect 106 0 109 0;
#X connect 107 0 106 1;
#X connect 108 0 106 0;
#X connect 108 1 107 0;
#X connect 110 0 113 0;
#X connect 111 0 110 1;
#X connect 112 0 110 0;
#X connect 112 1 111 0;
#X connect 114 0 108 0;
#X connect 115 0 112 0;
#X connect 116 0 119 0;
#X connect 117 0 116 1;
#X connect 118 0 116 0;
#X connect 118 1 117 0;
#X connect 120 0 118 0;
#X connect 122 0 121 1;
#X connect 122 1 27 1;
#X connect 123 0 121 3;
#X connect 124 0 123 1;
#X connect 125 0 123 0;
#X connect 125 1 124 0;
#X connect 126 0 125 0;
#X connect 127 0 121 4;
#X connect 128 0 127 1;
#X connect 129 0 127 0;
#X connect 129 1 128 0;
#X connect 130 0 129 0;
#X connect 132 0 131 1;
#X connect 132 1 27 3;
#X connect 133 0 131 3;
#X connect 134 0 133 1;
#X connect 135 0 133 0;
#X connect 135 1 134 0;
#X connect 136 0 131 4;
#X connect 137 0 136 1;
#X connect 138 0 136 0;
#X connect 138 1 137 0;
#X connect 139 0 135 0;
#X connect 140 0 138 0;
#X connect 141 0 150 0;
#X connect 141 1 121 0;
#X connect 141 2 131 0;
#X connect 142 0 150 3;
#X connect 143 0 142 1;
#X connect 144 0 142 0;
#X connect 144 1 143 0;
#X connect 145 0 150 4;
#X connect 146 0 145 1;
#X connect 147 0 145 0;
#X connect 147 1 146 0;
#X connect 148 0 144 0;
#X connect 149 0 147 0;
#X connect 151 0 25 4;
#X connect 152 0 27 6;
#X connect 153 0 81 0;
#X connect 154 0 86 0;
#X connect 155 0 91 0;
#X connect 157 0 169 1;
#X connect 158 0 157 1;
#X connect 159 0 157 0;
#X connect 159 1 158 0;
#X connect 160 0 159 0;
#X connect 161 0 169 3;
#X connect 162 0 161 1;
#X connect 163 0 161 0;
#X connect 163 1 162 0;
#X connect 164 0 163 0;
#X connect 165 0 169 2;
#X connect 166 0 165 1;
#X connect 167 0 165 0;
#X connect 167 1 166 0;
#X connect 168 0 167 0;
#X connect 169 0 180 0;
#X connect 170 0 169 0;
#X connect 171 0 185 1;
#X connect 172 0 171 1;
#X connect 173 0 171 0;
#X connect 173 1 172 0;
#X connect 174 0 185 2;
#X connect 175 0 174 1;
#X connect 176 0 174 0;
#X connect 176 1 175 0;
#X connect 177 0 185 3;
#X connect 178 0 177 1;
#X connect 179 0 177 0;
#X connect 179 1 178 0;
#X connect 180 0 185 0;
#X connect 181 0 173 0;
#X connect 182 0 179 0;
#X connect 184 0 176 0;
#X connect 185 0 186 0;
#X connect 186 0 193 0;
#X connect 187 0 193 2;
#X connect 188 0 187 1;
#X connect 189 0 187 0;
#X connect 189 1 188 0;
#X connect 190 0 193 1;
#X connect 191 0 190 1;
#X connect 192 0 190 0;
#X connect 192 1 191 0;
#X connect 193 0 196 0;
#X connect 194 0 192 0;
#X connect 195 0 189 0;
#X connect 197 0 215 0;
#X connect 199 0 198 1;
#X connect 200 0 199 1;
#X connect 201 0 199 0;
#X connect 201 1 200 0;
#X connect 202 0 201 0;
#X connect 203 0 198 2;
#X connect 204 0 203 1;
#X connect 205 0 203 0;
#X connect 205 1 204 0;
#X connect 206 0 205 0;
#X connect 207 0 198 3;
#X connect 208 0 207 1;
#X connect 209 0 207 0;
#X connect 209 1 208 0;
#X connect 210 0 209 0;
#X connect 211 0 198 4;
#X connect 212 0 211 1;
#X connect 213 0 211 0;
#X connect 213 1 212 0;
#X connect 214 0 213 0;
#X connect 215 0 198 0;
#X connect 216 0 27 0;
#X connect 216 1 26 0;
#X connect 216 2 25 0;
#X connect 216 3 32 0;
