#N canvas 0 66 3440 1340 16;
#X obj 13 25 bng 40 250 50 0 \$0_init empty init 0 -12 0 16 #fcfcfc #000000 #000000;
#X obj 62 25 r \$0_init;
#X msg 62 53 0;
#X obj 62 81 s \$0_init_zero;
#X obj 194 73 metro 100;
#X obj 194 25 tgl 40 0 empty empty run 0 -12 0 16 #fcfcfc #000000 #000000 0 1;
#X obj 194 104 s \$0_run;
#N canvas 1249 343 557 691 arrays 0;
#X obj 26 68 array define \$0_x_input 11025;
#X obj 26 29 array define \$0_y_target 11025;
#X obj 25 107 array define \$0_x_phase_1 11025;
#X obj 23 170 array define \$0_a_lvl_1 11025;
#X obj 23 199 array define \$0_da_lvl_1 11025;
#X obj 25 235 array define \$0_z_lvl_1 11025;
#X obj 21 265 array define \$0_dz_lvl_1 11025;
#X obj 20 334 array define \$0_w_lvl_1 2;
#X obj 20 364 array define \$0_dw_lvl_1 2;
#X obj 19 401 array define \$0_b_lvl_1 1;
#X obj 19 431 array define \$0_db_lvl_1 1;
#X restore 16 149 pd arrays;
#X obj 299 72 s \$0_bin_bang;
#N canvas 1293 658 904 619 iterator 0;
#X obj 55 85 r \$0_bin_bang;
#X obj 55 133 f;
#X obj 101 131 + 1;
#X obj 292 25 inlet example_size;
#X obj 55 185 %;
#X obj 55 232 outlet;
#X connect 0 0 1 0;
#X connect 1 0 2 0;
#X connect 1 0 4 0;
#X connect 2 0 1 1;
#X connect 3 0 4 1;
#X connect 4 0 5 0;
#X restore 298 142 pd iterator;
#X obj 403 144 r \$0_init;
#X msg 298 112 11025;
#X text 356 111 // m;
#X obj 298 176 s \$0_m;
#X obj 299 34 metro;
#X obj 349 34 r \$0_run;
#X obj 300 215 r \$0_m;
#X msg 299 5 tempo 64 samp;
#X obj 665 349 n_unit.2, f 124;
#X msg 1672 349 activation linear;
#N canvas 1433 238 513 405 read_examples 0;
#X obj 52 59 inlet index;
#X obj 161 275 outlet value;
#X obj 204 59 inlet symbol;
#X msg 257 118 1;
#X obj 204 87 t s s b;
#X obj 161 242 array get;
#X connect 0 0 5 0;
#X connect 2 0 4 0;
#X connect 3 0 5 1;
#X connect 4 1 5 2;
#X connect 4 2 3 0;
#X connect 5 0 1 0;
#X restore 829 157 pd read_examples;
#N canvas 1433 238 513 405 read_examples 0;
#X obj 52 59 inlet index;
#X obj 161 275 outlet value;
#X obj 204 59 inlet symbol;
#X msg 257 118 1;
#X obj 204 87 t s s b;
#X obj 161 242 array get;
#X connect 0 0 5 0;
#X connect 2 0 4 0;
#X connect 3 0 5 1;
#X connect 4 1 5 2;
#X connect 4 2 3 0;
#X connect 5 0 1 0;
#X restore 844 291 pd read_examples;
#X msg 941 227 symbol w_lvl_1;
#X msg 845 258 0;
#N canvas 1433 238 513 405 read_examples 0;
#X obj 52 59 inlet index;
#X obj 161 275 outlet value;
#X obj 204 59 inlet symbol;
#X msg 257 118 1;
#X obj 204 87 t s s b;
#X obj 161 242 array get;
#X connect 0 0 5 0;
#X connect 2 0 4 0;
#X connect 3 0 5 1;
#X connect 4 1 5 2;
#X connect 4 2 3 0;
#X connect 5 0 1 0;
#X restore 1159 157 pd read_examples;
#N canvas 1433 238 513 405 read_examples 0;
#X obj 52 59 inlet index;
#X obj 161 275 outlet value;
#X obj 204 59 inlet symbol;
#X msg 257 118 1;
#X obj 204 87 t s s b;
#X obj 161 242 array get;
#X connect 0 0 5 0;
#X connect 2 0 4 0;
#X connect 3 0 5 1;
#X connect 4 1 5 2;
#X connect 4 2 3 0;
#X connect 5 0 1 0;
#X restore 1188 294 pd read_examples;
#X msg 1291 227 symbol w_lvl_1;
#X msg 1189 261 1;
#X obj 890 124 dollar_0;
#X obj 965 124 f \$0;
#X msg 943 93 symbol x_input;
#X obj 890 93 t s b;
#X obj 888 258 dollar_0;
#X obj 963 258 f \$0;
#X obj 888 227 t s b;
#X obj 1223 122 dollar_0;
#X obj 1298 122 f \$0;
#X obj 1223 91 t s b;
#X obj 1234 260 dollar_0;
#X obj 1309 260 f \$0;
#X obj 1234 229 t s b;
#N canvas 1433 238 513 405 read_examples 0;
#X obj 52 59 inlet index;
#X obj 161 275 outlet value;
#X obj 204 59 inlet symbol;
#X msg 257 118 1;
#X obj 204 87 t s s b;
#X obj 161 242 array get;
#X connect 0 0 5 0;
#X connect 2 0 4 0;
#X connect 3 0 5 1;
#X connect 4 1 5 2;
#X connect 4 2 3 0;
#X connect 5 0 1 0;
#X restore 1489 294 pd read_examples;
#X obj 1535 260 dollar_0;
#X obj 1610 260 f \$0;
#X obj 1535 229 t s b;
#X msg 1592 227 symbol b_lvl_1;
#X msg 1490 261 0;
#X obj 589 309 t b b, f 7;
#X obj 659 309 s \$0_r_lvl_1_params;
#X obj 845 197 r \$0_r_lvl_1_params;
#X obj 1189 197 r \$0_r_lvl_1_params;
#X obj 1490 197 r \$0_r_lvl_1_params;
#X obj 589 212 r \$0_bin_bang;
#X obj 589 259 spigot;
#X obj 539 211 tgl 40 0 empty empty empty 0 -12 0 16 #dfdfdf #00ff04 #000000 0 1;
#X obj 531 12 r \$0_m;
#X obj 531 48 t f f f, f 79;
#N canvas 1495 586 1269 664 save_lvl_1_predictions 0;
#X obj 60 42 inlet index;
#X obj 414 320 array set;
#X obj 721 309 array set;
#X obj 203 45 inlet a;
#X obj 325 45 inlet z;
#X obj 798 45 inlet z_name;
#X obj 505 44 inlet a_name;
#X obj 202 166 f;
#X obj 400 164 f;
#X obj 59 99 t b f b f, f 72;
#X connect 0 0 9 0;
#X connect 3 0 7 1;
#X connect 4 0 8 1;
#X connect 5 0 2 2;
#X connect 6 0 1 2;
#X connect 7 0 1 0;
#X connect 8 0 2 0;
#X connect 9 0 7 0;
#X connect 9 1 1 1;
#X connect 9 2 8 0;
#X connect 9 3 2 1;
#X restore 531 587 pd save_lvl_1_predictions;
#X f 79;
#X obj 1002 542 dollar_0;
#X obj 1077 542 f \$0;
#X obj 1002 511 t s b;
#X msg 1061 509 symbol a_lvl_1;
#X obj 1198 542 dollar_0;
#X obj 1273 542 f \$0;
#X obj 1198 511 t s b;
#X msg 1257 509 symbol z_lvl_1;
#X obj 557 439 f;
#X obj 921 439 f;
#X obj 531 389 t f b b;
#X msg 29 838 \$0_x_input;
#X msg 30 872 \$0_x_phase_1;
#X msg 29 807 \$0_y_target;
#X msg 30 1067 \$0_w_lvl_1;
#X msg 30 1102 \$0_dw_lvl_1;
#X msg 30 1137 \$0_b_lvl_1;
#X msg 30 1168 \$0_db_lvl_1;
#X msg 30 917 \$0_a_lvl_1;
#X msg 30 984 \$0_z_lvl_1;
#X msg 30 950 \$0_da_lvl_1;
#X msg 30 1016 \$0_dz_lvl_1;
#X obj 14 426 dollar_0;
#X obj 89 426 f \$0;
#X msg 67 395 symbol x_input;
#X obj 14 395 t s b;
#N canvas 1086 182 714 535 initialize_x_input 0;
#X obj 213 32 inlet s_x_input;
#X obj 117 419 tabwrite~;
#X msg 250 125 set \$1;
#X msg 107 122 0;
#X obj 211 74 t b b s;
#X obj 61 163 osc~ 16;
#X connect 0 0 4 0;
#X connect 2 0 1 0;
#X connect 3 0 5 1;
#X connect 4 0 1 0;
#X connect 4 1 3 0;
#X connect 4 2 2 0;
#X connect 5 0 1 0;
#X restore 14 459 pd initialize_x_input;
#X obj 14 531 dollar_0;
#X obj 89 531 f \$0;
#X obj 14 494 t s b;
#N canvas 2026 290 714 535 initialize_x_phase_1 0;
#X obj 117 419 tabwrite~;
#X msg 250 125 set \$1;
#X msg 107 122 0;
#X obj 211 74 t b b s;
#X obj 213 32 inlet s_x_phase_1;
#X obj 260 168 print;
#X obj 61 162 osc~ 18;
#X connect 1 0 0 0;
#X connect 1 0 5 0;
#X connect 2 0 6 1;
#X connect 3 0 0 0;
#X connect 3 1 2 0;
#X connect 3 2 1 0;
#X connect 4 0 3 0;
#X connect 6 0 0 0;
#X restore 14 564 pd initialize_x_phase_1;
#X msg 72 492 symbol x_phase_1;
#X obj 14 326 dollar_0;
#X obj 89 326 f \$0;
#X obj 14 295 t s b;
#X msg 67 295 symbol y_target;
#N canvas 1920 217 714 535 initialize_y_target 0;
#X obj 117 419 tabwrite~;
#X msg 250 125 set \$1;
#X obj 211 74 t b b s;
#X obj 213 32 inlet s_y_target;
#X msg 107 122 0.5;
#X obj 61 163 phasor~ -1;
#X connect 1 0 0 0;
#X connect 2 0 0 0;
#X connect 2 1 4 0;
#X connect 2 2 1 0;
#X connect 3 0 2 0;
#X connect 4 0 5 1;
#X connect 5 0 0 0;
#X restore 14 359 pd initialize_y_target;
#X msg 1282 89 symbol x_phase_1;
#X obj 16 222 dollar_0;
#X obj 91 222 f \$0;
#X obj 16 191 t s b;
#X msg 69 191 symbol w_lvl_1;
#N canvas 543 489 859 631 initialize_weights 0;
#X obj 386 28 inlet symbol;
#X obj 392 115 array size;
#X obj 142 359 / 1e+06;
#X obj 142 323 random 100000;
#X obj 142 393 - 0.05;
#X obj 236 257 until;
#X obj 236 217 f 1;
#X obj 273 322 f;
#X obj 316 362 %;
#X obj 392 158 t f f;
#X obj 236 285 t b b;
#X obj 441 483 array set;
#X obj 386 56 t b b s s, f 16;
#X obj 316 327 + 1;
#X connect 0 0 12 0;
#X connect 1 0 9 0;
#X connect 2 0 4 0;
#X connect 3 0 2 0;
#X connect 4 0 11 0;
#X connect 5 0 10 0;
#X connect 6 0 5 0;
#X connect 7 0 8 0;
#X connect 7 0 13 0;
#X connect 8 0 11 1;
#X connect 9 0 6 1;
#X connect 9 1 8 1;
#X connect 10 0 3 0;
#X connect 10 1 7 0;
#X connect 12 0 6 0;
#X connect 12 1 1 0;
#X connect 12 2 1 1;
#X connect 12 3 11 2;
#X connect 13 0 7 1;
#X restore 16 257 pd initialize_weights;
#X obj 531 260 spigot;
#N canvas 1724 70 1239 1087 dA_output_layer 0;
#X obj 830 52 inlet s_y_target;
#X obj 312 52 inlet s_a_output_layer;
#X obj 986 52 inlet s_da_output_layer;
#X obj 37 52 inlet bang;
#X obj 314 177 array size;
#X obj 293 262 f 1;
#X obj 293 309 until;
#X obj 293 365 f;
#X obj 357 374 + 1;
#X msg 138 113 0;
#X obj 137 145 s \$0_dA_ol_0;
#X obj 361 327 r \$0_dA_ol_0;
#X obj 293 453 %, f 26;
#X obj 282 658 array get, f 33;
#X obj 37 80 t b b b, f 13;
#X msg 88 115 1;
#X obj 696 708 array get, f 33;
#X obj 918 878 array set;
#X obj 490 781 -;
#X obj 314 107 t b s s, f 29;
#X obj 293 516 t f f f f, f 76;
#X obj 314 219 t f f f, f 23;
#X obj 69 664 - 1;
#X obj 70 720 sel;
#X obj 70 772 outlet done;
#X obj 86 177 s \$0_dA_ol_1;
#X obj 412 624 r \$0_dA_ol_1;
#X obj 826 674 r \$0_dA_ol_1;
#X connect 0 0 16 2;
#X connect 1 0 19 0;
#X connect 2 0 17 2;
#X connect 3 0 14 0;
#X connect 4 0 21 0;
#X connect 5 0 6 0;
#X connect 6 0 7 0;
#X connect 7 0 8 0;
#X connect 7 0 12 0;
#X connect 8 0 7 1;
#X connect 9 0 10 0;
#X connect 11 0 7 1;
#X connect 12 0 20 0;
#X connect 13 0 18 0;
#X connect 14 0 5 0;
#X connect 14 1 15 0;
#X connect 14 2 9 0;
#X connect 15 0 25 0;
#X connect 16 0 18 1;
#X connect 18 0 17 0;
#X connect 19 0 4 0;
#X connect 19 1 4 1;
#X connect 19 2 13 2;
#X connect 20 0 23 0;
#X connect 20 1 13 0;
#X connect 20 2 16 0;
#X connect 20 3 17 1;
#X connect 21 0 22 0;
#X connect 21 1 5 1;
#X connect 21 2 12 1;
#X connect 22 0 23 1;
#X connect 23 0 24 0;
#X connect 26 0 13 1;
#X connect 27 0 16 1;
#X restore 525 710 pd dA_output_layer;
#X f 80;
#X obj 369 217 sel 0;
#X obj 369 255 s \$0_example_0;
#X obj 737 678 dollar_0;
#X obj 812 678 f \$0;
#X obj 737 647 t s b;
#X msg 796 645 symbol a_lvl_1;
#X obj 949 676 dollar_0;
#X obj 1024 676 f \$0;
#X obj 949 645 t s b;
#X msg 1008 643 symbol y_target;
#X obj 1162 674 dollar_0;
#X obj 1237 674 f \$0;
#X obj 1162 643 t s b;
#X msg 1221 641 symbol da_lvl_1;
#X obj 525 678 r \$0_example_0;
#X text 743 740 // for linear regresion dZ_output == dA_output;
#N canvas 1724 70 1712 1332 dW_output_lvl_1 0;
#X obj 72 34 inlet bang;
#X obj 357 34 inlet s_A_prev_feature_one;
#X obj 600 34 inlet s_A_prev_feature_two;
#X obj 188 34 inlet s_dZ_lvl;
#X text 404 8 // A_prev == input features;
#X obj 851 34 inlet s_dw_lvl;
#N canvas 1831 184 941 910 element_wise_product 0;
#X obj 285 50 inlet arr_one_name;
#X obj 496 57 inlet arr_two_name;
#X obj 69 51 inlet bang;
#X obj 651 152 t s s;
#X obj 215 660 array get;
#X obj 354 218 array size;
#X obj 333 287 f 1;
#X obj 333 349 until;
#X obj 333 430 f 0;
#X obj 384 433 + 1;
#X obj 354 389 r \$0_el_prod_reset;
#X msg 69 269 1;
#X obj 333 493 t f f f;
#X obj 619 654 array get;
#X obj 392 740 *;
#X obj 395 804 +;
#X obj 395 873 f;
#X obj 395 937 f;
#X obj 204 783 sel \$1;
#X obj 354 255 t f f;
#X obj 161 712 - 1;
#X obj 395 1000 outlet;
#X obj 451 765 r \$0_el_prod_reset;
#X obj 449 825 r \$0_el_prod_reset;
#X obj 77 135 t b b b;
#X obj 120 221 s \$0_el_prod_reset;
#X msg 117 190 0;
#X obj 282 119 t s b s, f 28;
#X connect 0 0 27 0;
#X connect 1 0 3 0;
#X connect 2 0 24 0;
#X connect 3 1 13 2;
#X connect 4 0 14 0;
#X connect 5 0 19 0;
#X connect 6 0 7 0;
#X connect 7 0 8 0;
#X connect 8 0 9 0;
#X connect 8 0 12 0;
#X connect 9 0 8 1;
#X connect 10 0 8 1;
#X connect 11 0 4 1;
#X connect 11 0 13 1;
#X connect 12 0 18 0;
#X connect 12 1 4 0;
#X connect 12 2 13 0;
#X connect 13 0 14 1;
#X connect 14 0 15 0;
#X connect 15 0 16 0;
#X connect 16 0 15 1;
#X connect 16 0 17 1;
#X connect 17 0 21 0;
#X connect 18 0 17 0;
#X connect 19 0 6 1;
#X connect 19 1 20 0;
#X connect 20 0 18 1;
#X connect 22 0 15 1;
#X connect 23 0 16 1;
#X connect 24 0 6 0;
#X connect 24 1 11 0;
#X connect 24 2 26 0;
#X connect 26 0 25 0;
#X connect 27 0 4 2;
#X connect 27 1 5 0;
#X connect 27 2 5 1;
#X restore 98 391 pd element_wise_product;
#N canvas 1724 70 1712 1332 element_wise_product 0;
#X obj 285 50 inlet arr_one_name;
#X obj 496 57 inlet arr_two_name;
#X obj 69 51 inlet bang;
#X obj 651 152 t s s;
#X obj 215 660 array get;
#X obj 354 218 array size;
#X obj 333 287 f 1;
#X obj 333 349 until;
#X obj 333 430 f 0;
#X obj 384 433 + 1;
#X obj 354 389 r \$0_el_prod_reset;
#X msg 69 269 1;
#X obj 333 493 t f f f;
#X obj 619 654 array get;
#X obj 392 740 *;
#X obj 395 804 +;
#X obj 395 873 f;
#X obj 395 937 f;
#X obj 204 783 sel \$1;
#X obj 354 255 t f f;
#X obj 161 712 - 1;
#X obj 395 1000 outlet;
#X obj 451 765 r \$0_el_prod_reset;
#X obj 449 825 r \$0_el_prod_reset;
#X obj 77 135 t b b b;
#X obj 120 221 s \$0_el_prod_reset;
#X msg 117 190 0;
#X obj 282 119 t s b s, f 28;
#X connect 0 0 27 0;
#X connect 1 0 3 0;
#X connect 2 0 24 0;
#X connect 3 1 13 2;
#X connect 4 0 14 0;
#X connect 5 0 19 0;
#X connect 6 0 7 0;
#X connect 7 0 8 0;
#X connect 8 0 9 0;
#X connect 8 0 12 0;
#X connect 9 0 8 1;
#X connect 10 0 8 1;
#X connect 11 0 4 1;
#X connect 11 0 13 1;
#X connect 12 0 18 0;
#X connect 12 1 4 0;
#X connect 12 2 13 0;
#X connect 13 0 14 1;
#X connect 14 0 15 0;
#X connect 15 0 16 0;
#X connect 16 0 15 1;
#X connect 16 0 17 1;
#X connect 17 0 21 0;
#X connect 18 0 17 0;
#X connect 19 0 6 1;
#X connect 19 1 20 0;
#X connect 20 0 18 1;
#X connect 22 0 15 1;
#X connect 23 0 16 1;
#X connect 24 0 6 0;
#X connect 24 1 11 0;
#X connect 24 2 26 0;
#X connect 26 0 25 0;
#X connect 27 0 4 2;
#X connect 27 1 5 0;
#X connect 27 2 5 1;
#X restore 419 397 pd element_wise_product;
#X obj 72 62 t b b b;
#X obj 98 621 pack f f;
#X obj 480 737 array set;
#X obj 98 667 t b l;
#X obj 98 764 outlet done;
#X obj 188 111 t s s;
#X obj 600 66 t b s s;
#X obj 600 116 array size;
#X obj 600 144 t f f;
#X obj 98 484 /;
#X obj 419 484 /;
#X connect 0 0 8 0;
#X connect 1 0 6 2;
#X connect 2 0 14 0;
#X connect 3 0 13 0;
#X connect 5 0 10 2;
#X connect 6 0 17 0;
#X connect 7 0 18 0;
#X connect 8 1 6 0;
#X connect 8 2 7 0;
#X connect 9 0 11 0;
#X connect 11 0 12 0;
#X connect 11 1 10 0;
#X connect 13 0 6 1;
#X connect 13 1 7 1;
#X connect 14 0 15 0;
#X connect 14 1 15 1;
#X connect 14 2 7 2;
#X connect 15 0 16 0;
#X connect 16 0 17 1;
#X connect 16 1 18 1;
#X connect 17 0 9 0;
#X connect 18 0 9 1;
#X restore 525 842 pd dW_output_lvl_1;
#X f 111;
#X obj 746 804 dollar_0;
#X obj 821 804 f \$0;
#X obj 746 773 t s b;
#X msg 805 771 symbol da_lvl_1;
#X obj 967 802 dollar_0;
#X obj 1042 802 f \$0;
#X obj 967 771 t s b;
#X msg 1026 769 symbol x_input;
#X obj 1188 800 dollar_0;
#X obj 1263 800 f \$0;
#X obj 1188 769 t s b;
#X msg 1247 766 symbol x_phase_1;
#X obj 1410 797 dollar_0;
#X obj 1485 797 f \$0;
#X obj 1410 766 t s b;
#X msg 1469 763 symbol dw_lvl_1;
#X obj 525 775 bng 23 250 50 0 empty empty empty 0 -12 0 16 #ffffff #00faff #000000;
#X obj 525 897 bng 23 250 50 0 empty empty empty 0 -12 0 16 #ffffff #00faff #000000;
#X floatatom 2511 617 5 0 0 0 - - - 0;
#N canvas 1841 208 670 567 db_lvl_1 0;
#X obj 39 52 inlet bang;
#X obj 208 51 inlet s_da_lvl;
#X obj 415 48 inlet s_db_lvl;
#X obj 208 79 t b s s;
#X obj 213 132 array size;
#X obj 76 222 array sum;
#X obj 224 393 array set;
#X obj 97 289 /;
#X obj 40 478 outlet done;
#X obj 39 80 t b b;
#X connect 0 0 9 0;
#X connect 1 0 3 0;
#X connect 2 0 6 2;
#X connect 3 0 4 0;
#X connect 3 1 5 2;
#X connect 3 2 4 1;
#X connect 4 0 7 1;
#X connect 5 0 7 0;
#X connect 7 0 6 0;
#X connect 9 0 8 0;
#X connect 9 1 5 0;
#X restore 525 957 pd db_lvl_1;
#X f 48;
#X obj 906 924 dollar_0;
#X obj 981 924 f \$0;
#X obj 906 893 t s b;
#X msg 965 890 symbol db_lvl_1;
#X obj 715 926 dollar_0;
#X obj 790 926 f \$0;
#X obj 715 895 t s b;
#X msg 774 893 symbol da_lvl_1;
#X obj 525 1017 bng 23 250 50 0 empty empty empty 0 -12 0 16 #ffffff #00faff #000000;
#X msg 2481 532 0;
#X obj 295 334 s \$0_alpha;
#X obj 1498 1159 dollar_0;
#X obj 1573 1159 f \$0;
#X obj 1498 1128 t s b;
#X msg 1557 1125 symbol db_lvl_1;
#X obj 1011 1162 dollar_0;
#X obj 1086 1162 f \$0;
#X obj 1011 1131 t s b;
#X obj 1490 1034 dollar_0;
#X obj 1565 1034 f \$0;
#X obj 1490 1003 t s b;
#X msg 1070 1128 symbol b_lvl_1;
#X msg 1549 1000 symbol dw_lvl_1;
#X obj 1007 1034 dollar_0;
#X obj 1082 1034 f \$0;
#X obj 1007 1003 t s b;
#X msg 1066 1000 symbol w_lvl_1;
#N canvas 1724 70 1712 1332 update_update_weights_lvl_1 0;
#X obj 48 51 inlet bang;
#X obj 345 52 inlet s_w_lvl;
#X obj 800 48 inlet s_dw_lvl;
#X obj 399 567 expr $f1 - ($f2 * $f3);
#X obj 572 529 r \$0_alpha;
#X obj 346 175 array size;
#X obj 328 210 f 1;
#X obj 48 79 t b b b b, f 14;
#X msg 157 208 0;
#X obj 157 236 s \$0_up_lvl_1_0;
#X obj 328 257 until;
#X msg 120 237 1;
#X obj 120 271 s \$0_up_lvl_1_1;
#X obj 328 307 f;
#X obj 382 318 + 1;
#X obj 397 264 r \$0_up_lvl_1_0;
#X obj 611 444 array get, f 24;
#X obj 705 413 r \$0_up_lvl_1_1;
#X obj 325 444 array get, f 24;
#X obj 419 411 r \$0_up_lvl_1_1;
#X obj 399 670 array set;
#X obj 345 80 t b s s s;
#X obj 328 369 t f f f;
#X obj 79 748 outlet done;
#X connect 0 0 7 0;
#X connect 1 0 21 0;
#X connect 2 0 16 2;
#X connect 3 0 20 0;
#X connect 4 0 3 2;
#X connect 5 0 6 1;
#X connect 6 0 10 0;
#X connect 7 0 23 0;
#X connect 7 1 6 0;
#X connect 7 2 11 0;
#X connect 7 3 8 0;
#X connect 8 0 9 0;
#X connect 10 0 13 0;
#X connect 11 0 12 0;
#X connect 13 0 14 0;
#X connect 13 0 22 0;
#X connect 14 0 13 1;
#X connect 15 0 13 1;
#X connect 16 0 3 1;
#X connect 17 0 16 1;
#X connect 18 0 3 0;
#X connect 19 0 18 1;
#X connect 21 0 5 0;
#X connect 21 1 20 2;
#X connect 21 2 18 2;
#X connect 21 3 5 1;
#X connect 22 0 18 0;
#X connect 22 1 16 0;
#X connect 22 2 20 1;
#X restore 525 1071 pd update_update_weights_lvl_1;
#X f 121;
#N canvas 4 70 1712 1332 update_biases_lvl_1 0;
#X obj 478 44 inlet s_b_lvl;
#X obj 642 43 inlet s_db_lvl;
#X obj 517 456 expr $f1 - ($f2 * $f3);
#X obj 690 418 r \$0_alpha;
#X obj 478 72 t s s;
#X obj 460 348 array get;
#X obj 494 317 r \$0_up_lvl_1_1;
#X msg 403 317 0;
#X obj 377 141 t b b b;
#X obj 661 354 array get;
#X obj 695 323 r \$0_up_lvl_1_1;
#X msg 652 324 0;
#X obj 548 578 array set;
#X obj 379 607 outlet done;
#X obj 582 544 r \$0_up_lvl_1_0;
#X obj 137 50 inlet bang;
#X connect 0 0 4 0;
#X connect 1 0 9 2;
#X connect 2 0 12 0;
#X connect 3 0 2 2;
#X connect 4 0 12 2;
#X connect 4 1 5 2;
#X connect 5 0 2 0;
#X connect 6 0 5 1;
#X connect 7 0 5 0;
#X connect 8 0 13 0;
#X connect 8 1 7 0;
#X connect 8 2 11 0;
#X connect 9 0 2 1;
#X connect 10 0 9 1;
#X connect 11 0 9 0;
#X connect 14 0 12 1;
#X connect 15 0 8 0;
#X restore 525 1196 pd update_biases_lvl_1;
#X f 122;
#X obj 525 1135 bng 23 250 50 0 empty empty empty 0 -12 0 16 #ffffff #00faff #000000;
#X msg 2731 721 0;
#X obj 2739 766 array set \$0_a_lvl_1;
#X obj 2777 548 until;
#X msg 2773 505 11025;
#X obj 2777 595 f;
#X obj 2833 610 + 1;
#X msg 2847 565 0;
#X obj 2776 658 t b f;
#X msg 3185 1097 0;
#X obj 3231 924 until;
#X obj 3231 971 f;
#X obj 3287 986 + 1;
#X msg 3301 941 0;
#X obj 3230 1034 t b f;
#X msg 3227 881 2;
#X obj 3193 1142 array set \$0_dw_lvl_1;
#X obj 2951 650 dollar_0;
#X obj 3026 650 f \$0;
#X obj 2951 619 t s b;
#X msg 3145 718 0;
#X obj 3191 545 until;
#X obj 3191 592 f;
#X obj 3247 607 + 1;
#X msg 3261 562 0;
#X obj 3190 655 t b f;
#X msg 3187 502 1;
#X obj 3153 763 array set \$0_db_lvl_1;
#X obj 1998 318 *~ 11024;
#X obj 1998 370 tabread~ \$0_a_lvl_1;
#X obj 1867 573 osc~;
#X obj 1873 451 sig~ 220;
#X obj 1872 508 +~;
#X obj 1980 502 *~;
#X floatatom 2045 499 5 0 0 0 - - - 0;
#X obj 1868 715 *~;
#X obj 1941 549 vsl 23 196 0.1 1 1 0 empty empty empty 0 -9 0 16 #fcfcfc #000000 #000000 0 1;
#X obj 1930 769 lop~ 5;
#X obj 1828 877 dac~;
#X obj 1999 276 phasor~ 0.25;
#X obj 2511 574 array get \$0_b_lvl_1;
#X floatatom 1997 236 5 0 0 0 - - - 0;
#X obj 2007 451 lop~ 5;
#X msg 3010 616 symbol a_lvl_1;
#X msg 295 300 0.05;
#X connect 1 0 2 0;
#X connect 2 0 3 0;
#X connect 4 0 6 0;
#X connect 5 0 4 0;
#X connect 9 0 13 0;
#X connect 10 0 11 0;
#X connect 11 0 9 0;
#X connect 14 0 8 0;
#X connect 15 0 14 0;
#X connect 15 0 17 0;
#X connect 16 0 103 0;
#X connect 17 0 14 0;
#X connect 18 0 66 1;
#X connect 18 1 67 1;
#X connect 19 0 18 6;
#X connect 20 0 18 1;
#X connect 21 0 18 2;
#X connect 22 0 34 0;
#X connect 23 0 21 0;
#X connect 24 0 18 3;
#X connect 25 0 18 4;
#X connect 26 0 40 0;
#X connect 27 0 25 0;
#X connect 28 0 20 1;
#X connect 29 0 28 1;
#X connect 30 0 31 0;
#X connect 31 0 28 0;
#X connect 31 1 29 0;
#X connect 32 0 21 1;
#X connect 33 0 32 1;
#X connect 34 0 32 0;
#X connect 34 1 33 0;
#X connect 35 0 24 1;
#X connect 36 0 35 1;
#X connect 37 0 35 0;
#X connect 37 1 36 0;
#X connect 38 0 25 1;
#X connect 39 0 38 1;
#X connect 40 0 38 0;
#X connect 40 1 39 0;
#X connect 41 0 18 5;
#X connect 42 0 41 1;
#X connect 43 0 42 1;
#X connect 44 0 42 0;
#X connect 44 1 43 0;
#X connect 45 0 44 0;
#X connect 46 0 41 0;
#X connect 47 0 18 0;
#X connect 47 1 48 0;
#X connect 49 0 23 0;
#X connect 50 0 27 0;
#X connect 51 0 46 0;
#X connect 52 0 53 0;
#X connect 53 0 47 0;
#X connect 54 0 53 1;
#X connect 54 0 101 1;
#X connect 55 0 56 0;
#X connect 56 0 101 0;
#X connect 56 1 20 0;
#X connect 56 2 24 0;
#X connect 58 0 57 3;
#X connect 59 0 58 1;
#X connect 60 0 58 0;
#X connect 60 1 59 0;
#X connect 61 0 60 0;
#X connect 62 0 57 4;
#X connect 63 0 62 1;
#X connect 64 0 62 0;
#X connect 64 1 63 0;
#X connect 65 0 64 0;
#X connect 66 0 57 1;
#X connect 67 0 57 2;
#X connect 68 0 57 0;
#X connect 68 1 66 0;
#X connect 68 2 67 0;
#X connect 80 0 84 0;
#X connect 81 0 80 1;
#X connect 82 0 83 0;
#X connect 83 0 80 0;
#X connect 83 1 81 0;
#X connect 85 0 88 0;
#X connect 86 0 85 1;
#X connect 87 0 85 0;
#X connect 87 1 86 0;
#X connect 89 0 87 0;
#X connect 90 0 94 0;
#X connect 91 0 90 1;
#X connect 92 0 90 0;
#X connect 92 1 91 0;
#X connect 93 0 92 0;
#X connect 95 0 37 0;
#X connect 96 0 100 0;
#X connect 97 0 96 1;
#X connect 98 0 96 0;
#X connect 98 1 97 0;
#X connect 99 0 98 0;
#X connect 101 0 68 0;
#X connect 102 0 136 0;
#X connect 103 0 104 0;
#X connect 105 0 102 1;
#X connect 106 0 105 1;
#X connect 107 0 105 0;
#X connect 107 1 106 0;
#X connect 108 0 107 0;
#X connect 109 0 102 2;
#X connect 110 0 109 1;
#X connect 111 0 109 0;
#X connect 111 1 110 0;
#X connect 112 0 111 0;
#X connect 113 0 102 3;
#X connect 114 0 113 1;
#X connect 115 0 113 0;
#X connect 115 1 114 0;
#X connect 116 0 115 0;
#X connect 117 0 102 0;
#X connect 119 0 137 0;
#X connect 120 0 119 1;
#X connect 121 0 120 1;
#X connect 122 0 120 0;
#X connect 122 1 121 0;
#X connect 123 0 122 0;
#X connect 124 0 119 2;
#X connect 125 0 124 1;
#X connect 126 0 124 0;
#X connect 126 1 125 0;
#X connect 127 0 126 0;
#X connect 128 0 119 3;
#X connect 129 0 128 1;
#X connect 130 0 128 0;
#X connect 130 1 129 0;
#X connect 131 0 130 0;
#X connect 132 0 119 4;
#X connect 133 0 132 1;
#X connect 134 0 132 0;
#X connect 134 1 133 0;
#X connect 135 0 134 0;
#X connect 136 0 119 0;
#X connect 137 0 139 0;
#X connect 139 0 148 0;
#X connect 140 0 139 2;
#X connect 141 0 140 1;
#X connect 142 0 140 0;
#X connect 142 1 141 0;
#X connect 143 0 142 0;
#X connect 144 0 139 1;
#X connect 145 0 144 1;
#X connect 146 0 144 0;
#X connect 146 1 145 0;
#X connect 147 0 146 0;
#X connect 148 0 167 0;
#X connect 149 0 209 0;
#X connect 151 0 168 2;
#X connect 152 0 151 1;
#X connect 153 0 151 0;
#X connect 153 1 152 0;
#X connect 154 0 153 0;
#X connect 155 0 168 1;
#X connect 156 0 155 1;
#X connect 157 0 155 0;
#X connect 157 1 156 0;
#X connect 158 0 167 2;
#X connect 159 0 158 1;
#X connect 160 0 158 0;
#X connect 160 1 159 0;
#X connect 161 0 157 0;
#X connect 162 0 160 0;
#X connect 163 0 167 1;
#X connect 164 0 163 1;
#X connect 165 0 163 0;
#X connect 165 1 164 0;
#X connect 166 0 165 0;
#X connect 167 0 169 0;
#X connect 169 0 168 0;
#X connect 170 0 171 0;
#X connect 172 0 174 0;
#X connect 173 0 172 0;
#X connect 174 0 175 0;
#X connect 174 0 177 0;
#X connect 175 0 174 1;
#X connect 176 0 174 1;
#X connect 177 0 170 0;
#X connect 177 1 171 1;
#X connect 178 0 185 0;
#X connect 179 0 180 0;
#X connect 180 0 181 0;
#X connect 180 0 183 0;
#X connect 181 0 180 1;
#X connect 182 0 180 1;
#X connect 183 0 178 0;
#X connect 183 1 185 1;
#X connect 184 0 179 0;
#X connect 186 0 171 2;
#X connect 187 0 186 1;
#X connect 188 0 186 0;
#X connect 188 1 187 0;
#X connect 189 0 196 0;
#X connect 190 0 191 0;
#X connect 191 0 192 0;
#X connect 191 0 194 0;
#X connect 192 0 191 1;
#X connect 193 0 191 1;
#X connect 194 0 189 0;
#X connect 194 1 196 1;
#X connect 195 0 190 0;
#X connect 197 0 198 0;
#X connect 198 0 211 0;
#X connect 199 0 204 0;
#X connect 200 0 201 0;
#X connect 201 0 199 0;
#X connect 202 0 201 1;
#X connect 203 0 202 1;
#X connect 204 0 207 0;
#X connect 204 0 207 1;
#X connect 205 0 206 0;
#X connect 206 0 204 1;
#X connect 208 0 197 0;
#X connect 209 0 138 0;
#X connect 210 0 208 0;
#X connect 211 0 202 0;
#X connect 212 0 188 0;
#X connect 213 0 150 0;
