#N canvas 0 66 3440 1340 16;
#N canvas 0 50 450 250 (subpatch) 0;
#X array \$0_target 11025 float 2;
#X coords 0 1 11025 -1 200 140 1 0 0;
#X restore 80 45 graph;
#X obj 82 203 t b b;
#X msg 163 218 0;
#X obj 47 201 bng 23 250 50 0 empty empty empty 0 -12 0 16 #fcfcfc #000000 #000000;
#X obj 81 323 tabwrite~ \$0_target;
#X obj 68 681 tabwrite~ \$0_input;
#N canvas 1495 611 450 250 (subpatch) 0;
#X array \$0_input 11025 float 2;
#X coords 0 1 11025 -1 200 140 1 0 0;
#X restore 68 390 graph;
#X obj 68 550 bng 23 250 50 0 empty empty empty 0 -12 0 16 #fcfcfc #000000 #000000;
#X obj 68 578 t b b;
#X obj 3093 595 tabread~ \$0_input;
#X obj 1009 497 neuron.one, f 118;
#X msg 133 609 0;
#X obj 1913 64 metro;
#X msg 1966 22 tempo 4 samp;
#X obj 1915 113 f;
#X obj 1967 128 + 1;
#X obj 1727 26 bng 40 250 50 0 \$0_init empty init 0 -12 0 16 #fcfcfc #000000 #000000;
#X msg 1788 59 0;
#X obj 1788 25 r \$0_init;
#X obj 1788 98 s \$0_zero;
#X obj 1966 80 r \$0_zero;
#X obj 1915 180 % 11025;
#X obj 1884 20 tgl 23 0 empty empty empty 0 -12 0 16 #fcfcfc #000000 #000000 0 1;
#X obj 1915 219 s \$0_n;
#X obj 3027 595 r \$0_n;
#X obj 3093 564 sig~;
#X obj 3027 627 t f f;
#X msg 3114 672 start \$1;
#X obj 72 1071 array get \$0_input;
#X floatatom 72 1007 5 0 0 0 - - - 0;
#X msg 152 1030 1;
#X floatatom 53 1200 12 0 0 0 - - - 0;
#X floatatom 208 1212 19 0 0 0 - - - 0;
#X obj 384 56 array define \$0_z1 11025;
#X obj 382 234 array define \$0_w1 11025;
#X obj 380 115 array define \$0_a1 11025;
#X obj 191 1149 array get \$0_w1;
#X obj 3082 741 tabwrite~ \$0_w1;
#X obj 58 760 / 1e+06;
#X obj 58 724 random 100000;
#X obj 58 794 - 0.05;
#X obj 175 724 r \$0_n;
#X obj 175 780 t b f;
#X obj 154 949 array set \$0_w1;
#X obj 378 318 array define \$0_b1 1;
#X obj 212 867 spigot;
#X obj 252 835 tgl 23 0 empty empty empty 0 -12 0 16 #fcfcfc #000000 #000000 0 1;
#X obj 58 866 spigot;
#X obj 98 834 tgl 23 0 empty empty empty 0 -12 0 16 #fcfcfc #000000 #000000 0 1;
#X obj 1008 464 tabread~ \$0_input;
#X obj 819 278 r \$0_n;
#X obj 1009 431 sig~;
#X obj 1320 426 sig~;
#X obj 1644 430 sig~;
#X obj 1575 467 % 1;
#X obj 1643 463 tabread~ \$0_b1;
#X msg 1816 452 activation linear;
#X obj 1319 459 tabread~ \$0_w1;
#X obj 999 625 tabwrite~ \$0_a1;
#X msg 1035 532 start \$1;
#X obj 1162 629 tabwrite~ \$0_z1;
#X obj 383 151 array define \$0_da1 11025;
#X obj 384 86 array define \$0_dz1 11025;
#X obj 933 653 sig~;
#X obj 933 694 tabread~ \$0_target;
#X obj 798 621 sig~;
#X obj 798 662 tabread~ \$0_a1;
#X obj 898 729 -~;
#X obj 898 809 tabwrite~ \$0_da1;
#X msg 914 770 start \$1;
#X obj 789 898 *~;
#X obj 928 534 s~ \$0_a1i;
#X text 1042 811 \\\\ not sure this is needed;
#X obj 936 856 r~ \$0_a1i;
#X obj 756 809 s~ \$0_da_output;
#X obj 790 853 r~ \$0_da_output;
#X text 829 898 \\\\ dw1i = da_output time a1i;
#X obj 379 275 array define \$0_dw1 11025;
#X msg 731 1044 start \$1;
#X obj 819 310 t f f f f f f f f f f, f 95;
#X obj 639 52 s~ \$0_alpha;
#X obj 698 963 expr~ $v1 - ($v2 * $v3);
#X obj 909 966 r~ \$0_alpha;
#X obj 716 1082 tabwrite~ \$0_w1;
#X obj 1636 776 expr~ $v1 - ($v2 * $v3);
#X obj 1847 779 r~ \$0_alpha;
#X msg 1636 848 start \$1;
#X obj 1614 884 tabwrite~ \$0_b1;
#X obj 1726 731 r~ \$0_da_output;
#X obj 1137 1003 snapshot~;
#X obj 1148 957 bng 23 250 50 0 empty empty empty 0 -12 0 16 #fcfcfc #000000 #000000;
#X obj 1135 1048 print dw;
#X obj 2214 601 tabread~ \$0_a1;
#X obj 2213 647 *~;
#X floatatom 2271 652 5 0 0 0 - - - 0;
#X obj 2209 701 +~;
#X floatatom 2260 701 5 0 0 0 - - - 0;
#X obj 2200 770 osc~;
#X obj 2206 839 *~;
#X floatatom 2259 839 5 0 1 0 - - - 0;
#X obj 2194 911 dac~;
#X obj 2215 519 phasor~ 1;
#X obj 2213 566 *~ 11025;
#X obj 89 645 phasor~ 4;
#X obj 114 289 sig~ 0.1;
#X floatatom 2209 467 5 0 0 0 - - - 0;
#X obj 96 254 phasor~ -2;
#X msg 87 613 8;
#X obj 640 17 sig~ 0.0005;
#X connect 1 0 4 0;
#X connect 1 1 2 0;
#X connect 2 0 106 1;
#X connect 3 0 1 0;
#X connect 3 0 8 0;
#X connect 7 0 8 0;
#X connect 8 0 5 0;
#X connect 8 1 11 0;
#X connect 10 0 58 0;
#X connect 10 0 71 0;
#X connect 10 1 60 0;
#X connect 11 0 103 1;
#X connect 12 0 14 0;
#X connect 13 0 12 1;
#X connect 14 0 15 0;
#X connect 14 0 21 0;
#X connect 15 0 14 1;
#X connect 17 0 19 0;
#X connect 18 0 17 0;
#X connect 20 0 14 1;
#X connect 21 0 23 0;
#X connect 22 0 12 0;
#X connect 24 0 26 0;
#X connect 25 0 9 0;
#X connect 26 0 25 0;
#X connect 26 1 27 0;
#X connect 28 0 31 0;
#X connect 29 0 28 0;
#X connect 29 0 36 0;
#X connect 30 0 28 1;
#X connect 30 0 36 1;
#X connect 36 0 32 0;
#X connect 38 0 40 0;
#X connect 39 0 38 0;
#X connect 40 0 47 0;
#X connect 41 0 42 0;
#X connect 42 0 39 0;
#X connect 42 1 45 0;
#X connect 45 0 43 1;
#X connect 46 0 45 1;
#X connect 47 0 43 0;
#X connect 48 0 47 1;
#X connect 49 0 10 0;
#X connect 50 0 79 0;
#X connect 51 0 49 0;
#X connect 52 0 57 0;
#X connect 53 0 55 0;
#X connect 54 0 53 0;
#X connect 54 0 86 0;
#X connect 55 0 10 2;
#X connect 55 0 84 0;
#X connect 56 0 10 3;
#X connect 57 0 10 1;
#X connect 57 0 81 0;
#X connect 59 0 58 0;
#X connect 59 0 60 0;
#X connect 63 0 64 0;
#X connect 64 0 67 1;
#X connect 65 0 66 0;
#X connect 66 0 67 0;
#X connect 67 0 68 0;
#X connect 67 0 74 0;
#X connect 69 0 68 0;
#X connect 70 0 81 1;
#X connect 73 0 70 1;
#X connect 75 0 70 0;
#X connect 78 0 83 0;
#X connect 79 2 78 0;
#X connect 79 3 69 0;
#X connect 79 4 65 0;
#X connect 79 5 63 0;
#X connect 79 6 59 0;
#X connect 79 7 51 0;
#X connect 79 8 52 0;
#X connect 79 9 54 0;
#X connect 81 0 83 0;
#X connect 81 0 89 0;
#X connect 82 0 81 2;
#X connect 84 0 87 0;
#X connect 85 0 84 2;
#X connect 86 0 87 0;
#X connect 88 0 84 1;
#X connect 89 0 91 0;
#X connect 90 0 89 0;
#X connect 92 0 93 0;
#X connect 93 0 95 0;
#X connect 94 0 93 1;
#X connect 95 0 97 0;
#X connect 96 0 95 1;
#X connect 97 0 98 0;
#X connect 98 0 100 0;
#X connect 98 0 100 1;
#X connect 99 0 98 1;
#X connect 101 0 102 0;
#X connect 102 0 92 0;
#X connect 103 0 5 0;
#X connect 104 0 4 0;
#X connect 105 0 101 0;
#X connect 106 0 4 0;
#X connect 107 0 103 0;
#X connect 108 0 80 0;
