#N canvas 4 70 1712 1332 16;
#X obj 358 116 s~ \$0_target_y;
#X obj 520 150 s~ \$0_input_x;
#X obj 692 478 neuron.one, f 143;
#X obj 691 447 r~ \$0_input_x;
#X obj 30 25 bang~;
#X obj 30 60 s \$0_update_params;
#X obj 691 516 s~ \$0_prediction;
#X obj 691 552 r~ \$0_prediction;
#X obj 855 552 r~ \$0_target_y;
#X obj 784 604 -~;
#X obj 784 643 s~ \$0_z_minus_y;
#X obj 1071 212 expr~ $v1 - ($v2 * $v3);
#X obj 28 252 s~ \$0_learning_rate;
#X obj 1251 180 r~ \$0_learning_rate;
#X obj 992 552 r~ \$0_input_x;
#X obj 1130 552 r~ \$0_z_minus_y;
#X obj 1095 604 *~;
#X obj 1095 643 s~ \$0_dw;
#X obj 1162 183 r~ \$0_dw;
#X obj 1070 153 delread~ \$0_weights;
#X obj 1451 223 expr~ $v1 - ($v2 * $v3);
#X obj 1631 191 r~ \$0_learning_rate;
#X obj 1540 162 r~ \$0_z_minus_y;
#X obj 1450 133 delread~ \$0_bias;
#X obj 2045 698 r~ \$0_z_minus_y;
#X obj 2044 732 snapshot~;
#X msg 1138 286 clear;
#X msg 1515 290 clear;
#X obj 1138 324 delwrite~ \$0_weights 1;
#X obj 1500 328 delwrite~ \$0_bias 1;
#N canvas 0 50 450 250 (subpatch) 0;
#X array \$0_scope_x 8820 float 2;
#X coords 0 1 8820 -1 200 140 1 0 0;
#X restore 2046 213 graph;
#X obj 2044 361 r~ \$0_input_x;
#X obj 2043 644 tabwrite~ \$0_prediction_scope;
#N canvas 1495 611 450 250 (subpatch) 0;
#X array \$0_prediction_scope 8820 float 2;
#X coords 0 1 8820 -1 200 140 1;
#X restore 2041 462 graph;
#X obj 2042 612 r~ \$0_prediction;
#X obj 28 130 metro 500;
#X obj 27 98 tgl 23 0 empty empty empty 0 -12 0 16 #fcfcfc #000000 #000000 0 1;
#X obj 28 170 s \$0_update_scopes;
#X obj 2217 394 r \$0_update_scopes;
#X obj 2286 643 r \$0_update_scopes;
#X obj 2141 732 r \$0_update_scopes;
#X obj 2044 763 print db;
#X obj 2048 820 r~ \$0_dw;
#X obj 2047 858 snapshot~;
#X obj 2142 858 r \$0_update_scopes;
#X obj 2046 903 print dw;
#X obj 2045 395 tabwrite~ \$0_scope_x;
#X obj 2500 314 r~ \$0_target_y;
#X obj 2499 351 tabwrite~ \$0_target_scope;
#X obj 2722 351 r \$0_update_scopes;
#N canvas 0 50 450 250 (subpatch) 0;
#X array \$0_target_scope 8820 float 2;
#X coords 0 1 8820 -1 200 140 1;
#X restore 2495 151 graph;
#X obj 831 854 osc~;
#X obj 831 802 +~;
#X obj 957 747 r~ \$0_prediction;
#X obj 958 792 *~;
#X floatatom 1020 793 5 0 0 0 - - - 0;
#X obj 964 834 vsl 23 196 0.01 1 1 0 empty empty empty 0 -9 0 16 #fcfcfc #000000 #000000 0 1;
#X obj 833 918 *~;
#X obj 892 924 lop~ 5;
#X obj 812 1083 dac~;
#X obj 833 748 sig~ 440;
#X floatatom 359 33 5 0 0 0 - - - 0;
#X msg 1834 441 activation linear;
#X floatatom 521 32 5 0 0 0 - - - 0;
#X floatatom 830 706 5 0 0 0 - - - 0;
#X obj 521 116 *~ 1;
#X floatatom 603 115 5 0 0 0 - - - 0;
#X obj 28 371 f;
#X obj 28 309 r \$0_update_params;
#X obj 77 384 + 1;
#X msg 66 343 0;
#X obj 825 377 *~ 0;
#X msg 74 502 1;
#X msg 301 522 0;
#X obj 1072 435 *~ 0;
#X obj 258 477 t b b;
#X msg 258 520 1;
#X obj 204 42 bng 40 250 50 0 empty empty initialize 0 -12 0 16 #fcfcfc #000000 #000000;
#X obj 204 99 s \$0_init;
#X obj 1138 253 r \$0_init;
#X obj 1516 252 r \$0_init;
#X obj 131 342 r \$0_init;
#X obj 28 463 t b b;
#X msg 28 501 0;
#X obj 74 536 s \$0_init_vals_on;
#X obj 28 601 s \$0_calc_vals_off;
#X obj 258 601 s \$0_calc_vals_on;
#X obj 301 564 s \$0_init_vals_off;
#X obj 900 312 r \$0_init_vals_on;
#X obj 897 357 r \$0_init_vals_off;
#X obj 1124 409 r \$0_calc_vals_off;
#X obj 1125 373 r \$0_calc_vals_on;
#X obj 1451 430 *~ 0;
#X obj 1503 404 r \$0_calc_vals_off;
#X obj 1504 368 r \$0_calc_vals_on;
#X obj 1694 392 *~ 0;
#X obj 1769 327 r \$0_init_vals_on;
#X obj 1766 372 r \$0_init_vals_off;
#X obj 640 281 snapshot~;
#X obj 635 323 print sig_check;
#X obj 610 234 bng 23 250 50 0 empty empty empty 0 -12 0 16 #fcfcfc #000000 #000000;
#X obj 537 302 r \$0_init;
#X obj 28 413 sel 0 1, f 42;
#X obj 521 71 phasor~ 8;
#X obj 28 220 sig~ 0.001;
#X obj 825 271 sig~ 1;
#X obj 1694 286 sig~ 0.5;
#X obj 359 71 sig~ 1;
#X connect 2 0 6 0;
#X connect 3 0 2 0;
#X connect 4 0 5 0;
#X connect 7 0 9 0;
#X connect 8 0 9 1;
#X connect 9 0 10 0;
#X connect 11 0 28 0;
#X connect 11 0 74 0;
#X connect 13 0 11 2;
#X connect 14 0 16 0;
#X connect 15 0 16 1;
#X connect 16 0 17 0;
#X connect 18 0 11 1;
#X connect 19 0 11 0;
#X connect 20 0 29 0;
#X connect 20 0 92 0;
#X connect 21 0 20 2;
#X connect 22 0 20 1;
#X connect 23 0 20 0;
#X connect 24 0 25 0;
#X connect 25 0 41 0;
#X connect 26 0 28 0;
#X connect 27 0 29 0;
#X connect 31 0 46 0;
#X connect 34 0 32 0;
#X connect 35 0 37 0;
#X connect 36 0 35 0;
#X connect 38 0 46 0;
#X connect 39 0 32 0;
#X connect 40 0 25 0;
#X connect 42 0 43 0;
#X connect 43 0 45 0;
#X connect 44 0 43 0;
#X connect 47 0 48 0;
#X connect 49 0 48 0;
#X connect 51 0 57 0;
#X connect 52 0 51 0;
#X connect 53 0 54 0;
#X connect 54 0 52 1;
#X connect 55 0 54 1;
#X connect 56 0 58 0;
#X connect 57 0 59 0;
#X connect 57 0 59 1;
#X connect 58 0 57 1;
#X connect 60 0 52 0;
#X connect 61 0 107 0;
#X connect 62 0 2 3;
#X connect 63 0 103 0;
#X connect 64 0 60 0;
#X connect 65 0 1 0;
#X connect 66 0 65 1;
#X connect 67 0 69 0;
#X connect 67 0 102 0;
#X connect 68 0 67 0;
#X connect 69 0 67 1;
#X connect 70 0 67 1;
#X connect 71 0 2 1;
#X connect 71 0 98 0;
#X connect 72 0 84 0;
#X connect 73 0 87 0;
#X connect 74 0 2 1;
#X connect 75 0 76 0;
#X connect 75 1 73 0;
#X connect 76 0 86 0;
#X connect 77 0 78 0;
#X connect 79 0 26 0;
#X connect 80 0 27 0;
#X connect 81 0 70 0;
#X connect 82 0 83 0;
#X connect 82 1 72 0;
#X connect 83 0 85 0;
#X connect 88 0 71 1;
#X connect 89 0 71 1;
#X connect 90 0 74 1;
#X connect 91 0 74 1;
#X connect 92 0 2 2;
#X connect 93 0 92 1;
#X connect 94 0 92 1;
#X connect 95 0 2 2;
#X connect 96 0 95 1;
#X connect 97 0 95 1;
#X connect 98 0 99 0;
#X connect 100 0 98 0;
#X connect 101 0 98 0;
#X connect 102 0 82 0;
#X connect 102 1 75 0;
#X connect 103 0 65 0;
#X connect 104 0 12 0;
#X connect 105 0 71 0;
#X connect 106 0 95 0;
#X connect 107 0 0 0;
