#N canvas 0 66 3440 1340 16;
#X obj 378 245 s~ \$0_target_y;
#X obj 540 279 s~ \$0_input_x;
#X obj 692 478 neuron.one, f 143;
#X obj 691 447 r~ \$0_input_x;
#X obj 30 25 bang~;
#X obj 30 60 s \$0_update_params;
#X obj 691 516 s~ \$0_prediction;
#X obj 691 552 r~ \$0_prediction;
#X obj 855 552 r~ \$0_target_y;
#X obj 784 604 -~;
#X obj 1071 212 expr~ $v1 - ($v2 * $v3);
#X obj 28 252 s~ \$0_learning_rate;
#X obj 1251 180 r~ \$0_learning_rate;
#X obj 1192 549 r~ \$0_input_x;
#X obj 1169 615 s~ \$0_dw;
#X obj 1162 183 r~ \$0_dw;
#X obj 1070 153 delread~ \$0_weights;
#X obj 1451 223 expr~ $v1 - ($v2 * $v3);
#X obj 1631 191 r~ \$0_learning_rate;
#X obj 1450 133 delread~ \$0_bias;
#X obj 2044 732 snapshot~;
#X msg 1138 286 clear;
#X msg 1515 290 clear;
#X obj 1138 324 delwrite~ \$0_weights 1;
#X obj 1500 328 delwrite~ \$0_bias 1;
#N canvas 0 50 450 250 (subpatch) 0;
#X array \$0_scope_x 8820 float 2;
#X coords 0 1 8820 -1 200 140 1 0 0;
#X restore 2046 213 graph;
#X obj 2044 361 r~ \$0_input_x;
#X obj 2043 644 tabwrite~ \$0_prediction_scope;
#N canvas 1495 611 450 250 (subpatch) 0;
#X array \$0_prediction_scope 8820 float 2;
#X coords 0 1 8820 -1 200 140 1;
#X restore 2041 462 graph;
#X obj 2042 612 r~ \$0_prediction;
#X obj 28 130 metro 500;
#X obj 27 98 tgl 23 0 empty empty empty 0 -12 0 16 #fcfcfc #000000 #000000 0 1;
#X obj 28 170 s \$0_update_scopes;
#X obj 2217 394 r \$0_update_scopes;
#X obj 2286 643 r \$0_update_scopes;
#X obj 2141 732 r \$0_update_scopes;
#X obj 2044 763 print db;
#X obj 2048 820 r~ \$0_dw;
#X obj 2047 858 snapshot~;
#X obj 2142 858 r \$0_update_scopes;
#X obj 2046 903 print dw;
#X obj 2045 395 tabwrite~ \$0_scope_x;
#X obj 2500 314 r~ \$0_target_y;
#X obj 2499 351 tabwrite~ \$0_target_scope;
#X obj 2722 351 r \$0_update_scopes;
#N canvas 0 50 450 250 (subpatch) 0;
#X array \$0_target_scope 8820 float 2;
#X coords 0 1 8820 -1 200 140 1;
#X restore 2495 151 graph;
#X obj 324 1005 osc~;
#X obj 324 953 +~;
#X obj 450 898 r~ \$0_prediction;
#X obj 451 943 *~;
#X floatatom 513 944 5 0 0 0 - - - 0;
#X obj 457 985 vsl 23 196 0.01 1 1 0 empty empty empty 0 -9 0 16 #fcfcfc #000000 #000000 0 1;
#X obj 326 1069 *~;
#X obj 385 1075 lop~ 5;
#X obj 305 1234 dac~;
#X obj 326 899 sig~ 440;
#X floatatom 379 162 5 0 0 0 - - - 0;
#X floatatom 541 161 5 0 0 0 - - - 0;
#X floatatom 323 857 5 0 0 0 - - - 0;
#X obj 541 245 *~ 1;
#X floatatom 623 244 5 0 0 0 - - - 0;
#X obj 28 371 f;
#X obj 28 309 r \$0_update_params;
#X obj 77 384 + 1;
#X msg 66 343 0;
#X msg 74 502 1;
#X msg 301 522 0;
#X obj 258 477 t b b;
#X msg 258 520 1;
#X obj 204 42 bng 40 250 50 0 empty empty initialize 0 -12 0 16 #fcfcfc #000000 #000000;
#X obj 204 99 s \$0_init;
#X obj 1138 253 r \$0_init;
#X obj 1516 252 r \$0_init;
#X obj 131 342 r \$0_init;
#X obj 28 463 t b b;
#X msg 28 501 0;
#X obj 74 536 s \$0_init_vals_on;
#X obj 28 601 s \$0_calc_vals_off;
#X obj 258 601 s \$0_calc_vals_on;
#X obj 301 564 s \$0_init_vals_off;
#X obj 28 413 sel 0 1, f 42;
#X obj 541 200 phasor~ 8;
#X msg 1834 441 activation tanh;
#X obj 1834 510 s~ \$0_z;
#X obj 1439 564 s~ \$0_db;
#X obj 1540 162 r~ \$0_db;
#X obj 2045 698 r~ \$0_db;
#X msg 463 69 0;
#X obj 468 21 r \$0_init;
#X obj 379 200 sig~ 1;
#X obj 30 220 sig~ 0.0005;
#X obj 783 720 expr~ $v1 * (1 - (tanh($v2) * tanh($v2)));
#X text 1120 720 // dz[l] = da[l] times g_prime(z[l]);
#X obj 783 643 s~ \$0_da;
#X obj 782 685 r~ \$0_da;
#X obj 1107 689 r~ \$0_z;
#X obj 784 758 s~ \$0_dzl;
#X obj 1440 526 r~ \$0_dzl;
#X text 1199 581 // dwl = dzl times a[l-1];
#X obj 1169 521 r~ \$0_dzl;
#X obj 1170 582 *~;
#X text 1512 564 // db[l] = dz[l];
#X text 817 601 // da[l] = a - y;
#X connect 2 0 6 0;
#X connect 2 1 83 0;
#X connect 3 0 2 0;
#X connect 4 0 5 0;
#X connect 7 0 9 0;
#X connect 8 0 9 1;
#X connect 9 0 93 0;
#X connect 10 0 23 0;
#X connect 10 0 2 1;
#X connect 12 0 10 2;
#X connect 13 0 100 1;
#X connect 15 0 10 1;
#X connect 16 0 10 0;
#X connect 17 0 24 0;
#X connect 17 0 2 2;
#X connect 18 0 17 2;
#X connect 19 0 17 0;
#X connect 20 0 36 0;
#X connect 21 0 23 0;
#X connect 22 0 24 0;
#X connect 26 0 41 0;
#X connect 29 0 27 0;
#X connect 30 0 32 0;
#X connect 31 0 30 0;
#X connect 33 0 41 0;
#X connect 34 0 27 0;
#X connect 35 0 20 0;
#X connect 37 0 38 0;
#X connect 38 0 40 0;
#X connect 39 0 38 0;
#X connect 42 0 43 0;
#X connect 44 0 43 0;
#X connect 46 0 52 0;
#X connect 47 0 46 0;
#X connect 48 0 49 0;
#X connect 49 0 47 1;
#X connect 50 0 49 1;
#X connect 51 0 53 0;
#X connect 52 0 54 0;
#X connect 52 0 54 1;
#X connect 53 0 52 1;
#X connect 55 0 47 0;
#X connect 56 0 89 0;
#X connect 57 0 81 0;
#X connect 58 0 55 0;
#X connect 59 0 1 0;
#X connect 60 0 59 1;
#X connect 61 0 63 0;
#X connect 61 0 80 0;
#X connect 62 0 61 0;
#X connect 63 0 61 1;
#X connect 64 0 61 1;
#X connect 65 0 76 0;
#X connect 66 0 79 0;
#X connect 67 0 68 0;
#X connect 67 1 66 0;
#X connect 68 0 78 0;
#X connect 69 0 70 0;
#X connect 71 0 21 0;
#X connect 72 0 22 0;
#X connect 73 0 64 0;
#X connect 74 0 75 0;
#X connect 74 1 65 0;
#X connect 75 0 77 0;
#X connect 80 0 74 0;
#X connect 80 1 67 0;
#X connect 81 0 59 0;
#X connect 82 0 2 3;
#X connect 85 0 17 1;
#X connect 86 0 20 0;
#X connect 87 0 81 1;
#X connect 88 0 87 0;
#X connect 89 0 0 0;
#X connect 90 0 11 0;
#X connect 91 0 96 0;
#X connect 94 0 91 0;
#X connect 95 0 91 1;
#X connect 97 0 84 0;
#X connect 99 0 100 0;
#X connect 100 0 14 0;
