#N canvas 6 42 3428 1363 16;
#X obj 1352 118 neuron;
#X obj 2515 52 bng 40 250 50 0 empty empty empty 0 -12 0 16 #fcfcfc #000000 #000000;
#X obj 2515 97 s randomize;
#X obj 1353 49 r~ in1;
#X obj 1442 118 neuron;
#X obj 1443 49 r~ in2;
#X obj 1532 118 neuron;
#X obj 1622 118 neuron;
#X obj 1533 49 r~ in3;
#X obj 1623 49 r~ in4;
#X obj 1712 118 neuron;
#X obj 1713 49 r~ in5;
#X obj 1352 168 neuron;
#X obj 1442 168 neuron;
#X obj 1532 168 neuron;
#X obj 1622 168 neuron;
#X obj 1712 168 neuron;
#X obj 1352 218 neuron;
#X obj 1442 218 neuron;
#X obj 1532 218 neuron;
#X obj 1622 218 neuron;
#X obj 1712 218 neuron;
#X obj 1352 268 neuron;
#X obj 1442 268 neuron;
#X obj 1532 268 neuron;
#X obj 1622 268 neuron;
#X obj 1712 268 neuron;
#X obj 1352 318 neuron;
#X obj 1442 318 neuron;
#X obj 1532 318 neuron;
#X obj 1622 318 neuron;
#X obj 1712 318 neuron;
#X obj 1352 346 s~ out1;
#X obj 1442 346 s~ out2;
#X obj 1532 346 s~ out3;
#X obj 1622 346 s~ out4;
#X obj 1712 346 s~ out5;
#X obj 1876 172 s~ in1;
#X obj 1986 144 osc~ 0.218;
#X obj 1986 172 s~ in2;
#X obj 2096 144 osc~ 0.052;
#X obj 2096 172 s~ in3;
#X obj 2206 144 osc~ 0.112;
#X obj 2206 172 s~ in4;
#X obj 2316 144 osc~ 0.345;
#X obj 2316 172 s~ in5;
#X obj 1349 416 r~ out1;
#X obj 1369 503 vsl 23 196 -1 1 0 0 empty empty empty 0 -9 0 16 #fcfcfc #000000 #000000 0 1;
#X obj 1369 474 snapshot~;
#X obj 1349 744 threshold~ 0.01 100 0 100;
#X obj 1349 772 bng 23 250 50 0 empty empty empty 0 -12 0 16 #fcfcfc #000000 #000000;
#X obj 1349 1062 bob~;
#X obj 1958 1232 *~ 0.5;
#X obj 1957 1273 dac~;
#X obj 1363 966 loadbang;
#X obj 1363 1029 mtof;
#X msg 1455 994 3.9;
#X obj 2520 150 tgl 23 0 empty empty empty 0 -12 0 16 #fcfcfc #000000 #000000 0 1;
#X obj 2520 178 metro 10;
#X obj 2520 206 s metro;
#X obj 1465 415 r metro;
#X msg 2635 61 \; pd dsp \$1;
#X obj 2635 22 tgl 23 0 empty empty empty 0 -12 0 16 #fcfcfc #000000 #000000 0 1;
#X obj 1619 503 vsl 23 196 -1 1 0 0 empty empty empty 0 -9 0 16 #fcfcfc #000000 #000000 0 1;
#X obj 1619 474 snapshot~;
#X obj 1599 744 threshold~ 0.01 100 0 100;
#X obj 1599 772 bng 23 250 50 0 empty empty empty 0 -12 0 16 #fcfcfc #000000 #000000;
#X msg 1599 840 1;
#X obj 1599 868 line~ 0 3;
#X obj 1599 1026 bob~;
#X msg 1640 840 0 10;
#X obj 1613 930 loadbang;
#X obj 1613 993 mtof;
#X msg 1705 958 3.9;
#X obj 1715 415 r metro;
#X obj 1599 416 r~ out2;
#X obj 1873 504 vsl 23 196 -1 1 0 0 empty empty empty 0 -9 0 16 #fcfcfc #000000 #000000 0 1;
#X obj 1873 475 snapshot~;
#X obj 1853 745 threshold~ 0.01 100 0 100;
#X obj 1853 773 bng 23 250 50 0 empty empty empty 0 -12 0 16 #fcfcfc #000000 #000000;
#X msg 1853 841 1;
#X obj 1853 869 line~ 0 3;
#X obj 1853 1027 bob~;
#X msg 1894 841 0 10;
#X obj 1867 931 loadbang;
#X obj 1867 994 mtof;
#X msg 1959 959 3.9;
#X obj 1969 416 r metro;
#X obj 1853 417 r~ out3;
#X obj 2129 503 vsl 23 196 -1 1 0 0 empty empty empty 0 -9 0 16 #fcfcfc #000000 #000000 0 1;
#X obj 2129 474 snapshot~;
#X obj 2109 744 threshold~ 0.01 100 0 100;
#X obj 2109 772 bng 23 250 50 0 empty empty empty 0 -12 0 16 #fcfcfc #000000 #000000;
#X msg 2109 840 1;
#X obj 2109 868 line~ 0 3;
#X obj 2109 1026 bob~;
#X msg 2150 840 0 10;
#X obj 2123 930 loadbang;
#X obj 2123 993 mtof;
#X msg 2215 958 3.9;
#X obj 2225 415 r metro;
#X obj 2383 504 vsl 23 196 -1 1 0 0 empty empty empty 0 -9 0 16 #fcfcfc #000000 #000000 0 1;
#X obj 2383 475 snapshot~;
#X obj 2363 745 threshold~ 0.01 100 0 100;
#X obj 2363 773 bng 23 250 50 0 empty empty empty 0 -12 0 16 #fcfcfc #000000 #000000;
#X obj 2363 1027 bob~;
#X obj 2479 416 r metro;
#X obj 2109 416 r~ out4;
#X obj 2363 417 r~ out5;
#X msg 1867 959 54;
#X msg 2123 958 56;
#X obj 2363 801 t b b;
#X obj 1876 144 osc~ 0.0555;
#X obj 1349 904 line~ 0 3;
#X msg 1363 994 38;
#X msg 1349 840 1;
#X msg 1423 831 0 10;
#X msg 1613 958 50;
#X msg 1871 18 0;
#X obj 1871 46 t f f f f f, f 65;
#X obj 2323 877 mtof;
#X obj 2375 940 vline~;
#X obj 2326 978 *~;
#X floatatom 2507 948 5 0 0 0 - - - 0;
#X obj 2479 1029 *~ 0.5;
#X obj 2478 1077 +~ 0.5;
#X obj 2479 1125 *~ 0.1;
#X msg 2389 906 1 1000 \, 0 4000 2000;
#X obj 2472 1171 +~ 400;
#X floatatom 2564 1095 5 0 0 0 - - - 0;
#X floatatom 2559 1155 5 0 0 0 - - - 0;
#X floatatom 2405 984 5 0 0 0 - - - 0;
#X obj 2323 920 phasor~;
#X obj 2480 990 osc~;
#X obj 2077 257 +~;
#X msg 2319 833 40;
#X connect 0 0 12 0;
#X connect 0 0 16 0;
#X connect 0 0 15 0;
#X connect 0 0 14 0;
#X connect 0 0 13 0;
#X connect 1 0 2 0;
#X connect 3 0 0 0;
#X connect 4 0 12 1;
#X connect 4 0 16 1;
#X connect 4 0 15 1;
#X connect 4 0 14 1;
#X connect 4 0 13 1;
#X connect 5 0 4 0;
#X connect 6 0 14 2;
#X connect 6 0 16 2;
#X connect 6 0 15 2;
#X connect 6 0 13 2;
#X connect 6 0 12 2;
#X connect 7 0 15 3;
#X connect 7 0 16 3;
#X connect 7 0 14 3;
#X connect 7 0 13 3;
#X connect 7 0 12 3;
#X connect 8 0 6 0;
#X connect 9 0 7 0;
#X connect 10 0 16 4;
#X connect 10 0 15 4;
#X connect 10 0 14 4;
#X connect 10 0 13 4;
#X connect 10 0 12 4;
#X connect 11 0 10 0;
#X connect 12 0 17 0;
#X connect 12 0 21 0;
#X connect 12 0 20 0;
#X connect 12 0 19 0;
#X connect 12 0 18 0;
#X connect 13 0 18 1;
#X connect 13 0 21 1;
#X connect 13 0 20 1;
#X connect 13 0 19 1;
#X connect 13 0 17 1;
#X connect 14 0 19 2;
#X connect 14 0 21 2;
#X connect 14 0 20 2;
#X connect 14 0 18 2;
#X connect 14 0 17 2;
#X connect 15 0 20 3;
#X connect 15 0 21 3;
#X connect 15 0 19 3;
#X connect 15 0 18 3;
#X connect 15 0 17 3;
#X connect 16 0 21 4;
#X connect 16 0 20 4;
#X connect 16 0 19 4;
#X connect 16 0 18 4;
#X connect 16 0 17 4;
#X connect 17 0 22 0;
#X connect 17 0 26 0;
#X connect 17 0 25 0;
#X connect 17 0 24 0;
#X connect 17 0 23 0;
#X connect 18 0 23 1;
#X connect 18 0 26 1;
#X connect 18 0 25 1;
#X connect 18 0 24 1;
#X connect 18 0 22 1;
#X connect 19 0 24 2;
#X connect 19 0 26 2;
#X connect 19 0 25 2;
#X connect 19 0 23 2;
#X connect 19 0 22 2;
#X connect 20 0 25 3;
#X connect 20 0 26 3;
#X connect 20 0 24 3;
#X connect 20 0 23 3;
#X connect 20 0 22 3;
#X connect 21 0 26 4;
#X connect 21 0 25 4;
#X connect 21 0 24 4;
#X connect 21 0 23 4;
#X connect 21 0 22 4;
#X connect 22 0 27 0;
#X connect 22 0 31 0;
#X connect 22 0 30 0;
#X connect 22 0 29 0;
#X connect 22 0 28 0;
#X connect 23 0 28 1;
#X connect 23 0 31 1;
#X connect 23 0 30 1;
#X connect 23 0 29 1;
#X connect 23 0 27 1;
#X connect 24 0 29 2;
#X connect 24 0 31 2;
#X connect 24 0 30 2;
#X connect 24 0 28 2;
#X connect 24 0 27 2;
#X connect 25 0 30 3;
#X connect 25 0 31 3;
#X connect 25 0 29 3;
#X connect 25 0 28 3;
#X connect 25 0 27 3;
#X connect 26 0 31 4;
#X connect 26 0 30 4;
#X connect 26 0 29 4;
#X connect 26 0 28 4;
#X connect 26 0 27 4;
#X connect 27 0 32 0;
#X connect 28 0 33 0;
#X connect 29 0 34 0;
#X connect 30 0 35 0;
#X connect 31 0 36 0;
#X connect 38 0 39 0;
#X connect 38 0 134 1;
#X connect 40 0 41 0;
#X connect 42 0 43 0;
#X connect 44 0 45 0;
#X connect 46 0 48 0;
#X connect 46 0 49 0;
#X connect 48 0 47 0;
#X connect 49 0 50 0;
#X connect 50 0 115 0;
#X connect 50 0 116 0;
#X connect 51 0 52 0;
#X connect 52 0 53 0;
#X connect 52 0 53 1;
#X connect 54 0 114 0;
#X connect 54 0 56 0;
#X connect 55 0 51 1;
#X connect 56 0 51 2;
#X connect 57 0 58 0;
#X connect 58 0 59 0;
#X connect 60 0 48 0;
#X connect 62 0 61 0;
#X connect 64 0 63 0;
#X connect 65 0 66 0;
#X connect 66 0 67 0;
#X connect 66 0 70 0;
#X connect 67 0 68 0;
#X connect 68 0 69 0;
#X connect 69 0 52 0;
#X connect 70 0 68 0;
#X connect 71 0 117 0;
#X connect 71 0 73 0;
#X connect 72 0 69 1;
#X connect 73 0 69 2;
#X connect 74 0 64 0;
#X connect 75 0 64 0;
#X connect 75 0 65 0;
#X connect 77 0 76 0;
#X connect 78 0 79 0;
#X connect 79 0 80 0;
#X connect 79 0 83 0;
#X connect 80 0 81 0;
#X connect 81 0 82 0;
#X connect 82 0 52 0;
#X connect 83 0 81 0;
#X connect 84 0 109 0;
#X connect 84 0 86 0;
#X connect 85 0 82 1;
#X connect 86 0 82 2;
#X connect 87 0 77 0;
#X connect 88 0 77 0;
#X connect 88 0 78 0;
#X connect 90 0 89 0;
#X connect 91 0 92 0;
#X connect 92 0 93 0;
#X connect 92 0 96 0;
#X connect 93 0 94 0;
#X connect 94 0 95 0;
#X connect 95 0 52 0;
#X connect 96 0 94 0;
#X connect 97 0 110 0;
#X connect 97 0 99 0;
#X connect 98 0 95 1;
#X connect 99 0 95 2;
#X connect 100 0 90 0;
#X connect 102 0 101 0;
#X connect 103 0 104 0;
#X connect 104 0 111 0;
#X connect 105 0 52 0;
#X connect 106 0 102 0;
#X connect 107 0 90 0;
#X connect 107 0 91 0;
#X connect 108 0 102 0;
#X connect 108 0 103 0;
#X connect 109 0 85 0;
#X connect 110 0 98 0;
#X connect 111 1 127 0;
#X connect 112 0 37 0;
#X connect 112 0 134 0;
#X connect 113 0 51 0;
#X connect 114 0 55 0;
#X connect 115 0 113 0;
#X connect 116 0 113 0;
#X connect 117 0 72 0;
#X connect 118 0 119 0;
#X connect 119 0 112 1;
#X connect 119 1 38 1;
#X connect 119 2 40 1;
#X connect 119 3 42 1;
#X connect 119 4 44 1;
#X connect 120 0 132 0;
#X connect 121 0 122 1;
#X connect 122 0 105 0;
#X connect 123 0 133 0;
#X connect 124 0 125 0;
#X connect 125 0 126 0;
#X connect 126 0 128 0;
#X connect 127 0 121 0;
#X connect 128 0 105 1;
#X connect 129 0 126 1;
#X connect 130 0 128 1;
#X connect 131 0 105 2;
#X connect 132 0 122 0;
#X connect 134 0 124 0;
#X connect 135 0 120 0;
