#N canvas 4 70 1712 1332 16;
#X obj 157 59 f \$0;
#X obj 154 17 bng 23 250 50 0 empty empty empty 0 -12 0 16 #fcfcfc #000000 #000000;
#X obj 225 234 nbx 5 21 -1e+37 1e+37 0 0 empty \$0_dollar_zero empty 0 -12 0 16 #fcfcfc #000000 #000000 0 256;
#X obj 660 227 d_0_test;
#X obj 667 188 r \$0_q;
#N canvas 636 733 922 669 zee 1;
#X obj 458 331 nbx 5 21 -1e+37 1e+37 0 0 empty empty empty 0 -12 0 16 #fcfcfc #000000 #000000 0 256;
#X obj 376 391 dollar_0;
#X obj 376 421 outlet;
#X obj 328 10 bng 23 250 50 0 empty \$0_zee_bang empty 0 -12 0 16 #fcfcfc #000000 #000000;
#X obj 437 361 f;
#X obj 458 299 r \$0_zee;
#X obj 328 44 t b b, f 14;
#X obj 101 100 cnv 23 220 26 empty empty empty 20 12 0 16 #a6d189 #404040 0;
#X symbolatom 102 102 27 0 0 0 - - - 0;
#X obj 102 145 t s b, f 13;
#X connect 0 0 4 1;
#X connect 1 0 2 0;
#X connect 3 0 6 0;
#X connect 4 0 1 1;
#X connect 5 0 0 0;
#X connect 6 0 8 0;
#X connect 6 1 4 0;
#X connect 8 0 9 0;
#X connect 9 0 1 0;
#X connect 9 1 4 0;
#X coords 0 -1 1 1 220 26 2 100 100;
#X restore 1185 232 pd zee;
#X obj 156 94 s \$0_zee;
#X obj 230 14 bng 23 250 50 0 empty empty empty 0 -12 0 16 #fcfcfc #000000 #000000;
#X obj 230 55 s \$0_zee_bang;
#X obj 1197 318 print;
#X msg 1116 235 sdf;
#X connect 0 0 6 0;
#X connect 1 0 0 0;
#X connect 5 0 9 0;
#X connect 7 0 8 0;
