#N canvas 4 70 1712 1332 16;
#X obj 477 364 neuron.one, f 81;
#X obj 185 243 tabwrite~ \$0_scope;
#N canvas 0 50 450 250 (subpatch) 0;
#X array \$0_scope 8820 float 0;
#X coords 0 1 8819 -1 200 140 1 0 0;
#X restore 70 34 graph;
#X obj 184 210 osc~ 0.5;
#X obj 438 2 tgl 23 0 empty empty empty 0 -12 0 16 #fcfcfc #000000 #000000 0 1;
#X obj 438 69 s update_scope;
#X floatatom 184 179 5 0 0 0 - - - 0;
#X obj 59 242 r update_scope;
#X obj 438 33 metro 500;
#X obj 637 261 sig~ 1;
#X obj 915 301 sig~ 0;
#X obj 28 538 r update_scope;
#X obj 252 557 tabwrite~ \$0_activation_scope;
#N canvas 0 50 450 250 (subpatch) 0;
#X array \$0_activation_scope 11050 float 2;
#X coords 0 1 11050 -1 200 140 1;
#X restore 37 342 graph;
#X obj 477 394 s~ \$0_prediction;
#X obj 252 522 r~ \$0_prediction;
#X msg 1122 314 activation linear;
#X obj 476 488 -~, f 18;
#X obj 477 432 r~ \$0_prediction;
#X obj 787 121 s~ \$0_target_y;
#X obj 923 116 s~ \$0_input_x;
#X obj 476 326 r~ \$0_input_x;
#X obj 617 432 r~ \$0_target_y;
#X obj 8 805 r update_scope;
#X obj 135 806 tabwrite~ \$0_error_scope;
#X obj 475 523 s~ \$0_prediction_error;
#X obj 135 771 r~ \$0_prediction_error;
#N canvas 1495 611 450 250 (subpatch) 0;
#X array \$0_error_scope 11050 float 2;
#X coords 0 1 11050 -1 200 140 1 0 0;
#X restore 31 612 graph;
#X msg 891 4 0;
#X obj 54 887 array define \$0_weights 1;
#X obj 53 944 array define \$0_bias 1;
#X obj 585 70 s update_params;
#X obj 634 230 array get \$0_weights;
#X msg 715 198 1;
#X msg 637 198 0;
#X obj 637 162 t b b, f 10;
#X obj 638 123 r update_params;
#X msg 993 237 1;
#X msg 915 237 0;
#X obj 915 201 t b b, f 10;
#X obj 916 162 r update_params;
#X obj 915 268 array get \$0_bias;
#X obj 1151 187 s~ \$0_learning_rate;
#X obj 686 592 r~ \$0_input_x;
#X obj 839 594 r~ \$0_prediction_error;
#X obj 718 655 *~;
#X text 760 656 // dw;
#X obj 508 699 array get \$0_weights;
#X msg 586 668 1;
#X msg 508 668 0;
#X obj 471 593 r update_params;
#X obj 803 715 r~ \$0_learning_rate;
#X obj 470 632 t b b b, f 10;
#X obj 588 903 array set \$0_weights;
#X obj 470 798 snapshot~;
#X obj 470 740 t b b;
#X msg 666 865 0;
#X obj 1098 591 r update_params;
#X text 1553 674 // db;
#X obj 1457 718 r~ \$0_learning_rate;
#X msg 1202 669 1;
#X msg 1136 669 0;
#X obj 1098 633 t b b b, f 10;
#X obj 1098 780 snapshot~;
#X obj 1098 741 t b b;
#X obj 1136 700 array get \$0_bias;
#X obj 1215 850 array set \$0_bias;
#X msg 1277 818 0;
#X obj 1372 674 r~ \$0_prediction_error;
#X msg 1204 807 0;
#X obj 283 1095 *~;
#X obj 409 1039 lop~ 5;
#X obj 405 823 vsl 23 196 0.01 1 1 0 empty empty empty 0 -9 0 16 #fcfcfc #000000 #000000 0 1;
#X obj 591 20 bang~;
#X obj 288 715 r~ \$0_target_y;
#X obj 276 479 r~ \$0_input_x;
#X obj 788 84 sig~ 0.5;
#X obj 647 1065 r~ \$0_prediction_error;
#X obj 644 1110 snapshot~;
#X obj 516 1014 r update_params;
#X msg 558 838 1;
#X obj 637 748 expr~ $v1 - ($v2 * $v3);
#X obj 1291 751 expr~ $v1 - ($v2 * $v3);
#X obj 502 265 print weights;
#X obj 649 1168 print error;
#X obj 1152 149 sig~ 1e-05;
#X obj 924 83 sig~ 0.1;
#X connect 0 0 14 0;
#X connect 3 0 1 0;
#X connect 4 0 8 0;
#X connect 6 0 3 0;
#X connect 7 0 1 0;
#X connect 8 0 5 0;
#X connect 11 0 12 0;
#X connect 16 0 0 3;
#X connect 17 0 25 0;
#X connect 18 0 17 0;
#X connect 21 0 0 0;
#X connect 22 0 17 1;
#X connect 23 0 24 0;
#X connect 32 0 9 0;
#X connect 32 0 83 0;
#X connect 33 0 32 1;
#X connect 34 0 32 0;
#X connect 35 0 34 0;
#X connect 35 1 33 0;
#X connect 36 0 35 0;
#X connect 37 0 41 1;
#X connect 38 0 41 0;
#X connect 39 0 38 0;
#X connect 39 1 37 0;
#X connect 40 0 39 0;
#X connect 41 0 10 0;
#X connect 43 0 45 0;
#X connect 44 0 45 1;
#X connect 45 0 81 1;
#X connect 47 0 81 0;
#X connect 48 0 47 1;
#X connect 49 0 47 0;
#X connect 50 0 52 0;
#X connect 51 0 81 2;
#X connect 52 0 55 0;
#X connect 52 1 49 0;
#X connect 52 2 48 0;
#X connect 54 0 53 0;
#X connect 55 0 54 0;
#X connect 55 1 56 0;
#X connect 56 0 53 1;
#X connect 57 0 62 0;
#X connect 59 0 82 2;
#X connect 60 0 65 1;
#X connect 61 0 65 0;
#X connect 62 0 64 0;
#X connect 62 1 61 0;
#X connect 62 2 60 0;
#X connect 63 0 66 0;
#X connect 64 0 63 0;
#X connect 64 1 67 0;
#X connect 65 0 82 0;
#X connect 67 0 66 1;
#X connect 68 0 82 1;
#X connect 69 0 66 0;
#X connect 71 0 70 1;
#X connect 72 0 71 0;
#X connect 74 0 24 0;
#X connect 75 0 12 0;
#X connect 76 0 19 0;
#X connect 77 0 78 0;
#X connect 78 0 84 0;
#X connect 79 0 78 0;
#X connect 80 0 53 0;
#X connect 81 0 54 0;
#X connect 81 0 0 1;
#X connect 82 0 63 0;
#X connect 82 0 0 2;
#X connect 85 0 42 0;
#X connect 86 0 20 0;
