#N canvas 0 66 3440 1340 16;
#N canvas 0 50 450 250 (subpatch) 0;
#X array \$0_input 4410 float 0;
#X coords 0 2 4409 -2 200 140 1 0 0;
#X restore 35 136 graph;
#X msg 34 354 resize \$1;
#X obj 37 291 hsl 196 23 441 4410 1 0 empty empty empty -2 -12 0 16 #fcfcfc #000000 #000000 0 1;
#X floatatom 277 98 5 0 0 0 - - - 0;
#X obj 276 222 s~ x_input;
#X obj 35 14 tgl 23 0 empty empty empty 0 -12 0 16 #fcfcfc #000000 #000000 0 1;
#X obj 35 45 metro 100;
#X floatatom 104 16 5 0 0 0 - - - 0;
#X obj 160 425 r~ x_input;
#X floatatom 34 323 5 0 0 0 - - - 0;
#X floatatom 486 102 5 0 0 0 - - - 0;
#X obj 485 226 s~ y_label;
#X obj 320 47 t b b b b;
#X msg 542 91 0;
#X msg 330 88 0;
#X obj 320 11 bng 23 250 50 0 empty empty empty 0 -12 0 16 #fcfcfc #000000 #000000;
#N canvas 1495 611 450 250 (subpatch) 0;
#X array \$0_label 4410 float 0;
#X coords 0 2 4409 -2 200 140 1 0 0;
#X restore 31 530 graph;
#X msg 30 748 resize \$1;
#X obj 33 685 hsl 196 23 441 4410 1 0 empty empty empty -2 -12 0 16 #fcfcfc #000000 #000000 0 1;
#X floatatom 30 717 5 0 0 0 - - - 0;
#X obj 153 873 tabwrite~ \$0_label;
#X obj 161 485 tabwrite~ \$0_input;
#X obj 29 811 r update_scope;
#X obj 35 80 s update_scope;
#X obj 34 421 r update_scope;
#X obj 152 813 r~ y_label;
#N canvas 1499 175 612 544 linear_neuron 0;
#X obj 27 26 inlet~ signal;
#X obj 219 26 inlet~ w;
#X obj 392 26 inlet~ b;
#X obj 142 163 *~;
#X obj 141 230 +~;
#X obj 142 298 outlet~;
#X connect 0 0 3 0;
#X connect 1 0 3 1;
#X connect 2 0 4 1;
#X connect 3 0 4 0;
#X connect 4 0 5 0;
#X restore 3245 735 pd linear_neuron;
#X obj 635 142 r~ x_input;
#X obj 1655 139 r~ x_input;
#N canvas 1495 586 590 458 tanh_neuron_1 0;
#X obj 27 26 inlet~ signal;
#X obj 219 26 inlet~ w;
#X obj 392 26 inlet~ b;
#X obj 142 163 *~;
#X obj 141 230 +~;
#X obj 142 308 expr~ tanh($v1);
#X obj 142 378 outlet~;
#X text 152 283 tanh;
#X connect 0 0 3 0;
#X connect 1 0 3 1;
#X connect 2 0 4 1;
#X connect 3 0 4 0;
#X connect 4 0 5 0;
#X connect 5 0 6 0;
#X restore 3243 780 pd tanh_neuron_1;
#N canvas 953 472 882 795 tanh_neuron_1 0;
#X obj 27 26 inlet~ signal;
#X obj 219 26 inlet~ w;
#X obj 392 26 inlet~ b;
#X obj 142 163 *~;
#X obj 141 230 +~;
#X obj 142 308 expr~ tanh($v1);
#X obj 566 370 expr~ if ($v1 > 0 \, $v1 \, 0);
#X obj 563 309 expr~ $v1;
#X text 578 344 ReLU;
#X text 152 283 tanh;
#X text 576 276 linear;
#X obj 358 384 outlet~ z;
#X obj 142 378 outlet~ a;
#X connect 0 0 3 0;
#X connect 1 0 3 1;
#X connect 2 0 4 1;
#X connect 3 0 4 0;
#X connect 4 0 5 0;
#X connect 4 0 11 0;
#X connect 5 0 12 0;
#X restore 635 172 pd tanh_neuron_1;
#X f 79;
#N canvas 2250 607 882 795 tanh_neuron_1 0;
#X obj 27 26 inlet~ signal;
#X obj 219 26 inlet~ w;
#X obj 392 26 inlet~ b;
#X obj 142 163 *~;
#X obj 141 230 +~;
#X obj 142 308 expr~ tanh($v1);
#X obj 566 370 expr~ if ($v1 > 0 \, $v1 \, 0);
#X obj 563 309 expr~ $v1;
#X text 578 344 ReLU;
#X text 152 283 tanh;
#X text 576 276 linear;
#X obj 285 374 outlet~ z;
#X obj 142 378 outlet~ a;
#X connect 0 0 3 0;
#X connect 1 0 3 1;
#X connect 2 0 4 1;
#X connect 3 0 4 0;
#X connect 4 0 5 0;
#X connect 4 0 11 0;
#X connect 5 0 12 0;
#X restore 1656 172 pd tanh_neuron_1;
#X f 69;
#N canvas 985 889 860 513 linear_neuron_2 0;
#X obj 691 25 inlet~ b;
#X obj 142 163 *~;
#X obj 291 248 +~;
#X obj 293 402 outlet~;
#X obj 27 26 inlet~ signal_1;
#X obj 219 26 inlet~ w_1;
#X obj 332 25 inlet~ signal_2;
#X obj 524 25 inlet~ w_2;
#X obj 466 139 *~;
#X obj 292 321 +~;
#X connect 0 0 9 1;
#X connect 1 0 2 0;
#X connect 2 0 9 0;
#X connect 4 0 1 0;
#X connect 5 0 1 1;
#X connect 6 0 8 0;
#X connect 7 0 8 1;
#X connect 8 0 2 1;
#X connect 9 0 3 0;
#X restore 885 1238 pd linear_neuron_2;
#X f 194;
#N canvas 1511 730 891 564 tan_neuron_2 0;
#X obj 691 25 inlet~ b;
#X obj 142 163 *~;
#X obj 291 248 +~;
#X obj 27 26 inlet~ signal_1;
#X obj 219 26 inlet~ w_1;
#X obj 332 25 inlet~ signal_2;
#X obj 524 25 inlet~ w_2;
#X obj 466 139 *~;
#X obj 292 321 +~;
#X obj 292 359 expr~ tanh($v1);
#X obj 425 401 outlet~ z;
#X obj 293 402 outlet~ a;
#X connect 0 0 8 1;
#X connect 1 0 2 0;
#X connect 2 0 8 0;
#X connect 3 0 1 0;
#X connect 4 0 1 1;
#X connect 5 0 7 0;
#X connect 6 0 7 1;
#X connect 7 0 2 1;
#X connect 8 0 9 0;
#X connect 8 0 10 0;
#X connect 9 0 11 0;
#X restore 634 938 pd tan_neuron_2;
#X f 123;
#N canvas 1503 658 891 564 tan_neuron_2 0;
#X obj 691 25 inlet~ b;
#X obj 142 163 *~;
#X obj 291 248 +~;
#X obj 27 26 inlet~ signal_1;
#X obj 219 26 inlet~ w_1;
#X obj 332 25 inlet~ signal_2;
#X obj 524 25 inlet~ w_2;
#X obj 466 139 *~;
#X obj 292 321 +~;
#X obj 292 359 expr~ tanh($v1);
#X obj 293 402 outlet~ a;
#X obj 448 408 outlet~ z;
#X connect 0 0 8 1;
#X connect 1 0 2 0;
#X connect 2 0 8 0;
#X connect 2 0 11 0;
#X connect 3 0 1 0;
#X connect 4 0 1 1;
#X connect 5 0 7 0;
#X connect 6 0 7 1;
#X connect 7 0 2 1;
#X connect 8 0 9 0;
#X connect 9 0 10 0;
#X restore 1658 938 pd tan_neuron_2;
#X f 69;
#N canvas 0 50 450 250 (subpatch) 0;
#X array \$0_prediction 4410 float 2;
#X coords 0 1 4410 -1 200 140 1;
#X restore 19 922 graph;
#X msg 22 1146 resize \$1;
#X obj 25 1083 hsl 196 23 441 4410 1 0 empty empty empty -2 -12 0 16 #fcfcfc #000000 #000000 0 1;
#X floatatom 22 1115 5 0 0 0 - - - 0;
#X obj 21 1209 r update_scope;
#X obj 34 388 s \$0_input;
#X obj 30 782 s \$0_label;
#X obj 22 1180 s \$0_prediction;
#X obj 144 1211 r~ prediction;
#X obj 636 1283 s~ prediction;
#X obj 1932 110 sig~ 1;
#X obj 763 883 sig~ 1;
#X obj 1089 815 sig~ 1;
#X obj 1791 879 sig~ 1;
#X obj 1023 1030 sig~ 1;
#X obj 145 1271 tabwrite~ \$0_prediction;
#X obj 2433 994 sig~ 1;
#X obj 2204 135 sig~ 1;
#X obj 1262 100 sig~ 1;
#N canvas 1427 264 715 438 simple_synth 0;
#X obj 235 113 osc~ 220;
#X obj 236 304 dac~;
#X obj 235 67 inlet;
#X obj 235 242 *~ 0.3;
#X obj 236 173 *~ 1;
#X connect 0 0 4 0;
#X connect 2 0 0 0;
#X connect 3 0 1 0;
#X connect 3 0 1 1;
#X connect 4 0 3 0;
#X restore 3245 828 pd simple_synth;
#X obj 2712 48 r~ prediction;
#X obj 2711 87 -~, f 15;
#X obj 2829 47 r~ y_label;
#X obj 2711 115 s~ prediction_error;
#X obj 446 44 s~ learning_rate;
#X obj 950 133 sig~ 0.01;
#X obj 1427 707 sig~ 1;
#X obj 597 19 array define -k 2_layer_weights 8;
#A 0 -0.029359 0.005279 -0.829283 -0.868902 0.009878 -2805.43 -2.7077e+19 -5.41543e+19;
#X msg 2881 441 8;
#X obj 2881 472 until;
#N canvas 1034 354 351 352 random_init 0;
#X obj 64 65 random 100000;
#X obj 64 99 / 1e+06;
#X obj 64 137 - 0.05;
#X obj 64 26 inlet;
#X obj 64 179 outlet;
#X connect 0 0 1 0;
#X connect 1 0 2 0;
#X connect 2 0 4 0;
#X connect 3 0 0 0;
#X restore 2881 535 pd random_init;
#X obj 2881 626 array set 2_layer_weights;
#X obj 2881 503 t b b, f 23;
#X obj 3062 558 f;
#X obj 3109 568 + 1;
#X msg 3114 513 0;
#X obj 3062 588 % 8;
#X obj 596 53 array define -k 2_layer_biases 5;
#A 0 -0.037665 0.00743 37.53 1 -2.7077e+19;
#X obj 3172 471 until;
#N canvas 1038 390 351 352 random_init 0;
#X obj 64 65 random 100000;
#X obj 64 99 / 1e+06;
#X obj 64 137 - 0.05;
#X obj 64 26 inlet;
#X obj 64 179 outlet;
#X connect 0 0 1 0;
#X connect 1 0 2 0;
#X connect 2 0 4 0;
#X connect 3 0 0 0;
#X restore 3172 534 pd random_init;
#X obj 3172 502 t b b, f 23;
#X obj 3353 557 f;
#X obj 3400 567 + 1;
#X msg 3405 512 0;
#X msg 3172 440 5;
#X obj 3172 625 array set 2_layer_biases;
#X obj 3353 587 % 5;
#X obj 950 59 array get 2_layer_weights;
#X msg 1048 22 1;
#X msg 950 27 0;
#X obj 1262 61 array get 2_layer_biases;
#X msg 1262 29 0;
#X msg 1356 22 1;
#X obj 1932 75 array get 2_layer_weights;
#X msg 2030 38 1;
#X obj 2204 77 array get 2_layer_biases;
#X msg 2298 38 1;
#X msg 1933 42 1;
#X msg 2204 45 1;
#X obj 651 777 array get 2_layer_weights;
#X msg 749 740 1;
#X msg 651 745 2;
#X obj 1090 776 array get 2_layer_weights;
#X msg 1188 739 1;
#X msg 1090 744 3;
#X obj 1795 824 array get 2_layer_weights;
#X msg 1893 787 1;
#X msg 1795 792 4;
#X obj 813 1063 array get 2_layer_weights;
#X msg 911 1034 1;
#X msg 813 1034 6;
#X obj 1427 635 array get 2_layer_biases;
#X msg 1521 596 1;
#X msg 1427 603 2;
#X obj 2720 1090 array get 2_layer_biases;
#X msg 2814 1059 1;
#X msg 2720 1058 4;
#X obj 1141 990 r~ prediction_error;
#X obj 1036 1063 expr~ $v1 - $v2 * $v3;
#X obj 1201 1033 r~ learning_rate;
#X obj 1037 1104 snapshot~;
#X obj 2508 76 metro;
#X msg 2527 35 tempo 64 samples;
#X obj 2507 118 s update_params;
#X obj 2479 45 tgl 23 0 empty empty empty 0 -12 0 16 #fcfcfc #000000 #000000 0 1;
#X obj 1124 1104 r update_params;
#X obj 1039 1145 t b f b;
#X obj 1065 1203 array set 2_layer_weights;
#X msg 1092 1174 6;
#X text 2717 18 prediction error;
#X obj 2045 1029 sig~ 1;
#X obj 1832 1069 array get 2_layer_weights;
#X msg 1930 1032 1;
#X obj 2080 1068 expr~ $v1 - $v2 * $v3;
#X obj 2245 1030 r~ learning_rate;
#X obj 2081 1109 snapshot~;
#X obj 2260 1063 r update_params;
#X obj 2083 1150 t b f b;
#X obj 2109 1208 array set 2_layer_weights;
#X msg 1832 1037 7;
#X msg 2136 1178 7;
#X obj 2183 996 r~ prediction_error;
#X obj 1119 1024 *~;
#X obj 2161 1030 *~;
#X obj 2478 1043 expr~ $v1 - $v2 * $v3;
#X obj 2642 1012 r~ learning_rate;
#X obj 2559 982 r~ prediction_error;
#X obj 2478 1095 snapshot~;
#X obj 2575 1092 r update_params;
#X obj 2480 1136 t b f b;
#X obj 2506 1194 array set 2_layer_biases;
#X msg 2533 1166 4;
#X obj 1568 1120 expr~ $v1 * $v2 + $v1 * $v3;
#X obj 1568 1164 s~ da_layer_2;
#X obj 678 294 expr~ $v1 * $v2 * (1 - ($v2 * $v2));
#X obj 678 256 r~ da_layer_2;
#X obj 681 357 *~;
#X text 972 294 dz;
#X text 714 356 dw;
#X obj 682 514 snapshot~;
#X obj 771 515 r update_params;
#X obj 680 555 t b f b;
#X obj 706 613 array set 2_layer_weights;
#X msg 801 579 2;
#X obj 682 408 expr~ $v1 - $v2 * $v3;
#X obj 848 368 r~ learning_rate;
#X obj 1180 295 expr~ $v1 - $v2 * $v3;
#X obj 1346 255 r~ learning_rate;
#X obj 1188 368 snapshot~;
#X obj 1277 369 r update_params;
#X obj 1186 409 t b f b;
#X obj 1212 467 array set 2_layer_weights;
#X msg 1308 433 3;
#X obj 1700 284 expr~ $v1 * $v2 * (1 - ($v2 * $v2));
#X obj 1700 246 r~ da_layer_2;
#X obj 1703 347 *~;
#X text 1991 282 dz;
#X text 1736 346 dw;
#X obj 1701 400 expr~ $v1 - $v2 * $v3;
#X obj 1867 360 r~ learning_rate;
#X obj 1743 471 snapshot~;
#X obj 1832 472 r update_params;
#X obj 1741 512 t b f b;
#X obj 1767 570 array set 2_layer_weights;
#X msg 1862 536 4;
#X obj 2068 811 sig~ 1;
#X obj 2069 772 array get 2_layer_weights;
#X msg 2167 735 1;
#X obj 2199 461 expr~ $v1 - $v2 * $v3;
#X obj 2365 421 r~ learning_rate;
#X obj 2207 534 snapshot~;
#X obj 2296 535 r update_params;
#X obj 2205 575 t b f b;
#X obj 2231 633 array set 2_layer_weights;
#X msg 2069 740 5;
#X msg 2327 598 5;
#X obj 1423 779 expr~ $v1 - $v2 * $v3;
#X obj 1590 734 r~ learning_rate;
#X obj 1424 824 snapshot~;
#X obj 1538 830 r update_params;
#X obj 1319 829 t b f b;
#X obj 1345 887 array set 2_layer_biases;
#X msg 1372 859 2;
#X obj 2468 719 sig~ 1;
#X obj 2468 647 array get 2_layer_biases;
#X msg 2562 608 1;
#X obj 2464 791 expr~ $v1 - $v2 * $v3;
#X obj 2631 746 r~ learning_rate;
#X obj 2465 836 snapshot~;
#X obj 2579 842 r update_params;
#X obj 2360 841 t b f b;
#X obj 2386 899 array set 2_layer_biases;
#X msg 2468 615 3;
#X msg 2413 871 3;
#X msg 901 109 1;
#X msg 1872 88 1;
#X obj 447 13 sig~ 0.0001;
#X msg 202 96 110;
#X msg 411 100 220;
#X obj 277 124 phasor~;
#X obj 486 128 phasor~;
#X connect 1 0 40 0;
#X connect 2 0 9 0;
#X connect 3 0 214 0;
#X connect 5 0 6 0;
#X connect 6 0 23 0;
#X connect 7 0 6 1;
#X connect 8 0 21 0;
#X connect 9 0 1 0;
#X connect 10 0 215 0;
#X connect 12 0 212 0;
#X connect 12 1 213 0;
#X connect 12 2 14 0;
#X connect 12 3 13 0;
#X connect 13 0 215 1;
#X connect 14 0 214 1;
#X connect 15 0 12 0;
#X connect 17 0 41 0;
#X connect 18 0 19 0;
#X connect 19 0 17 0;
#X connect 22 0 20 0;
#X connect 24 0 21 0;
#X connect 25 0 20 0;
#X connect 27 0 30 0;
#X connect 28 0 31 0;
#X connect 30 0 33 0;
#X connect 30 0 151 1;
#X connect 30 0 34 2;
#X connect 31 0 34 0;
#X connect 31 0 33 2;
#X connect 31 0 170 1;
#X connect 31 0 183 1;
#X connect 32 0 44 0;
#X connect 32 0 147 0;
#X connect 33 0 137 0;
#X connect 33 0 32 0;
#X connect 33 0 149 1;
#X connect 34 0 138 0;
#X connect 34 0 32 2;
#X connect 36 0 42 0;
#X connect 37 0 38 0;
#X connect 38 0 36 0;
#X connect 39 0 50 0;
#X connect 43 0 50 0;
#X connect 45 0 31 1;
#X connect 46 0 33 1;
#X connect 46 0 159 0;
#X connect 47 0 33 3;
#X connect 47 0 161 0;
#X connect 48 0 34 1;
#X connect 48 0 173 0;
#X connect 49 0 32 1;
#X connect 49 0 113 0;
#X connect 49 0 147 1;
#X connect 51 0 32 4;
#X connect 51 0 139 0;
#X connect 52 0 31 2;
#X connect 53 0 30 2;
#X connect 55 0 56 0;
#X connect 56 0 58 0;
#X connect 57 0 56 1;
#X connect 60 0 30 1;
#X connect 61 0 33 4;
#X connect 61 0 191 0;
#X connect 63 0 64 0;
#X connect 64 0 67 0;
#X connect 65 0 66 0;
#X connect 67 0 65 0;
#X connect 67 1 68 0;
#X connect 68 0 69 0;
#X connect 68 0 71 0;
#X connect 69 0 68 1;
#X connect 70 0 68 1;
#X connect 71 0 66 1;
#X connect 73 0 75 0;
#X connect 74 0 80 0;
#X connect 75 0 74 0;
#X connect 75 1 76 0;
#X connect 76 0 77 0;
#X connect 76 0 81 0;
#X connect 77 0 76 1;
#X connect 78 0 76 1;
#X connect 79 0 73 0;
#X connect 81 0 80 1;
#X connect 82 0 60 0;
#X connect 83 0 82 1;
#X connect 84 0 82 0;
#X connect 85 0 53 0;
#X connect 86 0 85 0;
#X connect 87 0 85 1;
#X connect 88 0 45 0;
#X connect 89 0 88 1;
#X connect 90 0 52 0;
#X connect 91 0 90 1;
#X connect 92 0 88 0;
#X connect 93 0 90 0;
#X connect 94 0 46 0;
#X connect 95 0 94 1;
#X connect 96 0 94 0;
#X connect 97 0 47 0;
#X connect 98 0 97 1;
#X connect 99 0 97 0;
#X connect 100 0 48 0;
#X connect 101 0 100 1;
#X connect 102 0 100 0;
#X connect 103 0 49 0;
#X connect 104 0 103 1;
#X connect 105 0 103 0;
#X connect 106 0 61 0;
#X connect 107 0 106 1;
#X connect 108 0 106 0;
#X connect 109 0 51 0;
#X connect 110 0 109 1;
#X connect 111 0 109 0;
#X connect 112 0 137 1;
#X connect 113 0 115 0;
#X connect 114 0 113 2;
#X connect 115 0 121 0;
#X connect 116 0 118 0;
#X connect 117 0 116 0;
#X connect 119 0 116 0;
#X connect 120 0 115 0;
#X connect 121 0 105 0;
#X connect 121 1 122 0;
#X connect 121 2 123 0;
#X connect 123 0 122 1;
#X connect 125 0 128 0;
#X connect 125 0 32 3;
#X connect 125 0 147 2;
#X connect 126 0 125 0;
#X connect 127 0 126 1;
#X connect 128 0 130 0;
#X connect 129 0 128 2;
#X connect 130 0 132 0;
#X connect 131 0 130 0;
#X connect 132 0 134 0;
#X connect 132 1 133 0;
#X connect 132 2 135 0;
#X connect 134 0 126 0;
#X connect 135 0 133 1;
#X connect 136 0 138 1;
#X connect 137 0 113 1;
#X connect 138 0 128 1;
#X connect 139 0 142 0;
#X connect 140 0 139 2;
#X connect 141 0 139 1;
#X connect 142 0 144 0;
#X connect 143 0 142 0;
#X connect 144 0 111 0;
#X connect 144 1 145 0;
#X connect 144 2 146 0;
#X connect 146 0 145 1;
#X connect 147 0 148 0;
#X connect 149 0 151 0;
#X connect 149 0 191 1;
#X connect 150 0 149 0;
#X connect 151 0 159 1;
#X connect 151 0 161 1;
#X connect 154 0 156 0;
#X connect 155 0 154 0;
#X connect 156 0 96 0;
#X connect 156 1 157 0;
#X connect 156 2 158 0;
#X connect 158 0 157 1;
#X connect 159 0 154 0;
#X connect 160 0 159 2;
#X connect 161 0 163 0;
#X connect 162 0 161 2;
#X connect 163 0 165 0;
#X connect 164 0 163 0;
#X connect 165 0 99 0;
#X connect 165 1 166 0;
#X connect 165 2 167 0;
#X connect 167 0 166 1;
#X connect 168 0 170 0;
#X connect 168 0 201 1;
#X connect 169 0 168 0;
#X connect 170 0 173 1;
#X connect 173 0 175 0;
#X connect 174 0 173 2;
#X connect 175 0 177 0;
#X connect 176 0 175 0;
#X connect 177 0 102 0;
#X connect 177 1 178 0;
#X connect 177 2 179 0;
#X connect 179 0 178 1;
#X connect 180 0 183 0;
#X connect 180 0 34 3;
#X connect 181 0 180 0;
#X connect 182 0 181 1;
#X connect 183 0 185 0;
#X connect 184 0 183 2;
#X connect 185 0 187 0;
#X connect 186 0 185 0;
#X connect 187 0 189 0;
#X connect 187 1 188 0;
#X connect 187 2 190 0;
#X connect 189 0 181 0;
#X connect 190 0 188 1;
#X connect 191 0 193 0;
#X connect 192 0 191 2;
#X connect 193 0 195 0;
#X connect 194 0 193 0;
#X connect 195 0 108 0;
#X connect 195 1 196 0;
#X connect 195 2 197 0;
#X connect 197 0 196 1;
#X connect 198 0 201 0;
#X connect 198 0 34 4;
#X connect 199 0 198 0;
#X connect 200 0 199 1;
#X connect 201 0 203 0;
#X connect 202 0 201 2;
#X connect 203 0 205 0;
#X connect 204 0 203 0;
#X connect 205 0 207 0;
#X connect 205 1 206 0;
#X connect 205 2 208 0;
#X connect 207 0 199 0;
#X connect 208 0 206 1;
#X connect 209 0 60 0;
#X connect 210 0 45 0;
#X connect 211 0 59 0;
#X connect 212 0 214 0;
#X connect 213 0 215 0;
#X connect 214 0 4 0;
#X connect 215 0 11 0;
