#N canvas 1358 375 600 571 16;
#X obj 181 275 osc~;
#X obj 245 149 osc~;
#X obj 181 335 *~;
#X obj 182 397 dac~;
#X obj 331 344 line~;
#X obj 422 87 vsl 23 196 0 1 0 0 empty empty empty 0 -9 0 16 #fcfcfc #000000 #000000 0 1;
#X msg 331 296 \$1 30;
#X obj 245 197 *~;
#X obj 181 227 +~;
#X floatatom 244 104 5 0 0 0 - - - 0;
#X obj 294 82 osc~;
#X floatatom 293 37 5 0 0 0 - - - 0;
#X floatatom 351 156 5 0 0 0 - - - 0;
#X obj 294 192 *~;
#X obj 181 179 sig~ 140;
#X connect 0 0 2 0;
#X connect 1 0 7 0;
#X connect 2 0 3 0;
#X connect 2 0 3 1;
#X connect 4 0 2 1;
#X connect 5 0 6 0;
#X connect 6 0 4 0;
#X connect 7 0 8 1;
#X connect 8 0 0 0;
#X connect 9 0 1 0;
#X connect 10 0 13 0;
#X connect 11 0 10 0;
#X connect 12 0 13 1;
#X connect 13 0 7 1;
#X connect 14 0 8 0;
