#N canvas 340 82 981 1250 16;
#X text 17 17 Standardize array values using z-score normalization;
#X obj 32 244 array_std, f 33;
#X msg 613 154 0;
#X obj 381 312 t f;
#X obj 360 363 f 1;
#X obj 359 408 until;
#X obj 359 495 f 0;
#X obj 410 498 + 1;
#X obj 395 668 array get;
#X obj 306 115 t b s b b, f 39;
#X msg 520 208 1;
#X obj 389 823 -;
#X obj 387 883 /;
#X obj 358 569 t f f;
#X obj 536 983 array set, f 10;
#X obj 614 189 send \$0_z_reset;
#X obj 381 454 r \$0_z_reset;
#X obj 423 713 r \$0_z_reset;
#X obj 409 157 send \$0_z_arr_name;
#X obj 31 203 r \$0_z_arr_name;
#X obj 496 617 r \$0_z_arr_name;
#X obj 162 282 send \$0_z_mean;
#X obj 32 282 send \$0_z_std;
#X obj 431 754 r \$0_z_mean;
#X obj 435 851 r \$0_z_std;
#X obj 702 58 inlet norm_name;
#X obj 303 66 inlet orig_name;
#X obj 702 100 send \$0_z_arr_norm_name;
#X obj 613 935 r \$0_z_arr_norm_name;
#X obj 97 1001 r \$0_z_std;
#X obj 242 1001 r \$0_z_mean;
#X obj 97 1056 outlet std;
#X obj 242 1056 outlet mean;
#X connect 1 0 22 0;
#X connect 1 1 21 0;
#X connect 1 2 3 0;
#X connect 2 0 15 0;
#X connect 3 0 4 1;
#X connect 4 0 5 0;
#X connect 5 0 6 0;
#X connect 6 0 7 0;
#X connect 6 0 13 0;
#X connect 7 0 6 1;
#X connect 8 0 11 0;
#X connect 9 0 4 0;
#X connect 9 1 18 0;
#X connect 9 2 10 0;
#X connect 9 3 2 0;
#X connect 10 0 8 1;
#X connect 11 0 12 0;
#X connect 12 0 14 0;
#X connect 13 0 8 0;
#X connect 13 1 14 1;
#X connect 16 0 6 1;
#X connect 17 0 11 1;
#X connect 19 0 1 0;
#X connect 20 0 8 2;
#X connect 23 0 11 1;
#X connect 24 0 12 1;
#X connect 25 0 27 0;
#X connect 26 0 9 0;
#X connect 28 0 14 2;
#X connect 29 0 31 0;
#X connect 30 0 32 0;
