#N canvas 1314 367 600 571 16;
#X obj 79 23 inlet name;
#X obj 198 106 array size;
#X obj 75 133 array sum;
#X obj 78 62 t b s b s, f 25;
#X obj 75 178 /, f 16;
#X obj 75 226 outlet;
#X obj 198 141 t f f;
#X obj 235 225 outlet;
#X connect 0 0 3 0;
#X connect 1 0 6 0;
#X connect 2 0 4 0;
#X connect 3 0 2 0;
#X connect 3 1 2 2;
#X connect 3 2 1 0;
#X connect 3 3 1 1;
#X connect 4 0 5 0;
#X connect 6 0 4 1;
#X connect 6 1 7 0;
