#N canvas 1350 121 1500 1234 16;
#X obj 282 25 inlet arr_one_name;
#X obj 651 25 inlet arr_two_name;
#X obj 651 106 t s s;
#X obj 215 614 array get;
#X obj 354 172 array size;
#X obj 333 241 f 1;
#X obj 333 303 until;
#X obj 333 384 f 0;
#X obj 384 387 + 1;
#X obj 354 343 r \$0_el_prod_reset;
#X msg 69 223 1;
#X obj 333 447 t f f f;
#X obj 619 608 array get;
#X obj 392 694 *;
#X obj 395 758 +;
#X obj 395 827 f;
#X obj 395 891 f;
#X obj 204 737 sel \$1;
#X obj 354 209 t f f;
#X obj 161 666 - 1;
#X obj 395 954 outlet;
#X obj 451 719 r \$0_el_prod_reset;
#X obj 449 779 r \$0_el_prod_reset;
#X obj 74 32 inlet;
#X obj 77 89 t b b b;
#X obj 139 167 s \$0_el_prod_reset;
#X msg 136 136 0;
#X obj 282 73 t s b s, f 28;
#X connect 0 0 27 0;
#X connect 1 0 2 0;
#X connect 2 1 12 2;
#X connect 3 0 13 0;
#X connect 4 0 18 0;
#X connect 5 0 6 0;
#X connect 6 0 7 0;
#X connect 7 0 8 0;
#X connect 7 0 11 0;
#X connect 8 0 7 1;
#X connect 9 0 7 1;
#X connect 10 0 3 1;
#X connect 10 0 12 1;
#X connect 11 0 17 0;
#X connect 11 1 3 0;
#X connect 11 2 12 0;
#X connect 12 0 13 1;
#X connect 13 0 14 0;
#X connect 14 0 15 0;
#X connect 15 0 14 1;
#X connect 15 0 16 1;
#X connect 16 0 20 0;
#X connect 17 0 16 0;
#X connect 18 0 5 1;
#X connect 18 1 19 0;
#X connect 19 0 17 1;
#X connect 21 0 14 1;
#X connect 22 0 15 1;
#X connect 23 0 24 0;
#X connect 24 0 5 0;
#X connect 24 1 10 0;
#X connect 24 2 26 0;
#X connect 26 0 25 0;
#X connect 27 0 3 2;
#X connect 27 1 4 0;
#X connect 27 2 4 1;
