#N canvas 572 365 1372 732 16;
#X obj 405 63 inlet arr_1;
#X obj 580 63 inlet arr_2;
#X obj 757 63 inlet arr_3;
#X obj 931 63 inlet arr_4;
#X obj 161 63 inlet index;
#X obj 336 296 array get;
#X obj 511 296 array get;
#X obj 687 296 array get;
#X obj 862 296 array get;
#X obj 161 113 t b f f f f b, f 110;
#X msg 1038 182 1;
#X obj 336 418 pack f f f f, f 66;
#X obj 336 475 outlet;
#X connect 0 0 5 2;
#X connect 1 0 6 2;
#X connect 2 0 7 2;
#X connect 3 0 8 2;
#X connect 4 0 9 0;
#X connect 5 0 11 0;
#X connect 6 0 11 1;
#X connect 7 0 11 2;
#X connect 8 0 11 3;
#X connect 9 1 5 0;
#X connect 9 2 6 0;
#X connect 9 3 7 0;
#X connect 9 4 8 0;
#X connect 9 5 10 0;
#X connect 10 0 5 1;
#X connect 10 0 6 1;
#X connect 10 0 7 1;
#X connect 10 0 8 1;
#X connect 11 0 12 0;
