#N canvas 417 70 957 1229 16;
#X obj 58 103 inlet name, f 26;
#X obj 160 321 array_mean, f 12;
#X text 10 6 For each value in the list: Subtract the mean from the value Square the result Sum all the squared differences Divide by n (or n-1) where n is the length of the list Take the square root of the result;
#X obj 38 428 array get;
#X obj 335 448 until, f 10;
#X msg 263 195 0;
#X obj 335 535 f 0;
#X obj 386 538 + 1;
#X obj 336 405 f;
#X obj 58 152 t b s s b b, f 26;
#X msg 211 197 1;
#X obj 38 569 -;
#X obj 38 632 pow 2;
#X obj 38 680 + 0, f 8;
#X obj 37 735 f 0, f 8;
#X obj 188 884 f 0, f 9;
#X obj 525 634 - 1;
#X obj 480 682 sel \$1;
#X obj 188 927 /, f 32;
#X obj 188 972 sqrt;
#X obj 335 611 t f f, f 10;
#X obj 101 633 t f f, f 11;
#X obj 357 362 t f f f f, f 32;
#X obj 160 365 t f f;
#X obj 188 1015 outlet std;
#X obj 351 1015 outlet mean;
#X obj 610 1015 outlet array_len;
#X obj 197 406 s \$0_std_mean;
#X obj 351 972 r \$0_std_mean;
#X obj 263 241 send \$0_std_reset;
#X obj 101 598 r \$0_std_reset;
#X obj 356 494 r \$0_std_reset;
#X obj 258 839 r \$0_std_reset;
#X connect 0 0 9 0;
#X connect 1 0 23 0;
#X connect 1 1 22 0;
#X connect 3 0 11 0;
#X connect 4 0 6 0;
#X connect 5 0 29 0;
#X connect 6 0 7 0;
#X connect 6 0 20 0;
#X connect 7 0 6 1;
#X connect 8 0 4 0;
#X connect 9 0 8 0;
#X connect 9 1 3 2;
#X connect 9 2 1 0;
#X connect 9 3 10 0;
#X connect 9 4 5 0;
#X connect 10 0 3 1;
#X connect 11 0 12 0;
#X connect 12 0 13 0;
#X connect 13 0 14 0;
#X connect 14 0 13 1;
#X connect 14 0 15 1;
#X connect 15 0 18 0;
#X connect 16 0 17 1;
#X connect 17 0 15 0;
#X connect 18 0 19 0;
#X connect 19 0 24 0;
#X connect 20 0 17 0;
#X connect 20 1 3 0;
#X connect 21 0 13 1;
#X connect 21 1 14 1;
#X connect 22 0 8 1;
#X connect 22 1 18 1;
#X connect 22 2 16 0;
#X connect 22 3 26 0;
#X connect 23 0 11 1;
#X connect 23 1 27 0;
#X connect 28 0 25 0;
#X connect 30 0 21 0;
#X connect 31 0 6 1;
#X connect 32 0 15 1;
