#N canvas 348 41 989 1076 16;
#X obj 56 133 inlet p_minuend;
#X obj 288 133 inlet p_subtrahend;
#X text 51 19 subtract the subtrahend from the minuend \; return the difference;
#X obj 501 642 array get;
#X obj 333 342 s \$0_arr_sub_n_p;
#X msg 334 308 1;
#X obj 538 591 r \$0_arr_sub_n_p;
#X obj 56 246 array size;
#X obj 61 358 f 1;
#X obj 60 407 until;
#X msg 431 223 0;
#X obj 430 261 s \$0_arr_sub_0;
#X obj 118 406 r \$0_arr_sub_0;
#X obj 59 461 f;
#X obj 113 461 + 1;
#X obj 221 860 array size;
#X obj 56 298 t f f;
#X obj 56 517 t f f f;
#X obj 242 653 array get;
#X obj 271 595 r \$0_arr_sub_n_p;
#X obj 56 184 t b b s s;
#X obj 379 733 -;
#X obj 474 703 r \$0_arr_sub_0;
#X obj 312 940 array set;
#X obj 596 132 inlet p_difference;
#X obj 286 182 t s s b b, f 28;
#X obj 593 188 t s s;
#X connect 0 0 20 0;
#X connect 1 0 25 0;
#X connect 3 0 21 1;
#X connect 5 0 4 0;
#X connect 6 0 3 1;
#X connect 7 0 16 0;
#X connect 8 0 9 0;
#X connect 9 0 13 0;
#X connect 10 0 11 0;
#X connect 12 0 13 1;
#X connect 13 0 14 0;
#X connect 13 0 17 0;
#X connect 14 0 13 1;
#X connect 16 0 8 1;
#X connect 16 1 15 0;
#X connect 17 0 18 0;
#X connect 17 1 3 0;
#X connect 17 2 23 1;
#X connect 18 0 21 0;
#X connect 19 0 18 1;
#X connect 20 0 8 0;
#X connect 20 1 7 0;
#X connect 20 2 18 2;
#X connect 20 3 7 1;
#X connect 21 0 23 0;
#X connect 22 0 21 1;
#X connect 24 0 26 0;
#X connect 25 1 3 2;
#X connect 25 2 5 0;
#X connect 25 3 10 0;
#X connect 26 0 15 1;
#X connect 26 1 23 2;
