#N canvas 1724 83 1204 578 16;
#X msg 102 103;
#X obj 130 53 inlet;
#X obj 99 176 print;
#X obj 337 127 nbx 5 21 -1e+37 1e+37 0 0 empty $_q empty 0 -12 0 16 #fcfcfc #000000 #000000 0 256;
#X connect 1 0 0 0;
#X connect 1 0 3 0;
#X connect 3 0 2 0;
#X coords 0 -1 1 1 120 30 2 100 100;
