#N canvas 584 605 1320 751 16;
#X obj 463 23 inlet dollar_zero;
#X msg 429 394 set \$1;
#X obj 599 394 f;
#X obj 429 468 list prepend;
#X obj 429 577 outlet;
#X msg 429 431;
#X msg 429 505 set \$1_\$2;
#X symbolatom 429 540 10 0 0 0 - - - 0;
#X obj 204 287 t b b b s;
#X symbolatom 108 128 27 0 0 0 - - - 0;
#X floatatom 332 128 5 0 0 0 - - - 0;
#X obj 336 99 bng 23 250 50 0 empty empty empty 0 -12 0 16 #fcfcfc #000000 #000000;
#X msg 107 175 set \$1;
#X symbolatom 107 221 10 0 0 0 - - - 0;
#X obj 138 27 inlet message;
#X obj 15 26 inlet bang;
#X connect 0 0 2 1;
#X connect 0 0 10 0;
#X connect 1 0 5 0;
#X connect 2 0 3 1;
#X connect 3 0 6 0;
#X connect 5 0 3 0;
#X connect 6 0 7 0;
#X connect 7 0 4 0;
#X connect 8 0 7 0;
#X connect 8 1 5 0;
#X connect 8 2 2 0;
#X connect 8 3 1 0;
#X connect 9 0 12 0;
#X connect 11 0 13 0;
#X connect 12 0 13 0;
#X connect 13 0 8 0;
#X connect 14 0 9 0;
#X connect 15 0 11 0;
#X coords 0 -1 1 1 280 60 1 100 100;
