#N canvas 316 530 1139 643 16;
#X obj 160 286 array size;
#X obj 280 70 inlet w_arr_name;
#X obj 790 73 inlet b_arr_name;
#X obj 667 289 array size;
#X obj 55 70 inlet initial_weights;
#X obj 56 133 t l l, f 13;
#X obj 160 202 list length;
#X obj 280 138 t s s;
#X obj 56 404 array set, f 33;
#X obj 583 74 inlet initial_biases;
#X obj 582 136 t l l, f 11;
#X obj 667 224 list length;
#X obj 790 128 t s s, f 14;
#X obj 582 418 array set, f 40;
#X connect 1 0 7 0;
#X connect 2 0 12 0;
#X connect 4 0 5 0;
#X connect 5 0 8 0;
#X connect 5 1 6 0;
#X connect 6 0 0 0;
#X connect 7 0 0 1;
#X connect 7 1 8 2;
#X connect 9 0 10 0;
#X connect 10 0 13 0;
#X connect 10 1 11 0;
#X connect 11 0 3 0;
#X connect 12 0 3 1;
#X connect 12 1 13 2;
