#N canvas 1022 -37 1639 1175 16;
#X obj 235 71 inlet p_x_0;
#X obj 478 71 inlet p_x_1;
#X obj 722 71 inlet p_x_2;
#X obj 967 71 inlet p_x_3;
#X obj 1335 71 inlet d_w;
#X obj 1130 71 inlet p_errors;
#X obj 235 290 array_element_wise_product;
#X obj 478 290 array_element_wise_product;
#X obj 722 290 array_element_wise_product;
#X obj 967 290 array_element_wise_product;
#X obj 234 787 pack f f f f, f 92;
#X obj 1211 340 array size;
#X obj 1131 119 t s s s s b s, f 20;
#X obj 590 609 t f f f f;
#X obj 234 727 /;
#X obj 478 727 /;
#X obj 722 727 /;
#X obj 967 727 /;
#X obj 1335 118 t s, f 10;
#X obj 1267 932 array set;
#X obj 32 74 inlet init;
#X obj 1192 384 f;
#X obj 38 168 t b b b b b, f 145;
#X connect 0 0 6 1;
#X connect 1 0 7 1;
#X connect 2 0 8 1;
#X connect 3 0 9 1;
#X connect 4 0 18 0;
#X connect 5 0 12 0;
#X connect 6 0 14 0;
#X connect 7 0 15 0;
#X connect 8 0 16 0;
#X connect 9 0 17 0;
#X connect 10 0 19 0;
#X connect 11 0 21 1;
#X connect 12 0 6 2;
#X connect 12 1 7 2;
#X connect 12 2 8 2;
#X connect 12 3 9 2;
#X connect 12 4 11 0;
#X connect 12 5 11 1;
#X connect 13 0 14 1;
#X connect 13 1 15 1;
#X connect 13 2 16 1;
#X connect 13 3 17 1;
#X connect 14 0 10 0;
#X connect 15 0 10 1;
#X connect 16 0 10 2;
#X connect 17 0 10 3;
#X connect 18 0 19 2;
#X connect 20 0 22 0;
#X connect 21 0 13 0;
#X connect 22 0 6 0;
#X connect 22 1 7 0;
#X connect 22 2 8 0;
#X connect 22 3 9 0;
#X connect 22 4 21 0;
