#N canvas 1671 643 600 571 16;
#X obj 218 104 inlet symbol_errors;
#X text 8 6 Implements the summation and averaging parts of (1 / m) * np.sum(Z - y);
#X obj 370 236 array size;
#X obj 218 236 array sum, f 10;
#X obj 349 335 /;
#X obj 242 496 array set;
#X obj 328 396 f;
#X obj 218 158 t b s b s, f 29;
#X obj 27 104 inlet symbol_db;
#X obj 27 158 t b s;
#X connect 0 0 7 0;
#X connect 2 0 4 1;
#X connect 3 0 4 0;
#X connect 4 0 6 1;
#X connect 6 0 5 0;
#X connect 7 0 3 0;
#X connect 7 1 3 2;
#X connect 7 2 2 0;
#X connect 7 3 2 1;
#X connect 8 0 9 0;
#X connect 9 0 6 0;
#X connect 9 1 5 2;
