#N canvas 1301 323 1158 997 16;
#X obj 309 52 inlet message;
#X obj 431 160 list length;
#X obj 406 331 until;
#X obj 406 383 f 0;
#X obj 456 383 + 1;
#X obj 406 435 t f f;
#X msg 443 486 get \$1;
#X obj 289 508 - 1;
#X obj 244 563 sel \$1;
#X obj 591 557 list store;
#X obj 528 658 f 0, f 6;
#X obj 591 607 + 0;
#X obj 353 725 f;
#X obj 422 785 /, f 9;
#X obj 422 837 outlet;
#X obj 309 104 t l l b, f 31;
#X msg 554 159 0;
#X obj 554 217 t f f f, f 15;
#X obj 405 292 f;
#X obj 405 214 t b l, f 16;
#X obj 578 840 outlet;
#X obj 211 213 t f f f f, f 17;
#X connect 0 0 15 0;
#X connect 1 0 21 0;
#X connect 2 0 3 0;
#X connect 3 0 4 0;
#X connect 3 0 5 0;
#X connect 4 0 3 1;
#X connect 5 0 8 0;
#X connect 5 1 6 0;
#X connect 6 0 9 0;
#X connect 7 0 8 1;
#X connect 8 0 12 0;
#X connect 9 0 11 0;
#X connect 10 0 11 1;
#X connect 10 0 12 1;
#X connect 11 0 10 0;
#X connect 12 0 13 0;
#X connect 13 0 14 0;
#X connect 15 0 19 0;
#X connect 15 1 1 0;
#X connect 15 2 16 0;
#X connect 16 0 17 0;
#X connect 17 0 10 1;
#X connect 17 1 11 1;
#X connect 17 2 3 1;
#X connect 18 0 2 0;
#X connect 19 0 18 0;
#X connect 19 1 9 1;
#X connect 21 0 7 0;
#X connect 21 1 18 1;
#X connect 21 2 13 1;
#X connect 21 3 20 0;
