#N canvas 1483 27 1264 1276 16;
#X obj 231 33 inlet message;
#X obj 184 265 list store, f 24;
#X obj 242 194 t b f f, f 14;
#X obj 112 517 f;
#X text 72 516 std;
#X obj 339 417 f;
#X text 297 416 mean;
#X text 402 163 list len;
#X obj 114 566 t b f;
#X obj 558 470 until;
#X obj 560 515 f 0;
#X obj 610 515 + 1;
#X obj 557 418 f 1;
#X msg 553 157 0;
#X obj 558 213 t f;
#X obj 365 708 list store, f 25;
#X msg 550 614 get \$1;
#X obj 365 753 -;
#X obj 92 380 t b b f, f 13;
#X obj 365 798 /;
#X obj 374 931 pack f f;
#X obj 445 1213 list store, f 31;
#X obj 240 90 t l l l l b, f 17;
#X obj 415 189 t f f;
#X obj 516 878 - 1;
#X text 590 417 list len;
#X obj 554 565 t f f f;
#X msg 407 1031 set 6 -0.866022;
#X obj 365 850 t b b f;
#X msg 374 980 set set \$1 \$2;
#X obj 408 1079 t a a;
#X obj 489 1074 route set;
#X obj 491 1118 route, f 13;
#X obj 491 1160 t b;
#X text 549 880 last index;
#X obj 223 1295 outlet normalized;
#X obj 776 1295 outlet mean;
#X obj 969 1293 outlet std;
#X obj 239 139 list_mean;
#X obj 180 329 list_std;
#X connect 0 0 22 0;
#X connect 1 0 39 0;
#X connect 2 0 1 0;
#X connect 2 1 39 1;
#X connect 2 2 5 1;
#X connect 3 0 8 0;
#X connect 3 0 37 0;
#X connect 5 0 17 1;
#X connect 5 0 36 0;
#X connect 8 0 12 0;
#X connect 8 1 19 1;
#X connect 9 0 10 0;
#X connect 10 0 11 0;
#X connect 10 0 26 0;
#X connect 11 0 10 1;
#X connect 12 0 9 0;
#X connect 13 0 14 0;
#X connect 14 0 10 1;
#X connect 15 0 17 0;
#X connect 16 0 15 0;
#X connect 17 0 19 0;
#X connect 18 0 3 0;
#X connect 18 1 5 0;
#X connect 18 2 3 1;
#X connect 19 0 28 0;
#X connect 20 0 29 0;
#X connect 21 0 35 0;
#X connect 22 0 38 0;
#X connect 22 1 1 1;
#X connect 22 2 15 1;
#X connect 22 3 21 1;
#X connect 22 4 13 0;
#X connect 23 0 24 0;
#X connect 23 1 12 1;
#X connect 24 0 32 1;
#X connect 26 0 16 0;
#X connect 26 1 20 0;
#X connect 27 0 30 0;
#X connect 28 0 27 0;
#X connect 28 1 20 0;
#X connect 28 2 20 1;
#X connect 29 0 27 0;
#X connect 30 0 31 0;
#X connect 30 1 21 0;
#X connect 31 0 32 0;
#X connect 32 0 33 0;
#X connect 33 0 21 0;
#X connect 38 0 2 0;
#X connect 38 1 23 0;
#X connect 39 0 18 0;
