#N canvas 0 -40 600 571 16;
#X obj 88 142 inlet message;
#X obj 592 142 inlet mean;
#X obj 571 286 f 1;
#X obj 211 253 list length;
#X obj 101 253 t b l;
#X obj 211 312 t f f f;
#X obj 229 433 until;
#X obj 227 497 f 0;
#X obj 277 497 + 1;
#X obj 227 556 t f f;
#X msg 264 600 get \$1;
#X obj 224 374 f 1;
#X obj 220 684 list store, f 20;
#X obj 220 737 -;
#X obj 88 195 t l l b b, f 28;
#X msg 343 271 0;
#X obj 343 324 t f f f, f 22;
#X obj 226 797 pow 2;
#X obj 226 850 + 0;
#X obj 153 922 f 0, f 12;
#X obj 132 974 f;
#X obj 89 556 - 1;
#X obj 37 684 sel \$1;
#X obj 154 1050 /;
#X obj 154 1103 sqrt;
#X text 44 21 For each value in the list: Subtract the mean from the value Square the result Sum all the squared differences Divide by n (or n-1) where n is the length of the list Take the square root of the result;
#X obj 154 1156 outlet;
#X connect 0 0 14 0;
#X connect 1 0 2 1;
#X connect 2 0 13 1;
#X connect 3 0 5 0;
#X connect 4 0 11 0;
#X connect 4 1 12 1;
#X connect 5 0 23 1;
#X connect 5 1 21 0;
#X connect 5 2 11 1;
#X connect 6 0 7 0;
#X connect 7 0 8 0;
#X connect 7 0 9 0;
#X connect 8 0 7 1;
#X connect 9 0 22 0;
#X connect 9 1 10 0;
#X connect 10 0 12 0;
#X connect 11 0 6 0;
#X connect 12 0 13 0;
#X connect 13 0 17 0;
#X connect 14 0 4 0;
#X connect 14 1 3 0;
#X connect 14 2 2 0;
#X connect 14 3 15 0;
#X connect 15 0 16 0;
#X connect 16 0 19 1;
#X connect 16 1 18 1;
#X connect 16 2 7 1;
#X connect 17 0 18 0;
#X connect 18 0 19 0;
#X connect 19 0 18 1;
#X connect 19 0 20 1;
#X connect 20 0 23 0;
#X connect 21 0 22 1;
#X connect 22 0 20 0;
#X connect 23 0 24 0;
#X connect 24 0 26 0;
