#N canvas 869 137 1240 1084 16;
#X obj 183 23 inlet pointer_z;
#X obj 685 28 inlet pointer_y;
#X obj 294 145 array size, f 28;
#X obj 312 533 array get, f 28;
#X obj 422 457 r \$0_mse_num_pts;
#X obj 183 243 f 1, f 10;
#X obj 183 73 t b b s s, f 42;
#X obj 183 287 until;
#X obj 183 368 f 0;
#X obj 236 376 + 1;
#X msg 795 135 0;
#X obj 183 427 t f f f;
#X obj 683 531 array get;
#X obj 717 441 r \$0_mse_num_pts;
#X obj 134 398 - 1;
#X obj 183 520 sel \$1;
#X obj 524 610 -;
#X obj 524 657 pow 2;
#X obj 524 704 + 0;
#X obj 524 764 f;
#X obj 484 812 f;
#X obj 294 201 t f f f;
#X obj 616 814 * 2;
#X obj 580 927 /;
#X obj 576 852 t b f;
#X msg 545 889 1;
#X obj 484 971 *;
#X obj 484 1013 outlet;
#X obj 583 668 r \$0_mse_reset;
#X obj 582 718 r \$0_mse_reset;
#X obj 685 115 s \$0_mse_l_p;
#X obj 752 485 r \$0_mse_l_p;
#X obj 405 114 s \$0_mse_z_p;
#X obj 533 489 r \$0_mse_z_p;
#X obj 347 240 s \$0_mse_m;
#X obj 616 768 r \$0_mse_m;
#X obj 224 333 r \$0_mse_reset;
#X obj 685 73 t s b b, f 28;
#X msg 945 127 1;
#X obj 945 171 s \$0_mse_num_pts;
#X obj 795 171 s \$0_mse_reset;
#X connect 0 0 6 0;
#X connect 1 0 37 0;
#X connect 2 0 21 0;
#X connect 3 0 16 0;
#X connect 4 0 3 1;
#X connect 5 0 7 0;
#X connect 6 0 5 0;
#X connect 6 1 2 0;
#X connect 6 2 32 0;
#X connect 6 3 2 1;
#X connect 7 0 8 0;
#X connect 8 0 9 0;
#X connect 8 0 11 0;
#X connect 9 0 8 1;
#X connect 10 0 40 0;
#X connect 11 0 15 0;
#X connect 11 1 3 0;
#X connect 11 2 12 0;
#X connect 12 0 16 1;
#X connect 13 0 12 1;
#X connect 14 0 15 1;
#X connect 15 0 20 0;
#X connect 16 0 17 0;
#X connect 17 0 18 0;
#X connect 18 0 19 0;
#X connect 19 0 18 1;
#X connect 19 0 20 1;
#X connect 20 0 26 0;
#X connect 21 0 5 1;
#X connect 21 1 14 0;
#X connect 21 2 34 0;
#X connect 22 0 24 0;
#X connect 23 0 26 1;
#X connect 24 0 25 0;
#X connect 24 1 23 1;
#X connect 25 0 23 0;
#X connect 26 0 27 0;
#X connect 28 0 18 1;
#X connect 29 0 19 1;
#X connect 31 0 12 2;
#X connect 33 0 3 2;
#X connect 35 0 22 0;
#X connect 36 0 8 1;
#X connect 37 0 30 0;
#X connect 37 1 10 0;
#X connect 37 2 38 0;
#X connect 38 0 39 0;
