#N canvas 4 70 1541 844 16;
#X obj 264 14 inlet f_1;
#X obj 495 14 inlet f_2;
#X obj 384 14 inlet w_1;
#X obj 621 14 inlet w_2;
#X obj 1139 14 inlet activation;
#X obj 706 531 expr if($f2 == 1 \, if($f1 > 0 \, $f1 \, 0) \, if($f2 == 2 \, tanh($f1) \, if($f2 == 3 \, 1 / (1 + exp(-1 * $f1)) \, $f1)));
#X obj 264 251 *;
#X obj 495 251 *;
#X obj 706 453 +;
#X obj 706 481 t f f, f 53;
#X obj 1139 44 route activation;
#X obj 1139 83 list append symbol;
#X msg 1139 175 1;
#X msg 1200 175 2;
#X msg 1261 175 3;
#X obj 1139 126 select relu tanh sigmoid linear;
#X msg 1322 175 4;
#X obj 349 363 +;
#X obj 727 14 inlet bias;
#X obj 32 14 inlet bang;
#X obj 243 124 f;
#X obj 474 124 f;
#X obj 328 395 f;
#X obj 706 689 outlet activation;
#X obj 1275 651 outlet z;
#X obj 243 284 f;
#X obj 474 284 f;
#X obj 32 467 t b b b b b, f 29;
#X obj 261 536 s \$0_nu2b_1;
#X obj 261 570 s \$0_nu2b_2;
#X obj 262 606 s \$0_nu2b_3;
#X obj 261 640 s \$0_nu2b_4;
#X obj 261 675 s \$0_nu2b_5;
#X obj 374 125 r \$0_nu2b_1;
#X obj 143 124 r \$0_nu2b_2;
#X obj 364 284 r \$0_nu2b_3;
#X obj 143 285 r \$0_nu2b_4;
#X obj 228 395 r \$0_nu2b_5;
#X connect 0 0 20 1;
#X connect 1 0 21 1;
#X connect 2 0 6 1;
#X connect 3 0 7 1;
#X connect 4 0 10 0;
#X connect 5 0 23 0;
#X connect 6 0 25 1;
#X connect 7 0 26 1;
#X connect 8 0 9 0;
#X connect 9 0 5 0;
#X connect 9 1 24 0;
#X connect 10 0 11 0;
#X connect 11 0 15 0;
#X connect 12 0 5 1;
#X connect 13 0 5 1;
#X connect 14 0 5 1;
#X connect 15 0 12 0;
#X connect 15 1 13 0;
#X connect 15 2 14 0;
#X connect 15 3 16 0;
#X connect 16 0 5 1;
#X connect 17 0 22 1;
#X connect 18 0 8 1;
#X connect 19 0 27 0;
#X connect 20 0 6 0;
#X connect 21 0 7 0;
#X connect 22 0 8 0;
#X connect 25 0 17 0;
#X connect 26 0 17 1;
#X connect 27 0 32 0;
#X connect 27 1 31 0;
#X connect 27 2 30 0;
#X connect 27 3 29 0;
#X connect 27 4 28 0;
#X connect 33 0 21 0;
#X connect 34 0 20 0;
#X connect 35 0 26 0;
#X connect 36 0 25 0;
#X connect 37 0 22 0;
