#N canvas 4 70 1940 1332 16;
#X obj 1419 21 inlet~ bias;
#X obj 1553 62 route activation;
#X obj 1553 101 list append symbol;
#X msg 1553 193 1;
#X msg 1614 193 2;
#X msg 1675 193 3;
#X msg 1736 193 4;
#X obj 144 776 expr~ if($v2 == 1 \, if($v1 > 0 \, $v1 \, 0) \, if($v2 == 2 \, tanh($v1) \, if($v2 == 3 \, 1 / (1 + exp(-1 * $v1)) \, $v1))), f 113;
#X obj 1553 144 select relu tanh sigmoid linear;
#X obj 1553 20 inlet activation;
#X obj 143 158 *~;
#X obj 143 466 +~;
#X obj 143 884 outlet~ activation;
#X obj 1268 831 outlet~ z;
#X obj 142 19 inlet~ f_1;
#X obj 328 19 inlet~ f_2;
#X obj 520 19 inlet~ f_3;
#X obj 724 19 inlet~ f_4;
#X obj 933 19 inlet~ f_5;
#X obj 327 158 *~;
#X obj 519 158 *~;
#X obj 723 158 *~;
#X obj 934 158 *~;
#X obj 234 19 inlet~ w_1;
#X obj 425 19 inlet~ w_2;
#X obj 622 19 inlet~ w_3;
#X obj 833 19 inlet~ w_4;
#X obj 1035 19 inlet~ w_5;
#X connect 0 0 11 1;
#X connect 1 0 2 0;
#X connect 2 0 8 0;
#X connect 3 0 7 1;
#X connect 4 0 7 1;
#X connect 5 0 7 1;
#X connect 6 0 7 1;
#X connect 7 0 12 0;
#X connect 8 0 3 0;
#X connect 8 1 4 0;
#X connect 8 2 5 0;
#X connect 8 3 6 0;
#X connect 9 0 1 0;
#X connect 10 0 11 0;
#X connect 11 0 7 0;
#X connect 11 0 13 0;
#X connect 14 0 10 0;
#X connect 15 0 19 0;
#X connect 16 0 20 0;
#X connect 17 0 21 0;
#X connect 18 0 22 0;
#X connect 19 0 11 0;
#X connect 20 0 11 0;
#X connect 21 0 11 0;
#X connect 22 0 11 0;
#X connect 23 0 10 1;
#X connect 24 0 19 1;
#X connect 25 0 20 1;
#X connect 26 0 21 1;
#X connect 27 0 22 1;
