#N canvas 148 529 1060 821 16;
#X obj 495 673 +~;
#X obj 495 707 expr~ tanh($v1);
#X obj 495 741 outlet~;
#X obj 59 455 *~ 0;
#X obj 87 112 bng 23 250 50 0 empty empty empty 0 -12 0 16 #fcfcfc #000000 #000000;
#X obj 87 140 random 200;
#X floatatom 88 224 5 0 0 0 - - - 0;
#X obj 88 251 vsl 23 196 -1 1 0 0 empty empty empty 0 -9 0 16 #c6feff #000000 #000000 0 1;
#X obj 88 196 - 1;
#X obj 87 168 * 0.01;
#X obj 189 455 *~ 0;
#X obj 217 112 bng 23 250 50 0 empty empty empty 0 -12 0 16 #fcfcfc #000000 #000000;
#X obj 217 140 random 200;
#X floatatom 218 224 5 0 0 0 - - - 0;
#X obj 218 251 vsl 23 196 -1 1 0 0 empty empty empty 0 -9 0 16 #c6feff #000000 #000000 0 1;
#X obj 218 196 - 1;
#X obj 217 168 * 0.01;
#X obj 329 455 *~ 0;
#X obj 357 112 bng 23 250 50 0 empty empty empty 0 -12 0 16 #fcfcfc #000000 #000000;
#X obj 357 140 random 200;
#X floatatom 358 224 5 0 0 0 - - - 0;
#X obj 358 251 vsl 23 196 -1 1 0 0 empty empty empty 0 -9 0 16 #c6feff #000000 #000000 0 1;
#X obj 358 196 - 1;
#X obj 357 168 * 0.01;
#X obj 459 455 *~ 0;
#X obj 487 112 bng 23 250 50 0 empty empty empty 0 -12 0 16 #fcfcfc #000000 #000000;
#X obj 487 140 random 200;
#X floatatom 488 224 5 0 0 0 - - - 0;
#X obj 488 251 vsl 23 196 -1 1 0 0 empty empty empty 0 -9 0 16 #c6feff #000000 #000000 0 1;
#X obj 488 196 - 1;
#X obj 487 168 * 0.01;
#X obj 589 455 *~ 0;
#X obj 617 112 bng 23 250 50 0 empty empty empty 0 -12 0 16 #fcfcfc #000000 #000000;
#X obj 617 140 random 200;
#X floatatom 618 224 5 0 0 0 - - - 0;
#X obj 618 251 vsl 23 196 -1 1 0 0 empty empty empty 0 -9 0 16 #c6feff #000000 #000000 0 1;
#X obj 618 196 - 1;
#X obj 617 168 * 0.01;
#X obj 795 178 bng 23 250 50 0 empty empty empty 0 -12 0 16 #fcfcfc #000000 #000000;
#X floatatom 796 290 5 0 0 0 - - - 0;
#X obj 796 317 vsl 23 196 -1 1 0 0 empty empty empty 0 -9 0 16 #feffc6 #000000 #000000 0 1;
#X obj 795 234 * 0.01;
#X obj 795 206 random 20;
#X obj 796 262 - 0.1;
#X text 830 373 bias;
#X obj 796 549 print;
#X obj 87 84 r randomize;
#X obj 217 84 r randomize;
#X obj 357 84 r randomize;
#X obj 487 84 r randomize;
#X obj 617 84 r randomize;
#X obj 795 150 r randomize;
#X obj 59 53 inlet~;
#X obj 189 53 inlet~;
#X obj 329 53 inlet~;
#X obj 459 53 inlet~;
#X obj 589 53 inlet~;
#X connect 0 0 1 0;
#X connect 1 0 2 0;
#X connect 3 0 0 0;
#X connect 4 0 5 0;
#X connect 5 0 9 0;
#X connect 6 0 7 0;
#X connect 7 0 3 1;
#X connect 8 0 6 0;
#X connect 9 0 8 0;
#X connect 10 0 0 0;
#X connect 11 0 12 0;
#X connect 12 0 16 0;
#X connect 13 0 14 0;
#X connect 14 0 10 1;
#X connect 15 0 13 0;
#X connect 16 0 15 0;
#X connect 17 0 0 0;
#X connect 18 0 19 0;
#X connect 19 0 23 0;
#X connect 20 0 21 0;
#X connect 21 0 17 1;
#X connect 22 0 20 0;
#X connect 23 0 22 0;
#X connect 24 0 0 0;
#X connect 25 0 26 0;
#X connect 26 0 30 0;
#X connect 27 0 28 0;
#X connect 28 0 24 1;
#X connect 29 0 27 0;
#X connect 30 0 29 0;
#X connect 31 0 0 0;
#X connect 32 0 33 0;
#X connect 33 0 37 0;
#X connect 34 0 35 0;
#X connect 35 0 31 1;
#X connect 36 0 34 0;
#X connect 37 0 36 0;
#X connect 38 0 42 0;
#X connect 39 0 40 0;
#X connect 40 0 0 1;
#X connect 40 0 45 0;
#X connect 41 0 43 0;
#X connect 42 0 41 0;
#X connect 43 0 39 0;
#X connect 46 0 4 0;
#X connect 47 0 11 0;
#X connect 48 0 18 0;
#X connect 49 0 25 0;
#X connect 50 0 32 0;
#X connect 51 0 38 0;
#X connect 52 0 3 0;
#X connect 53 0 10 0;
#X connect 54 0 17 0;
#X connect 55 0 24 0;
#X connect 56 0 31 0;
