#N canvas 1714 70 1722 1332 16;
#X obj 142 59 inlet~ signal;
#X obj 623 58 inlet~ bias;
#X obj 363 59 inlet~ weight;
#X obj 783 99 route activation;
#X obj 783 138 list append symbol;
#X msg 783 230 1;
#X msg 844 230 2;
#X msg 905 230 3;
#X msg 966 230 4;
#X obj 144 406 expr~ if($v2 == 1 \, if($v1 > 0 \, $v1 \, 0) \, if($v2 == 2 \, tanh($v1) \, if($v2 == 3 \, 1 / (1 + exp(-1 * $v1)) \, $v1)));
#X obj 783 181 select relu tanh sigmoid linear;
#X obj 783 57 inlet activation;
#X obj 143 198 *~;
#X obj 143 226 +~;
#X obj 143 514 outlet~ activation;
#X obj 908 514 outlet~ z;
#X connect 0 0 12 0;
#X connect 1 0 13 1;
#X connect 2 0 12 1;
#X connect 3 0 4 0;
#X connect 4 0 10 0;
#X connect 5 0 9 1;
#X connect 6 0 9 1;
#X connect 7 0 9 1;
#X connect 8 0 9 1;
#X connect 9 0 14 0;
#X connect 10 0 5 0;
#X connect 10 1 6 0;
#X connect 10 2 7 0;
#X connect 10 3 8 0;
#X connect 11 0 3 0;
#X connect 12 0 13 0;
#X connect 13 0 9 0;
#X connect 13 0 15 0;
