#N canvas 649 152 2167 1191 16;
#X obj 130 48 inlet symbol_w;
#X obj 505 43 inlet symbol_x_0;
#X obj 761 48 inlet symbol_x_1;
#X obj 1003 46 inlet symbol_x_2;
#X obj 1251 48 inlet symbol_x_3;
#X obj 1438 51 inlet symbol_b;
#X obj 1438 210 array get, f 13;
#X msg 1442 164 0;
#X obj 508 117 t s b s, f 29;
#X obj 620 209 array size, f 17;
#X obj 128 125 t b b s;
#X obj 560 253 f 1, f 8;
#X obj 560 310 until, f 9;
#X obj 560 393 f, f 5;
#X obj 618 402 + 1, f 5;
#X obj 1635 183 s \$0_prop_4_reset;
#X msg 1635 156 0;
#X obj 618 354 r \$0_prop_4_reset;
#X obj 267 484 array_slice_to_list_4, f 124;
#X obj 128 274 - 1;
#X obj 1438 109 t b b s b, f 25;
#X msg 1494 172 1;
#X obj 266 567 array set tmp_slice;
#X obj 70 682 array_element_wise_product;
#X obj 1795 36 inlet symbol_z_7;
#X obj 424 782 +;
#X obj 424 886 array set, f 174;
#X obj 167 420 t b f f;
#X obj 275 49 inlet symbol_tmp_slice;
#X connect 0 0 10 0;
#X connect 1 0 8 0;
#X connect 2 0 18 2;
#X connect 3 0 18 3;
#X connect 4 0 18 4;
#X connect 5 0 20 0;
#X connect 6 0 25 1;
#X connect 7 0 6 0;
#X connect 8 0 18 1;
#X connect 8 1 9 0;
#X connect 8 2 9 1;
#X connect 9 0 11 1;
#X connect 10 1 11 0;
#X connect 10 2 23 1;
#X connect 11 0 12 0;
#X connect 12 0 13 0;
#X connect 13 0 14 0;
#X connect 13 0 19 0;
#X connect 14 0 13 1;
#X connect 16 0 15 0;
#X connect 17 0 14 0;
#X connect 18 0 22 0;
#X connect 19 0 27 0;
#X connect 20 0 7 0;
#X connect 20 1 21 0;
#X connect 20 2 6 2;
#X connect 20 3 16 0;
#X connect 21 0 6 1;
#X connect 23 0 25 0;
#X connect 24 0 26 2;
#X connect 25 0 26 0;
#X connect 27 0 23 0;
#X connect 27 1 26 1;
#X connect 27 2 18 0;
#X connect 28 0 23 2;
