#N canvas 1914 140 1396 827 16;
#X obj 64 70 inlet update;
#X obj 204 69 inlet symbol_weights_4;
#X obj 586 66 inlet symbol_bias_1;
#X obj 403 68 inlet symbol_d_w_4;
#X obj 776 65 inlet symbol_d_b;
#X obj 956 66 inlet symbol_learning_rate;
#N canvas 139 74 1488 1290 update_weights 0;
#X obj 803 27 inlet symbol_d_w_4;
#X obj 360 26 inlet symbol_weights_4;
#X obj 1046 24 inlet symbol_learning_rate;
#X obj 21 26 inlet update;
#X obj 1046 158 array get, f 25;
#X obj 1046 75 t b b s, f 25;
#X msg 1142 117 1;
#X msg 1046 117 0;
#X obj 1005 1018 f, f 6;
#X obj 780 796 array get, f 12;
#X msg 826 744 1;
#X obj 360 330 array size, f 23;
#X obj 330 397 f 1;
#X obj 330 452 until;
#X obj 330 511 f;
#X obj 399 513 + 1;
#X obj 22 77 t b b, f 12;
#X obj 112 172 s \$0_update_weights_reset;
#X msg 110 129 0;
#X obj 397 452 r \$0_update_weights_reset;
#X obj 354 812 array get, f 25;
#X msg 485 752 1, f 4;
#X obj 674 1251 array set;
#X obj 803 78 t b s, f 10;
#X obj 360 78 t s b s b s, f 23;
#X obj 679 1021 f;
#X obj 341 1036 f;
#X obj 826 1100 *;
#X obj 792 1165 -;
#X obj 214 587 t b f f f, f 27;
#X obj 216 872 t b b b, f 99;
#X connect 0 0 23 0;
#X connect 1 0 24 0;
#X connect 2 0 5 0;
#X connect 3 0 16 0;
#X connect 4 0 8 1;
#X connect 5 0 7 0;
#X connect 5 1 6 0;
#X connect 5 2 4 2;
#X connect 6 0 4 1;
#X connect 7 0 4 0;
#X connect 8 0 27 1;
#X connect 9 0 25 1;
#X connect 10 0 9 1;
#X connect 11 0 12 1;
#X connect 12 0 13 0;
#X connect 13 0 14 0;
#X connect 14 0 15 0;
#X connect 14 0 29 0;
#X connect 15 0 14 1;
#X connect 16 0 12 0;
#X connect 16 1 18 0;
#X connect 18 0 17 0;
#X connect 19 0 14 1;
#X connect 20 0 26 1;
#X connect 21 0 20 1;
#X connect 23 0 10 0;
#X connect 23 1 9 2;
#X connect 24 0 22 2;
#X connect 24 1 21 0;
#X connect 24 2 20 2;
#X connect 24 3 11 0;
#X connect 24 4 11 1;
#X connect 25 0 27 0;
#X connect 26 0 28 0;
#X connect 27 0 28 1;
#X connect 28 0 22 0;
#X connect 29 0 30 0;
#X connect 29 1 20 0;
#X connect 29 2 9 0;
#X connect 29 3 22 1;
#X connect 30 0 26 0;
#X connect 30 1 25 0;
#X connect 30 2 8 0;
#X restore 64 389 pd update_weights;
#X f 61;
#X obj 64 115 t b b, f 12;
#X obj 956 117 t s s, f 26;
#N canvas 0 0 600 490 update_biases 0;
#X obj 43 59 inlet init;
#X obj 207 59 inlet symbol_bias_1;
#X obj 927 59 inlet symbol_learning_rate;
#X obj 927 181 array get, f 25;
#X obj 927 98 t b b s, f 25;
#X msg 1023 140 1;
#X msg 927 140 0;
#X obj 906 331 f;
#X obj 542 201 array get, f 23;
#X msg 632 164 1;
#X obj 513 338 f, f 4;
#X obj 199 194 array get, f 20;
#X msg 277 158 1;
#X obj 170 333 f, f 4;
#X msg 542 166 0;
#X obj 542 109 t b b s, f 23;
#X obj 207 113 t s b b s, f 19;
#X msg 199 157 0;
#X obj 901 664 array set, f 31;
#X obj 43 254 t b b b b, f 155;
#X msg 1023 486 0;
#X obj 698 424 *;
#X obj 677 503 -;
#X obj 542 59 inlet symbol_d_b;
#X connect 0 0 19 0;
#X connect 1 0 16 0;
#X connect 2 0 4 0;
#X connect 3 0 7 1;
#X connect 4 0 6 0;
#X connect 4 1 5 0;
#X connect 4 2 3 2;
#X connect 5 0 3 1;
#X connect 6 0 3 0;
#X connect 7 0 21 1;
#X connect 8 0 10 1;
#X connect 9 0 8 1;
#X connect 10 0 21 0;
#X connect 11 0 13 1;
#X connect 12 0 11 1;
#X connect 13 0 22 0;
#X connect 14 0 8 0;
#X connect 15 0 14 0;
#X connect 15 1 9 0;
#X connect 15 2 8 2;
#X connect 16 0 18 2;
#X connect 16 1 17 0;
#X connect 16 2 12 0;
#X connect 16 3 11 2;
#X connect 17 0 11 0;
#X connect 19 0 13 0;
#X connect 19 1 10 0;
#X connect 19 2 7 0;
#X connect 19 3 20 0;
#X connect 20 0 18 1;
#X connect 21 0 22 1;
#X connect 22 0 18 0;
#X connect 23 0 15 0;
#X restore 668 394 pd update_biases;
#X f 62;
#X connect 0 0 7 0;
#X connect 1 0 6 1;
#X connect 2 0 9 1;
#X connect 3 0 6 2;
#X connect 4 0 9 2;
#X connect 5 0 8 0;
#X connect 7 0 6 0;
#X connect 7 1 9 0;
#X connect 8 0 6 3;
#X connect 8 1 9 3;
