#N canvas 8 70 3428 1332 16;
#X obj 79 390 array define foo 4;
#X obj 83 453 array define bar 4;
#X obj 82 512 array define baz 4;
#X obj 102 966 array set;
#X msg 88 900 1 2 3 4;
#X msg 234 903 symbol foo;
#X msg 109 1017 5 6 7 8;
#X msg 205 1015 symbol bar;
#X obj 124 1075 array set;
#X obj 152 1211 array set;
#X msg 94 1155 9 10 11 12;
#X msg 223 1157 symbol baz;
#X msg 817 70 list foo bar baz;
#X floatatom 980 77 5 0 0 0 - - - 0;
#N canvas 1426 305 1106 811 arr.slice 0;
#X obj 325 99 inlet;
#X obj 465 373 list split 1, f 24;
#X obj 449 487 array get;
#X msg 483 458 1;
#X obj 559 404 list prepend set;
#X obj 559 432 list trim;
#X msg 559 460;
#X obj 559 488 list;
#X obj 449 525 outlet;
#X obj 465 401 t b b b s;
#X obj 489 99 inlet index;
#X msg 348 405 set \$1;
#X msg 348 450 1;
#X connect 0 0 1 0;
#X connect 1 0 9 0;
#X connect 1 1 4 0;
#X connect 2 0 8 0;
#X connect 3 0 2 1;
#X connect 4 0 5 0;
#X connect 5 0 6 0;
#X connect 6 0 7 0;
#X connect 7 0 1 0;
#X connect 9 0 6 0;
#X connect 9 1 12 0;
#X connect 9 2 3 0;
#X connect 9 3 2 2;
#X connect 10 0 11 0;
#X connect 11 0 12 0;
#X connect 12 0 2 0;
#X restore 818 137 pd arr.slice;
#X obj 85 577 array define feature_0 3;
#X obj 813 196 pack f f f;
#X obj 1204 213 arr.slice 8;
#X connect 4 0 3 0;
#X connect 5 0 3 2;
#X connect 6 0 8 0;
#X connect 7 0 8 2;
#X connect 10 0 9 0;
#X connect 11 0 9 2;
#X connect 12 0 14 0;
#X connect 13 0 14 1;
