#N canvas 6 42 3428 1363 16;
#X msg 93 353 symbol weights_4;
#X msg 241 418 symbol bias_1;
#X obj 20 461 initialize_params, f 28;
#X obj 21 652 array set z_7;
#X msg 21 603 0 0 0 0 0 0 0;
#N canvas 1717 676 600 571 inputs_and_labels 0;
#X text 19 232 labels (7th of the triad);
#X text 26 12 x_0 x_1 x_2 x_3 y;
#X msg 20 113 64 65 67 69 71 72 74;
#X msg 19 70 60 62 64 65 67 69 71;
#X msg 19 153 67 69 71 72 74 76 77;
#X msg 19 193 71 72 74 76 77 79 81;
#X msg 19 270 72 74 76 77 79 81 83;
#X restore 23 25 pd inputs_and_labels;
#N canvas -39 -74 600 571 array_definitions 0;
#X obj 77 47 array define -k input_x_0;
#A resize 7;
#A 0 60 62 64 65 67 69 71;
#X obj 77 96 array define -k input_x_1;
#A resize 7;
#A 0 64 65 67 69 71 72 74;
#X obj 77 145 array define -k input_x_2;
#A resize 7;
#A 0 67 69 71 72 74 76 77;
#X obj 77 194 array define -k input_x_3;
#A resize 7;
#A 0 71 72 74 76 77 79 81;
#X obj 328 47 array define -k input_x_0_norm;
#A resize 7;
#A 0 -1.51637 -0.957705 -0.399044 -0.119714 0.438947 0.997608 1.55627;
#X obj 328 96 array define -k input_x_1_norm;
#A resize 7;
#A 0 -1.41177 -1.12111 -0.539795 0.0415237 0.622842 0.913501 1.49482;
#X obj 328 145 array define -k input_x_2_norm;
#A resize 7;
#A 0 -1.56915 -0.975417 -0.381685 -0.0848186 0.508914 1.10265 1.39951;
#X obj 328 194 array define -k input_x_3_norm;
#A resize 7;
#A 0 -1.39951 -1.10265 -0.508914 0.0848186 0.381685 0.975417 1.56915;
#X obj 77 341 array define -k weights_4;
#A resize 4;
#A 0 0.913094 -0.0295848 0.0666837 0.049899;
#X obj 77 390 array define -k bias_1;
#A resize 1;
#A 0 -4.63968e-08;
#X obj 77 243 array define -k labels_7;
#A resize 7;
#A 0 72 74 76 77 79 81 83;
#X obj 328 243 array define -k labels_7_norm;
#A resize 7;
#A 0 -1.51637 -0.957705 -0.399044 -0.119714 0.438947 0.997608 1.55627;
#X obj 77 537 array define tmp_slice 4;
#X obj 77 292 array define -k z_7 7;
#A 0 -1.51729 -0.961372 -0.399242 -0.111962 0.435355 1.00609 1.54842;
#X obj 77 439 array define -k d_w_4 4;
#A 0 -0.000181764 -5.47257e-05 0.000139707 9.64351e-05;
#X obj 77 586 array define prediction_errors;
#X obj 77 488 array define -k d_b 1;
#A 0 8.51495e-09;
#X text 620 16 hyperparameters;
#X obj 620 47 array define -k learning_rate 1;
#A 0 0.01;
#X restore 24 70 pd array_definitions;
#N canvas 544 106 1977 1275 initialize_static_arrays 0;
#X obj 45 23 loadbang;
#X obj 34 395 list_to_array;
#X msg 135 355 symbol input_x_0;
#X obj 294 395 list_to_array;
#X msg 395 355 symbol input_x_1;
#X obj 559 395 list_to_array;
#X obj 855 395 list_to_array;
#X msg 660 355 symbol input_x_2;
#X msg 956 355 symbol input_x_3;
#X obj 370 118 s \$0_initialize_arrays;
#X obj 34 196 r \$0_initialize_arrays;
#X obj 34 248 t b b b b b b b b, f 132;
#X obj 30 468 r \$0_initialize_arrays;
#X obj 30 644 list_to_array;
#X msg 131 604 symbol labels_7;
#X obj 30 516 t b b, f 28;
#X obj 32 893 list_to_array;
#X obj 333 902 list_to_array;
#X obj 684 900 list_to_array;
#X obj 971 897 list_to_array;
#X msg 133 853 symbol input_x_0_norm;
#X msg 434 862 symbol input_x_1_norm;
#X msg 785 860 symbol input_x_2_norm;
#X msg 1079 857 symbol input_x_3_norm;
#X obj 32 698 r \$0_initialize_arrays;
#X obj 32 748 t b b b b b b b b, f 136;
#X obj 30 957 r \$0_initialize_arrays;
#X obj 30 1142 list_to_array;
#X msg 131 1102 symbol labels_7_norm;
#X obj 45 68 t b b, f 41;
#X obj 45 112 s \$0_normalize_arrays;
#X obj 2416 301 array_z_score_norm;
#X msg 2416 252 symbol input_x_3;
#X msg 2573 252 symbol input_x_3_norm;
#X obj 2055 303 array_z_score_norm;
#X obj 1685 303 array_z_score_norm;
#X obj 1312 305 array_z_score_norm;
#X msg 1312 252 symbol input_x_0;
#X msg 1469 252 symbol input_x_0_norm;
#X msg 1685 252 symbol input_x_1;
#X msg 1842 252 symbol input_x_1_norm;
#X msg 2055 252 symbol input_x_2;
#X msg 2212 252 symbol input_x_2_norm;
#X msg 1310 467 symbol labels_7;
#X msg 1475 466 symbol labels_7_norm;
#X obj 1310 514 array_z_score_norm;
#X obj 30 1008 t b b, f 28;
#X obj 1310 154 r \$0_normalize_arrays;
#X obj 1310 199 t b b b b b b b b, f 158;
#X obj 1310 365 r \$0_normalize_arrays;
#X obj 1310 419 t b b, f 21;
#X msg 34 314 60 62 64 65 67 69 71;
#X msg 310 316 64 65 67 69 71 72 74;
#X msg 594 318 67 69 71 72 74 76 77;
#X msg 883 312 71 72 74 76 77 79 81;
#X msg 24 576 72 74 76 77 79 81 83;
#X msg 36 803 60 62 64 65 67 69 71;
#X msg 312 805 64 65 67 69 71 72 74;
#X msg 596 807 67 69 71 72 74 76 77;
#X msg 885 801 71 72 74 76 77 79 81;
#X msg 26 1062 72 74 76 77 79 81 83;
#X obj 186 22 bng 23 250 50 0 empty empty empty 0 -12 0 16 #fcfcfc #000000 #000000;
#X connect 0 0 29 0;
#X connect 2 0 1 1;
#X connect 4 0 3 1;
#X connect 7 0 5 1;
#X connect 8 0 6 1;
#X connect 10 0 11 0;
#X connect 11 0 51 0;
#X connect 11 1 2 0;
#X connect 11 2 52 0;
#X connect 11 3 4 0;
#X connect 11 4 53 0;
#X connect 11 5 7 0;
#X connect 11 6 54 0;
#X connect 11 7 8 0;
#X connect 12 0 15 0;
#X connect 14 0 13 1;
#X connect 15 0 55 0;
#X connect 15 1 14 0;
#X connect 20 0 16 1;
#X connect 21 0 17 1;
#X connect 22 0 18 1;
#X connect 23 0 19 1;
#X connect 24 0 25 0;
#X connect 25 0 56 0;
#X connect 25 1 20 0;
#X connect 25 2 57 0;
#X connect 25 3 21 0;
#X connect 25 4 58 0;
#X connect 25 5 22 0;
#X connect 25 6 59 0;
#X connect 25 7 23 0;
#X connect 26 0 46 0;
#X connect 28 0 27 1;
#X connect 29 0 30 0;
#X connect 29 1 9 0;
#X connect 32 0 31 0;
#X connect 33 0 31 1;
#X connect 37 0 36 0;
#X connect 38 0 36 1;
#X connect 39 0 35 0;
#X connect 40 0 35 1;
#X connect 41 0 34 0;
#X connect 42 0 34 1;
#X connect 43 0 45 0;
#X connect 44 0 45 1;
#X connect 46 0 60 0;
#X connect 46 1 28 0;
#X connect 47 0 48 0;
#X connect 48 0 37 0;
#X connect 48 1 38 0;
#X connect 48 2 39 0;
#X connect 48 3 40 0;
#X connect 48 4 41 0;
#X connect 48 5 42 0;
#X connect 48 6 32 0;
#X connect 48 7 33 0;
#X connect 49 0 50 0;
#X connect 50 0 43 0;
#X connect 50 1 44 0;
#X connect 51 0 1 0;
#X connect 52 0 3 0;
#X connect 53 0 5 0;
#X connect 54 0 6 0;
#X connect 55 0 13 0;
#X connect 56 0 16 0;
#X connect 57 0 17 0;
#X connect 58 0 18 0;
#X connect 59 0 19 0;
#X connect 60 0 27 0;
#X connect 61 0 29 0;
#X restore 24 121 pd initialize_static_arrays;
#X obj 20 180 bng 48 250 50 0 empty empty careful! 0 -12 0 16 #e64553 #fe640b #000000;
#X obj 20 254 t b b b b, f 28;
#X obj 21 528 bng 48 250 50 0 empty empty careful! 0 -12 0 16 #e64553 #fe640b #000000;
#X obj 674 351 cnv 23 1500 900 empty empty back\ propagate 20 12 0 16 #ccd0da #404040 0;
#X obj 704 555 array_subtract, f 44;
#X msg 1053 505 symbol prediction_errors;
#X obj 704 460 t b b b, f 44;
#X obj 704 419 bng 23 250 50 0 empty empty empty 0 -12 0 16 #1e66f5 #209fb5 #000000;
#X msg 704 505 symbol z_7;
#X msg 878 505 symbol labels_7_norm;
#X obj 701 955 lin_reg_dw_4, f 153;
#X msg 904 906 symbol input_x_0_norm;
#X msg 1108 906 symbol input_x_1_norm;
#X msg 1311 906 symbol input_x_2_norm;
#X msg 1515 906 symbol input_x_3_norm;
#X msg 1922 906 symbol d_w_4;
#X obj 701 811 bng 23 250 50 0 empty empty empty 0 -12 0 16 #1e66f5 #209fb5 #000000;
#X msg 1718 906 symbol prediction_errors;
#X text 699 390 calculate errors;
#X obj 700 746 lin_reg_db, f 17;
#X msg 833 705 symbol prediction_errors;
#X msg 700 703 symbol d_b;
#X obj 700 623 bng 23 250 50 0 empty empty empty 0 -12 0 16 #1e66f5 #209fb5 #000000;
#X obj 700 662 t b b, f 17;
#X text 697 592 calculate db;
#X text 699 781 calculate dw;
#X obj 20 724 bng 48 250 50 0 empty empty learning\ rate 0 -12 0 16 #40a02b #fe640b #000000;
#X obj 20 833 array set learning_rate;
#X obj 676 0 cnv 23 1500 320 empty empty forward\ propagate 20 12 0 16 #ccd0da #404040 0;
#X obj 688 180 propagate_4, f 167;
#X msg 1830 137 symbol bias_1;
#X msg 1640 137 symbol input_x_3_norm;
#X msg 1449 137 symbol input_x_2_norm;
#X msg 1259 137 symbol input_x_1_norm;
#X msg 1068 137 symbol input_x_0_norm;
#X msg 688 137 symbol weights_4;
#X obj 688 49 bng 23 250 50 0 empty empty empty 0 -12 0 16 #1e66f5 #209fb5 #000000;
#X msg 2021 137 symbol z_7;
#X msg 878 137 symbol tmp_slice;
#X obj 688 96 t b b b b b b b b, f 167;
#X msg 20 305 0 0 0 0;
#X msg 169 396 0;
#X obj 704 1196 update_params, f 125;
#X obj 704 1059 bng 23 250 50 0 empty empty empty 0 -12 0 16 #1e66f5 #209fb5 #000000;
#X msg 903 1151 symbol weights_4;
#X msg 1102 1152 symbol d_w_4;
#X msg 1302 1151 symbol bias_1;
#X msg 1501 1149 symbol d_b;
#X msg 1701 1153 symbol learning_rate;
#X obj 704 1094 t b b b b b b, f 125;
#X obj 25 1194 print;
#X obj 41 1094 bng 23 250 50 0 empty empty empty 0 -12 0 16 #fcfcfc #000000 #000000;
#X msg 177 1098 symbol prediction_errors;
#X msg 144 1051 symbol weights_4;
#X obj 25 1147 array get;
#X msg 66 974 symbol z_7;
#X msg 184 1000 symbol d_b;
#X msg 208 953 symbol d_w_4;
#X obj 701 849 t b b b b b b b, f 153;
#X obj 350 11 tgl 23 0 empty empty empty 0 -12 0 16 #fcfcfc #000000 #000000 0 1;
#X msg 31 918 symbol labels_7_norm;
#X obj 353 99 t b b b b b b;
#X obj 1359 516 mean_squared_error;
#X msg 1359 467 symbol z_7;
#X obj 1359 424 t b b;
#X obj 1359 579 nbx 12 21 -1e+37 1e+37 0 0 empty empty empty 0 -12 0 16 #fcfcfc #000000 #000000 0 256;
#X msg 1511 475 symbol labels_7_norm;
#X obj 350 50 metro 500;
#X msg 447 19 250;
#X msg 20 791 0.01;
#X connect 0 0 2 1;
#X connect 1 0 2 3;
#X connect 4 0 3 0;
#X connect 8 0 9 0;
#X connect 9 0 48 0;
#X connect 9 1 0 0;
#X connect 9 2 49 0;
#X connect 9 3 1 0;
#X connect 10 0 4 0;
#X connect 13 0 12 2;
#X connect 14 0 16 0;
#X connect 14 1 17 0;
#X connect 14 2 13 0;
#X connect 15 0 14 0;
#X connect 16 0 12 0;
#X connect 17 0 12 1;
#X connect 19 0 18 1;
#X connect 20 0 18 2;
#X connect 21 0 18 3;
#X connect 22 0 18 4;
#X connect 23 0 18 6;
#X connect 24 0 66 0;
#X connect 25 0 18 5;
#X connect 28 0 27 1;
#X connect 29 0 27 0;
#X connect 30 0 31 0;
#X connect 31 0 29 0;
#X connect 31 1 28 0;
#X connect 34 0 77 0;
#X connect 38 0 37 6;
#X connect 39 0 37 5;
#X connect 40 0 37 4;
#X connect 41 0 37 3;
#X connect 42 0 37 2;
#X connect 43 0 37 0;
#X connect 44 0 47 0;
#X connect 45 0 37 7;
#X connect 46 0 37 1;
#X connect 47 0 43 0;
#X connect 47 1 46 0;
#X connect 47 2 42 0;
#X connect 47 3 41 0;
#X connect 47 4 40 0;
#X connect 47 5 39 0;
#X connect 47 6 38 0;
#X connect 47 7 45 0;
#X connect 48 0 2 0;
#X connect 49 0 2 2;
#X connect 51 0 57 0;
#X connect 52 0 50 1;
#X connect 53 0 50 2;
#X connect 54 0 50 3;
#X connect 55 0 50 4;
#X connect 56 0 50 5;
#X connect 57 0 50 0;
#X connect 57 1 52 0;
#X connect 57 2 53 0;
#X connect 57 3 54 0;
#X connect 57 4 55 0;
#X connect 57 5 56 0;
#X connect 59 0 62 0;
#X connect 60 0 62 2;
#X connect 61 0 62 2;
#X connect 62 0 58 0;
#X connect 63 0 62 2;
#X connect 64 0 62 2;
#X connect 65 0 62 2;
#X connect 66 0 18 0;
#X connect 66 1 19 0;
#X connect 66 2 20 0;
#X connect 66 3 21 0;
#X connect 66 4 22 0;
#X connect 66 5 25 0;
#X connect 66 6 23 0;
#X connect 67 0 75 0;
#X connect 68 0 62 2;
#X connect 69 0 51 0;
#X connect 69 1 24 0;
#X connect 69 2 30 0;
#X connect 69 3 72 0;
#X connect 69 4 15 0;
#X connect 69 5 44 0;
#X connect 70 0 73 0;
#X connect 71 0 70 0;
#X connect 72 0 71 0;
#X connect 72 1 74 0;
#X connect 74 0 70 1;
#X connect 75 0 69 0;
#X connect 76 0 75 1;
#X connect 77 0 35 0;
