#N canvas 6 42 3428 1363 16;
#X obj 48 129 metro 500;
#X obj 48 89 tgl 23 0 empty empty empty 0 -12 0 16 #fcfcfc #000000 #000000 0 1;
#X obj 50 212 f 1;
#X obj 100 216 + 1;
#X obj 100 176 send tick;
#X obj 50 252 send count;
#X text 48 51 counter;
#X msg 164 72 0.1 0.01 0.6 0.37 0.9 0.257 0.9;
#X obj 200 124 list length;
#X msg -4 129 0;
#X msg 156 33 bang;
#X obj 202 302 list store;
#X obj 202 182 receive count;
#X obj 202 222 % 1;
#X msg 202 262 get \$1;
#X listbox 202 342 20 0 0 0 - - - 0;
#X text 254 21 access list items;
#X msg 449 75 0 1 2 3 4 5 6, f 20;
#X msg 449 115 60 60 60 60 60 60 60;
#X msg 449 155 64 63 63 64 64 63 63;
#X msg 449 195 67 67 67 67 67 67 66;
#X text 449 234 labels (7th of the triad);
#X msg 449 272 71 70 70 71 70 70 70;
#N canvas 532 131 1325 1149 z_score_norm 0;
#N canvas 243 133 917 1015 average 0;
#X obj 309 52 inlet message;
#X obj 431 160 list length;
#X obj 406 331 until;
#X obj 406 383 f 0;
#X obj 456 383 + 1;
#X obj 406 435 t f f;
#X msg 443 486 get \$1;
#X obj 289 508 - 1;
#X obj 244 563 sel \$1;
#X obj 591 557 list store;
#X obj 528 658 f 0, f 6;
#X obj 591 607 + 0;
#X obj 353 725 f;
#X obj 422 785 /, f 9;
#X obj 422 837 outlet;
#X obj 309 104 t l l b, f 31;
#X msg 554 159 0;
#X obj 554 217 t f f f, f 15;
#X obj 405 292 f;
#X obj 405 214 t b l, f 16;
#X obj 578 840 outlet;
#X obj 211 213 t f f f f, f 17;
#X connect 0 0 15 0;
#X connect 1 0 21 0;
#X connect 2 0 3 0;
#X connect 3 0 4 0;
#X connect 3 0 5 0;
#X connect 4 0 3 1;
#X connect 5 0 8 0;
#X connect 5 1 6 0;
#X connect 6 0 9 0;
#X connect 7 0 8 1;
#X connect 8 0 12 0;
#X connect 9 0 11 0;
#X connect 10 0 11 1;
#X connect 10 0 12 1;
#X connect 11 0 10 0;
#X connect 12 0 13 0;
#X connect 13 0 14 0;
#X connect 15 0 19 0;
#X connect 15 1 1 0;
#X connect 15 2 16 0;
#X connect 16 0 17 0;
#X connect 17 0 10 1;
#X connect 17 1 11 1;
#X connect 17 2 3 1;
#X connect 18 0 2 0;
#X connect 19 0 18 0;
#X connect 19 1 9 1;
#X connect 21 0 7 0;
#X connect 21 1 18 1;
#X connect 21 2 13 1;
#X connect 21 3 20 0;
#X restore 242 148 pd average;
#N canvas 122 63 983 1290 standard_deviation 0;
#X obj 88 142 inlet message;
#X obj 592 142 inlet mean;
#X obj 571 286 f 1;
#X obj 211 253 list length;
#X obj 101 253 t b l;
#X obj 211 312 t f f f;
#X obj 229 433 until;
#X obj 227 497 f 0;
#X obj 277 497 + 1;
#X obj 227 556 t f f;
#X msg 264 600 get \$1;
#X obj 224 374 f 1;
#X obj 220 684 list store, f 20;
#X obj 220 737 -;
#X obj 88 195 t l l b b, f 28;
#X msg 343 271 0;
#X obj 343 324 t f f f, f 22;
#X obj 226 797 pow 2;
#X obj 226 850 + 0;
#X obj 153 922 f 0, f 12;
#X obj 132 974 f;
#X obj 89 556 - 1;
#X obj 37 684 sel \$1;
#X obj 154 1050 /;
#X obj 154 1103 sqrt;
#X text 44 21 For each value in the list: Subtract the mean from the value Square the result Sum all the squared differences Divide by n (or n-1) where n is the length of the list Take the square root of the result;
#X obj 154 1156 outlet;
#X connect 0 0 14 0;
#X connect 1 0 2 1;
#X connect 2 0 13 1;
#X connect 3 0 5 0;
#X connect 4 0 11 0;
#X connect 4 1 12 1;
#X connect 5 0 23 1;
#X connect 5 1 21 0;
#X connect 5 2 11 1;
#X connect 6 0 7 0;
#X connect 7 0 8 0;
#X connect 7 0 9 0;
#X connect 8 0 7 1;
#X connect 9 0 22 0;
#X connect 9 1 10 0;
#X connect 10 0 12 0;
#X connect 11 0 6 0;
#X connect 12 0 13 0;
#X connect 13 0 17 0;
#X connect 14 0 4 0;
#X connect 14 1 3 0;
#X connect 14 2 2 0;
#X connect 14 3 15 0;
#X connect 15 0 16 0;
#X connect 16 0 19 1;
#X connect 16 1 18 1;
#X connect 16 2 7 1;
#X connect 17 0 18 0;
#X connect 18 0 19 0;
#X connect 19 0 18 1;
#X connect 19 0 20 1;
#X connect 20 0 23 0;
#X connect 21 0 22 1;
#X connect 22 0 20 0;
#X connect 23 0 24 0;
#X connect 24 0 26 0;
#X restore 173 338 pd standard_deviation;
#X obj 231 33 inlet message;
#X obj 184 265 list store, f 24;
#X obj 242 194 t b f f, f 14;
#X obj 112 517 f;
#X text 72 516 std;
#X obj 339 417 f;
#X text 297 416 mean;
#X text 402 163 list len;
#X obj 114 566 t b f;
#X obj 558 470 until;
#X obj 560 515 f 0;
#X obj 610 515 + 1;
#X obj 557 418 f 1;
#X msg 553 157 0;
#X obj 558 213 t f;
#X obj 365 708 list store, f 25;
#X msg 550 614 get \$1;
#X obj 365 753 -;
#X obj 92 380 t b b f, f 13;
#X obj 365 798 /;
#X obj 374 931 pack f f;
#X obj 445 1213 list store, f 31;
#X obj 240 90 t l l l l b, f 17;
#X obj 415 189 t f f;
#X obj 516 878 - 1;
#X text 590 417 list len;
#X obj 554 565 t f f f;
#X msg 407 1031 set 6 -0.866022;
#X obj 365 850 t b b f;
#X msg 374 980 set set \$1 \$2;
#X obj 408 1079 t a a;
#X obj 489 1074 route set;
#X obj 491 1118 route, f 13;
#X obj 491 1160 t b;
#X text 549 880 last index;
#X obj 223 1295 outlet normalized;
#X obj 776 1295 outlet mean;
#X obj 969 1293 outlet std;
#X connect 0 0 4 0;
#X connect 0 1 25 0;
#X connect 1 0 20 0;
#X connect 2 0 24 0;
#X connect 3 0 1 0;
#X connect 4 0 3 0;
#X connect 4 1 1 1;
#X connect 4 2 7 1;
#X connect 5 0 10 0;
#X connect 5 0 39 0;
#X connect 7 0 19 1;
#X connect 7 0 38 0;
#X connect 10 0 14 0;
#X connect 10 1 21 1;
#X connect 11 0 12 0;
#X connect 12 0 13 0;
#X connect 12 0 28 0;
#X connect 13 0 12 1;
#X connect 14 0 11 0;
#X connect 15 0 16 0;
#X connect 16 0 12 1;
#X connect 17 0 19 0;
#X connect 18 0 17 0;
#X connect 19 0 21 0;
#X connect 20 0 5 0;
#X connect 20 1 7 0;
#X connect 20 2 5 1;
#X connect 21 0 30 0;
#X connect 22 0 31 0;
#X connect 23 0 37 0;
#X connect 24 0 0 0;
#X connect 24 1 3 1;
#X connect 24 2 17 1;
#X connect 24 3 23 1;
#X connect 24 4 15 0;
#X connect 25 0 26 0;
#X connect 25 1 14 1;
#X connect 26 0 34 1;
#X connect 28 0 18 0;
#X connect 28 1 22 0;
#X connect 29 0 32 0;
#X connect 30 0 29 0;
#X connect 30 1 22 0;
#X connect 30 2 22 1;
#X connect 31 0 29 0;
#X connect 32 0 33 0;
#X connect 32 1 23 0;
#X connect 33 0 34 0;
#X connect 34 0 35 0;
#X connect 35 0 23 0;
#X restore 34 533 pd z_score_norm;
#X f 41;
#X listbox 31 602 20 0 0 0 - - - 0;
#X floatatom 195 576 5 0 0 0 - - - 0;
#X floatatom 355 587 5 0 0 0 - - - 0;
#X msg 30 714 1.1547 -0.866022 -0.866022 1.1547 1.1547 -0.866022 -0.866022;
#X msg 31 660 set \$1 \$2 \$3 \$4 \$5 \$6 \$7;
#X msg 35 465 64 63 63 64 64 63 63;
#X obj 42 858 list_std_norm;
#X listbox 39 931 20 0 0 0 - - - 0;
#X floatatom 203 905 5 0 0 0 - - - 0;
#X floatatom 363 916 5 0 0 0 - - - 0;
#X msg 38 1043 1.58114 -0.632453 -0.632453 1.58114 -0.632453 -0.632453 -0.632453;
#X msg 39 989 set \$1 \$2 \$3 \$4 \$5 \$6 \$7;
#X msg 40 791 71 70 70 71 70 70 70;
#X obj 1484 113 list_to_array;
#X msg 1484 32 0 1 2 3 4 5 6, f 20;
#X obj 927 31 array define -k input_x_0;
#A resize 7;
#A 0 0 1 2 3 4 5 6;
#X obj 927 80 array define -k input_x_1;
#A resize 7;
#A 0 60 60 60 60 60 60 60;
#X obj 927 129 array define -k input_x_2;
#A resize 7;
#A 0 64 63 63 64 64 63 63;
#X obj 927 178 array define -k input_x_3;
#A resize 7;
#A 0 67 67 67 67 67 67 66;
#X msg 1585 73 symbol input_x_0;
#X obj 1485 250 list_to_array;
#X msg 1588 210 symbol input_x_1;
#X msg 1485 169 60 60 60 60 60 60 60;
#X obj 1754 113 list_to_array;
#X obj 1755 250 list_to_array;
#X msg 1855 73 symbol input_x_2;
#X msg 1858 210 symbol input_x_3;
#X msg 1753 37 64 63 63 64 64 63 63;
#X msg 1750 171 67 67 67 67 67 67 66;
#X obj 2371 375 array_z_score_norm;
#X msg 2371 322 symbol input_x_3;
#X obj 2918 1182 array get input_x_3;
#X symbolatom 2938 1251 21 0 0 0 - - - 0;
#X obj 2899 1112 bng 23 250 50 0 empty empty empty 0 -12 0 16 #fcfcfc #000000 #000000;
#X obj 2950 1224 print;
#X msg 3006 1149 -1;
#X msg 2946 1140 0;
#X obj 1178 31 array define -k input_x_0_norm;
#A resize 7;
#A 0 -1.5 -1 -0.5 0 0.5 1 1.5;
#X obj 1177 80 array define -k input_x_1_norm;
#A resize 7;
#A 0 0 0 0 0 0 0 0;
#X obj 1177 129 array define -k input_x_2_norm;
#A resize 7;
#A 0 1.1547 -0.866022 -0.866022 1.1547 1.1547 -0.866022 -0.866022;
#X obj 1177 178 array define -k input_x_3_norm;
#A resize 7;
#A 0 0.408258 0.408258 0.408258 0.408258 0.408258 0.408258 -2.44948;
#X obj 1494 383 list_to_array;
#X msg 1494 302 0 1 2 3 4 5 6, f 20;
#X obj 1495 520 list_to_array;
#X msg 1495 439 60 60 60 60 60 60 60;
#X obj 1804 383 list_to_array;
#X obj 1805 520 list_to_array;
#X msg 1803 307 64 63 63 64 64 63 63;
#X msg 1800 441 67 67 67 67 67 67 66;
#X msg 1595 343 symbol input_x_0_norm;
#X msg 1598 480 symbol input_x_1_norm;
#X msg 1905 343 symbol input_x_2_norm;
#X msg 1908 480 symbol input_x_3_norm;
#X symbolatom 3167 1237 21 0 0 0 - - - 0;
#X obj 3128 1098 bng 23 250 50 0 empty empty empty 0 -12 0 16 #fcfcfc #000000 #000000;
#X obj 3179 1210 print;
#X msg 3235 1135 -1;
#X msg 3175 1126 0;
#X obj 3147 1168 array get input_x_3_norm;
#X msg 2528 319 symbol input_x_3_norm;
#X obj 925 313 array define -k weights_4;
#A resize 4;
#A 0 0 0 0 0;
#X obj 925 367 array define -k bias_1;
#A resize 1;
#A 0 0;
#X msg 2105 68 symbol weights_4;
#X msg 2188 140 symbol bias_1;
#X obj 2062 176 initialize_params;
#X msg 2062 20 0 0 0 0;
#X msg 2148 111 0;
#X obj 2371 275 array_z_score_norm;
#X obj 2371 175 array_z_score_norm;
#X obj 2371 85 array_z_score_norm;
#X msg 2372 32 symbol input_x_0;
#X msg 2529 29 symbol input_x_0_norm;
#X msg 2371 122 symbol input_x_1;
#X msg 2528 119 symbol input_x_1_norm;
#X msg 2371 222 symbol input_x_2;
#X msg 2528 219 symbol input_x_2_norm;
#X obj 928 221 array define -k labels_7;
#A resize 7;
#A 0 71 70 70 71 70 70 70;
#X obj 1177 221 array define -k labels_7_norm;
#A resize 7;
#A 0 1.58114 -0.632453 -0.632453 1.58114 -0.632453 -0.632453 -0.632453;
#X obj 1507 659 list_to_array;
#X obj 1777 659 list_to_array;
#X msg 1610 619 symbol labels_7;
#X msg 1880 619 symbol labels_7_norm;
#X msg 1503 576 71 70 70 71 70 70 70;
#X msg 1780 574 71 70 70 71 70 70 70;
#X msg 2370 437 symbol labels_7;
#X msg 2531 436 symbol labels_7_norm;
#X obj 2366 484 array_z_score_norm;
#X text 435 17 X inputs (n_x \, m) - top row is modes bottom rows are note values;
#X obj 2539 663 bng 23 250 50 0 empty empty empty 0 -12 0 16 #fcfcfc #000000 #000000;
#X floatatom 2502 792 5 0 0 0 - - - 0;
#X obj 2502 831 array_slice_4, f 95;
#X obj 918 532 array define tmp_slice 4;
#X msg 2560 763 symbol tmp_slice;
#X obj 2570 694 t b b b b b, f 85;
#X msg 2706 765 symbol input_x_0;
#X msg 2887 763 symbol input_x_1;
#X msg 3069 762 symbol input_x_2;
#X msg 3250 760 symbol input_x_3;
#X obj 2743 601 print;
#X msg 2951 492 symbol tmp_slice;
#X msg 2744 495 symbol tmp_slice;
#X obj 2745 534 array_element_wise_product;
#X obj 2739 432 t b b;
#X obj 2740 390 bng 23 250 50 0 empty empty empty 0 -12 0 16 #fcfcfc #000000 #000000;
#X obj 927 263 array define -k z_7 7;
#A 0 0 0 0 0 0 0 0;
#X obj 2105 304 array set z_7;
#X obj 929 419 array define -k d_w_4 4;
#A 0 1.18 0 -0.730297 -0.258199;
#X obj 979 1048 lin_reg_dw_4, f 123;
#X msg 980 983 symbol input_x_0_norm;
#X msg 1172 983 symbol input_x_1_norm;
#X msg 1367 983 symbol input_x_2_norm;
#X msg 1558 983 symbol input_x_3_norm;
#X msg 1976 975 symbol d_w_4;
#X obj 978 884 bng 23 250 50 0 empty empty empty 0 -12 0 16 #fcfcfc #000000 #000000;
#X obj 1013 865 array_subtract;
#X obj 3099 967 array get;
#X obj 3069 930 bng 23 250 50 0 empty empty empty 0 -12 0 16 #fcfcfc #000000 #000000;
#X obj 3093 1031 print;
#X obj 919 574 array define prediction_errors;
#X msg 1340 806 symbol prediction_errors;
#X msg 1750 979 symbol prediction_errors;
#X msg 2103 250 0 0 0 0 0 0 0;
#X obj 995 758 t b b b, f 44;
#X obj 991 717 bng 23 250 50 0 empty empty empty 0 -12 0 16 #fcfcfc #000000 #000000;
#X msg 992 812 symbol z_7;
#X msg 1163 809 symbol labels_7_norm;
#X obj 979 922 t b b b b b b, f 125;
#X msg 3196 941 symbol d_w_4;
#X obj 928 469 array define -k d_b 1;
#A 0 0;
#X connect 0 0 2 0;
#X connect 0 0 4 0;
#X connect 1 0 0 0;
#X connect 2 0 3 0;
#X connect 2 0 5 0;
#X connect 3 0 2 1;
#X connect 7 0 8 0;
#X connect 7 0 11 1;
#X connect 8 0 13 1;
#X connect 9 0 2 1;
#X connect 10 0 7 0;
#X connect 11 0 15 0;
#X connect 12 0 13 0;
#X connect 13 0 14 0;
#X connect 14 0 11 0;
#X connect 23 0 24 0;
#X connect 23 1 25 0;
#X connect 23 2 26 0;
#X connect 24 0 28 0;
#X connect 28 0 27 0;
#X connect 29 0 23 0;
#X connect 30 0 31 0;
#X connect 30 1 32 0;
#X connect 30 2 33 0;
#X connect 31 0 35 0;
#X connect 35 0 34 0;
#X connect 36 0 30 0;
#X connect 38 0 37 0;
#X connect 43 0 37 1;
#X connect 45 0 44 1;
#X connect 46 0 44 0;
#X connect 49 0 47 1;
#X connect 50 0 48 1;
#X connect 51 0 47 0;
#X connect 52 0 48 0;
#X connect 54 0 53 0;
#X connect 55 0 56 0;
#X connect 55 0 58 0;
#X connect 57 0 55 0;
#X connect 59 0 55 1;
#X connect 60 0 55 0;
#X connect 66 0 65 0;
#X connect 68 0 67 0;
#X connect 71 0 69 0;
#X connect 72 0 70 0;
#X connect 73 0 65 1;
#X connect 74 0 67 1;
#X connect 75 0 69 1;
#X connect 76 0 70 1;
#X connect 78 0 82 0;
#X connect 80 0 82 1;
#X connect 81 0 82 0;
#X connect 82 0 77 0;
#X connect 82 0 79 0;
#X connect 83 0 53 1;
#X connect 86 0 88 1;
#X connect 87 0 88 3;
#X connect 89 0 88 0;
#X connect 90 0 88 2;
#X connect 94 0 93 0;
#X connect 95 0 93 1;
#X connect 96 0 92 0;
#X connect 97 0 92 1;
#X connect 98 0 91 0;
#X connect 99 0 91 1;
#X connect 104 0 102 1;
#X connect 105 0 103 1;
#X connect 106 0 102 0;
#X connect 107 0 103 0;
#X connect 108 0 110 0;
#X connect 109 0 110 1;
#X connect 112 0 117 0;
#X connect 113 0 114 0;
#X connect 116 0 114 1;
#X connect 117 0 116 0;
#X connect 117 1 118 0;
#X connect 117 2 119 0;
#X connect 117 3 120 0;
#X connect 117 4 121 0;
#X connect 118 0 114 2;
#X connect 119 0 114 3;
#X connect 120 0 114 4;
#X connect 121 0 114 5;
#X connect 123 0 125 1;
#X connect 124 0 125 0;
#X connect 125 0 122 0;
#X connect 126 0 124 0;
#X connect 126 1 123 0;
#X connect 127 0 126 0;
#X connect 132 0 131 0;
#X connect 133 0 131 1;
#X connect 134 0 131 2;
#X connect 135 0 131 3;
#X connect 136 0 131 5;
#X connect 137 0 150 0;
#X connect 139 0 141 0;
#X connect 140 0 139 0;
#X connect 143 0 138 2;
#X connect 144 0 131 4;
#X connect 145 0 129 0;
#X connect 146 0 148 0;
#X connect 146 1 149 0;
#X connect 146 2 143 0;
#X connect 147 0 146 0;
#X connect 148 0 138 0;
#X connect 149 0 138 1;
#X connect 150 0 132 0;
#X connect 150 1 133 0;
#X connect 150 2 134 0;
#X connect 150 3 135 0;
#X connect 150 4 144 0;
#X connect 150 5 136 0;
#X connect 151 0 139 2;
