#N canvas 827 528 1104 725 16;
#X obj 230 307 list split 1, f 24;
#X obj 214 421 array get;
#X msg 248 392 1;
#X obj 324 338 list prepend set;
#X obj 324 366 list trim;
#X msg 324 394;
#X obj 324 422 list;
#X obj 214 459 outlet;
#X obj 230 335 t b b b s;
#X obj 254 33 inlet index;
#X msg 113 339 set \$1;
#X msg 113 384 1;
#X obj 90 33 inlet arr_list;
#X obj 405 38 inlet arr_output;
#X obj 469 152 f \$1;
#X msg 466 193 set \$1;
#X msg 464 242 0;
#X obj 372 136 bng 23 250 50 0 empty empty empty 0 -12 0 16 #fcfcfc #000000 #000000;
#X connect 0 0 8 0;
#X connect 0 1 3 0;
#X connect 1 0 7 0;
#X connect 2 0 1 1;
#X connect 3 0 4 0;
#X connect 4 0 5 0;
#X connect 5 0 6 0;
#X connect 6 0 0 0;
#X connect 8 0 5 0;
#X connect 8 1 11 0;
#X connect 8 2 2 0;
#X connect 8 3 1 2;
#X connect 9 0 10 0;
#X connect 10 0 11 0;
#X connect 11 0 1 0;
#X connect 12 0 0 0;
#X connect 14 0 15 0;
#X connect 15 0 16 0;
#X connect 17 0 14 0;
